<svg width="17.916992" height="17.916626" viewBox="0 0 17.917 17.9166" fill="none" xmlns="http://www.w3.org/2000/svg" xmlns:xlink="http://www.w3.org/1999/xlink">
	<desc>
			Created with Pixso.
	</desc>
	<defs/>
	<path id="Vector" d="M7.24 0L7.29 0C7.63 0 7.91 0.27 7.91 0.62C7.91 0.97 7.63 1.25 7.29 1.25C5.7 1.25 4.57 1.25 3.71 1.36C2.87 1.47 2.39 1.69 2.04 2.04C1.69 2.39 1.47 2.87 1.36 3.71C1.25 4.57 1.25 5.7 1.25 7.29C1.25 7.63 0.96 7.91 0.62 7.91C0.28 7.91 0 7.63 0 7.29L0 7.24C0 5.71 0 4.5 0.12 3.55C0.25 2.57 0.53 1.78 1.15 1.15C1.78 0.53 2.57 0.25 3.55 0.12C4.5 0 5.71 0 7.24 0ZM14.19 1.36C13.34 1.25 12.21 1.25 10.62 1.25C10.28 1.25 10 0.97 10 0.62C10 0.27 10.28 0 10.62 0L10.67 0C12.2 0 13.41 0 14.36 0.12C15.34 0.25 16.13 0.53 16.75 1.15C17.38 1.78 17.65 2.57 17.78 3.55C17.91 4.5 17.91 5.71 17.91 7.24L17.91 7.29C17.91 7.63 17.63 7.91 17.29 7.91C16.94 7.91 16.66 7.63 16.66 7.29C16.66 5.7 16.66 4.57 16.54 3.71C16.43 2.87 16.22 2.39 15.87 2.04C15.52 1.69 15.03 1.47 14.19 1.36ZM0.62 10C0.96 10 1.25 10.27 1.25 10.62C1.25 12.21 1.25 13.34 1.36 14.19C1.47 15.03 1.69 15.52 2.04 15.87C2.39 16.22 2.87 16.43 3.71 16.55C4.57 16.66 5.7 16.66 7.29 16.66C7.63 16.66 7.91 16.94 7.91 17.29C7.91 17.63 7.63 17.91 7.29 17.91L7.24 17.91C5.71 17.91 4.5 17.91 3.55 17.78C2.57 17.65 1.78 17.38 1.15 16.75C0.53 16.13 0.25 15.34 0.12 14.36C0 13.41 0 12.2 0 10.67L0 10.62C0 10.27 0.28 10 0.62 10ZM17.29 10C17.63 10 17.91 10.27 17.91 10.62L17.91 10.67C17.91 12.2 17.91 13.41 17.78 14.36C17.65 15.34 17.38 16.13 16.75 16.75C16.13 17.38 15.34 17.65 14.36 17.78C13.41 17.91 12.2 17.91 10.67 17.91L10.62 17.91C10.28 17.91 10 17.63 10 17.29C10 16.94 10.28 16.66 10.62 16.66C12.21 16.66 13.34 16.66 14.19 16.55C15.03 16.43 15.52 16.22 15.87 15.87C16.22 15.52 16.43 15.03 16.54 14.19C16.66 13.34 16.66 12.21 16.66 10.62C16.66 10.27 16.94 10 17.29 10Z" fill="#747783" fill-opacity="1.000000" fill-rule="evenodd"/>
</svg>
