<svg width="20.000000" height="20.000000" viewBox="0 0 20 20" fill="none" xmlns="http://www.w3.org/2000/svg" xmlns:xlink="http://www.w3.org/1999/xlink">
	<desc>
			Created with Pixso.
	</desc>
	<defs/>
	<path id="Vector" d="M14.16 6.53C15.41 9.16 15.41 10.83 14.16 13.47M15.88 4.79C18.03 7.39 18.03 12.6 15.88 15.2M5.83 7.08L6.35 6.7C8.55 5.08 9.66 4.27 10.57 4.5C10.86 4.58 11.12 4.71 11.35 4.9C12.08 5.5 12.08 6.87 12.08 9.6L12.08 10.39C12.08 13.12 12.08 14.49 11.35 15.09C11.12 15.28 10.86 15.41 10.57 15.49C9.66 15.72 8.55 14.91 6.35 13.29L5.83 12.91L5.41 12.91C4.56 12.91 4.13 12.91 3.79 12.78C3.25 12.58 2.83 12.16 2.62 11.62C2.49 11.28 2.49 10.85 2.49 10C2.49 9.14 2.49 8.71 2.62 8.37C2.83 7.83 3.25 7.41 3.79 7.21C4.13 7.08 4.56 7.08 5.41 7.08L5.83 7.08ZM5.83 7.08L5.83 12.91" stroke="#747783" stroke-opacity="1.000000" stroke-width="1.500000" stroke-linejoin="round" stroke-linecap="round"/>
</svg>
