<svg width="120.004639" height="39.988281" viewBox="0 0 120.005 39.9883" fill="none" xmlns="http://www.w3.org/2000/svg" xmlns:xlink="http://www.w3.org/1999/xlink">
	<desc>
			Created with Pixso.
	</desc>
	<defs>
		<linearGradient x1="20.386524" y1="39.827534" x2="19.990185" y2="-6.535303" id="paint_linear_3_5593_0" gradientUnits="userSpaceOnUse">
			<stop stop-color="#DDA600"/>
			<stop offset="1.000000" stop-color="#FFDF28"/>
		</linearGradient>
	</defs>
	<path id="Vector" d="M58.02 17.46C57.71 17.42 56.92 17.4 55.64 17.4L55.33 17.4L55.33 6.79L53.41 6.79C53.07 6.77 52.73 6.8 52.4 6.88C52.31 6.92 52.23 6.97 52.16 7.03L52.13 7.03L52.13 4.57L52.16 4.53C52.73 4.64 53.3 4.67 53.88 4.64L59.97 4.64C60.31 4.67 60.65 4.64 60.98 4.55C61.06 4.51 61.14 4.46 61.22 4.4L61.25 4.4L61.25 6.86L61.22 6.89C60.65 6.79 60.07 6.75 59.49 6.78L58.02 6.78L58.02 17.46ZM61.15 23.28L60.97 26.11L60.9 26.11C60.42 25.4 59.61 24.93 58.46 24.73C58.11 24.66 57.76 24.62 57.41 24.62C57.13 24.61 56.84 24.64 56.56 24.71C56.34 24.75 56.14 24.84 55.95 24.96C55.79 25.05 55.66 25.18 55.56 25.34C55.47 25.49 55.42 25.67 55.42 25.86C55.4 26.07 55.43 26.27 55.51 26.47C55.59 26.66 55.72 26.83 55.88 26.97C56.46 27.33 57.12 27.54 57.81 27.58C58.55 27.67 59.27 27.83 59.97 28.07C60.46 28.25 60.92 28.51 61.31 28.85C61.65 29.17 61.91 29.56 62.08 29.99C62.26 30.42 62.33 30.88 62.3 31.35C62.33 31.98 62.2 32.61 61.92 33.18C61.64 33.74 61.21 34.23 60.69 34.6C59.67 35.28 58.45 35.62 57.22 35.58C56.08 35.57 54.95 35.35 53.9 34.94C53.56 34.81 53.25 34.65 52.95 34.45L53.05 31.24L53.09 31.22C53.89 32.59 55.21 33.27 57.06 33.27C58.36 33.27 59.22 32.96 59.64 32.34C59.78 32.13 59.85 31.89 59.85 31.64C59.86 31.41 59.81 31.19 59.72 30.99C59.63 30.81 59.5 30.66 59.33 30.55C58.74 30.25 58.1 30.09 57.44 30.07C56.69 30.02 55.96 29.86 55.27 29.59C54.76 29.4 54.3 29.11 53.91 28.74C53.6 28.39 53.36 27.99 53.2 27.55C53.04 27.1 52.98 26.64 53.01 26.17C52.99 25.65 53.09 25.14 53.3 24.67C53.51 24.19 53.82 23.77 54.21 23.43C55.03 22.71 56.14 22.35 57.54 22.35C58.83 22.33 60.09 22.65 61.2 23.3L61.15 23.28ZM64.2 17.48C63.65 17.43 63.01 17.4 62.25 17.4L61.49 17.4L65.71 5.71C65.83 5.41 65.92 5.1 65.99 4.79C65.99 4.74 65.99 4.69 65.99 4.63L65.99 4.61C66.41 4.63 66.85 4.64 67.33 4.64C67.72 4.64 68.18 4.64 68.72 4.64C68.71 4.67 68.7 4.71 68.7 4.75C68.76 5.08 68.86 5.41 68.99 5.72L73.32 17.43C73.19 17.43 73.04 17.43 72.86 17.43L72.36 17.41L70.42 17.41L69.51 14.67L65.11 14.67L64.2 17.48ZM68.74 12.34L67.27 7.88L65.84 12.34L68.74 12.34ZM75.88 15.89C75.28 15.32 74.81 14.64 74.48 13.88C74.14 13.07 73.97 12.19 73.98 11.31C73.97 10.41 74.13 9.52 74.45 8.67C74.76 7.86 75.22 7.11 75.81 6.48C76.41 5.83 77.13 5.32 77.94 4.97C78.82 4.58 79.78 4.39 80.75 4.4C82.41 4.36 84.03 4.96 85.26 6.07C86.55 7.25 87.19 8.85 87.19 10.89C87.22 11.8 87.05 12.7 86.7 13.54C86.36 14.38 85.83 15.14 85.17 15.77C84.35 16.57 83.33 17.14 82.22 17.42C81.57 17.58 80.9 17.65 80.24 17.64C79.44 17.63 78.65 17.48 77.92 17.18C77.15 16.89 76.44 16.45 75.84 15.89L75.88 15.89ZM76.67 11.18C76.66 11.74 76.77 12.3 76.97 12.82C77.26 13.57 77.77 14.2 78.45 14.63C79.12 15.07 79.92 15.28 80.72 15.24C81.23 15.26 81.73 15.18 82.2 14.99C82.67 14.8 83.1 14.52 83.45 14.16C84.18 13.31 84.56 12.21 84.5 11.09C84.54 10 84.18 8.92 83.5 8.05C83.14 7.62 82.69 7.28 82.18 7.06C81.67 6.83 81.11 6.73 80.55 6.75C80 6.73 79.45 6.84 78.95 7.07C78.45 7.3 78.01 7.64 77.67 8.07C76.98 8.96 76.63 10.06 76.67 11.18ZM69.49 35.37C69.16 35.34 68.83 35.33 68.5 35.33L67.37 35.33C67.15 35.33 66.98 35.33 66.83 35.33C66.86 35.29 66.87 35.23 66.87 35.18C66.87 35.12 66.87 35.06 66.87 35C66.87 34.93 66.83 34.82 66.79 34.65L66.58 33.93L63.28 22.53C63.7 22.56 64.2 22.57 64.79 22.57C65.17 22.59 65.55 22.56 65.93 22.49L68.22 31.18L70.45 22.53L70.71 22.53L70.94 22.53C71.15 22.53 71.42 22.55 71.73 22.55C72.07 22.55 72.4 22.53 72.73 22.47L75.01 31.16L76.95 22.51C77.35 22.54 77.85 22.55 78.48 22.55C78.86 22.58 79.24 22.55 79.62 22.47L76.85 32.6C76.62 33.28 76.43 33.97 76.28 34.67C76.28 34.89 76.26 35.04 76.26 35.12C76.26 35.19 76.27 35.26 76.29 35.32L76.27 35.35C75.95 35.32 75.62 35.31 75.3 35.31L74.24 35.31C73.92 35.31 73.69 35.31 73.55 35.31C73.58 35.27 73.59 35.21 73.59 35.16C73.59 35.1 73.59 35.04 73.59 34.98C73.59 34.93 73.56 34.82 73.54 34.66C73.51 34.49 73.46 34.26 73.4 33.93L73.13 32.63L71.5 26.65L69.98 32.6C69.67 33.82 69.51 34.53 69.49 34.71C69.46 34.91 69.46 35.12 69.49 35.33L69.49 35.36L69.49 35.37ZM87.88 33.02C88.16 33.04 88.45 33 88.71 32.9L88.75 32.9L88.65 35.31L81.39 35.31L81.39 22.51C81.57 22.51 81.76 22.53 81.98 22.53L82.65 22.53C83.1 22.53 83.6 22.55 84.13 22.55C85.61 22.55 87.07 22.53 88.52 22.47C88.44 23.22 88.4 23.98 88.41 24.73C88.4 24.81 88.4 24.88 88.41 24.96L88.41 24.99C87.94 24.88 87.46 24.83 86.98 24.85L83.93 24.85L83.93 27.29L86.22 27.29C86.65 27.31 87.08 27.29 87.5 27.23L87.53 29.59C87.13 29.55 86.74 29.53 86.34 29.54L83.94 29.54L83.94 32.99L87.88 33.02ZM97.77 33.02C98.05 33.04 98.33 33 98.6 32.9L98.64 32.9L98.54 35.31L91.28 35.31L91.28 22.51C91.45 22.51 91.65 22.53 91.86 22.53L92.54 22.53C92.99 22.53 93.48 22.55 94.01 22.55C95.49 22.55 96.96 22.53 98.41 22.47C98.33 23.22 98.29 23.98 98.3 24.73C98.3 24.81 98.3 24.89 98.32 24.96L98.3 24.99C97.83 24.88 97.35 24.83 96.86 24.85L93.81 24.85L93.81 27.29L96.11 27.29C96.54 27.31 96.97 27.29 97.39 27.23L97.42 29.59C97.02 29.55 96.63 29.53 96.23 29.54L93.81 29.54L93.81 32.99L97.77 33.02ZM100.98 22.49C101.9 22.38 102.83 22.32 103.76 22.32C105.52 22.32 106.85 22.71 107.77 23.54C108.69 24.38 109.14 25.58 109.14 27.2C109.17 27.85 109.05 28.5 108.79 29.1C108.53 29.69 108.13 30.22 107.64 30.65C106.62 31.47 105.33 31.88 104.02 31.82C103.85 31.82 103.67 31.82 103.47 31.8L103.47 35.33L100.99 35.33L100.99 22.51L100.98 22.49ZM104.04 24.63C103.84 24.63 103.64 24.63 103.45 24.65L103.45 29.71C103.71 29.74 103.96 29.75 104.21 29.75C104.53 29.75 104.85 29.68 105.14 29.56C105.44 29.45 105.71 29.27 105.94 29.04C106.17 28.79 106.35 28.5 106.47 28.19C106.59 27.87 106.64 27.54 106.62 27.2C106.62 25.49 105.76 24.64 104.02 24.64L104.04 24.63ZM118.84 23.27L118.66 26.09L118.59 26.09C118.11 25.39 117.29 24.92 116.15 24.71C115.8 24.64 115.45 24.61 115.1 24.61C114.81 24.6 114.53 24.63 114.25 24.69C114.03 24.74 113.83 24.83 113.64 24.94C113.48 25.04 113.35 25.17 113.25 25.32C113.16 25.48 113.11 25.66 113.11 25.85C113.09 26.05 113.13 26.26 113.21 26.45C113.29 26.64 113.41 26.81 113.57 26.94C114.16 27.3 114.82 27.51 115.5 27.56C116.24 27.64 116.97 27.8 117.67 28.04C118.16 28.22 118.61 28.48 119 28.83C119.34 29.14 119.61 29.53 119.78 29.96C119.95 30.39 120.02 30.86 119.99 31.32C120.02 31.95 119.89 32.58 119.61 33.15C119.33 33.72 118.91 34.21 118.38 34.57C117.36 35.25 116.15 35.6 114.91 35.55C113.77 35.55 112.64 35.33 111.58 34.92C111.24 34.79 110.92 34.62 110.62 34.42L110.73 31.22L110.77 31.19C111.56 32.56 112.88 33.25 114.73 33.25C116.03 33.25 116.89 32.93 117.31 32.31C117.46 32.11 117.53 31.86 117.53 31.61C117.54 31.39 117.49 31.17 117.4 30.97C117.3 30.8 117.15 30.66 116.97 30.57C116.39 30.27 115.74 30.11 115.08 30.09C114.34 30.04 113.6 29.88 112.91 29.61C112.4 29.42 111.94 29.13 111.56 28.76C111.24 28.41 111 28.01 110.84 27.57C110.68 27.12 110.62 26.66 110.64 26.19C110.63 25.67 110.73 25.16 110.94 24.68C111.15 24.21 111.46 23.79 111.86 23.45C112.68 22.71 113.79 22.34 115.18 22.34C116.47 22.31 117.73 22.64 118.84 23.28L118.84 23.27Z" fill="#FFFFFF" fill-opacity="1.000000" fill-rule="evenodd"/>
	<path id="Vector" d="M20.21 0C24.88 -0.01 29.42 1.6 33.03 4.53C36.65 7.47 39.12 11.55 40.03 16.09C40.95 20.62 40.24 25.33 38.04 29.41C35.83 33.49 32.27 36.69 27.95 38.46C23.63 40.23 18.82 40.47 14.34 39.12C9.87 37.78 6 34.94 3.4 31.1C0.8 27.25 -0.37 22.63 0.09 18.03C0.55 13.43 2.61 9.12 5.91 5.85C7.79 3.99 10.02 2.52 12.47 1.51C14.92 0.51 17.55 -0.01 20.21 0ZM18.62 31.13L21.83 31.13L21.83 21.58L31.47 21.58L31.47 18.42L8.95 18.42L8.95 21.6L18.62 21.6L18.62 31.13ZM18.62 16.5L21.83 16.5L21.83 8.86L18.62 8.86L18.62 16.5ZM11.12 26.74L13.39 29.01L16.68 25.74L16.68 23.49L14.41 23.49L11.12 26.74ZM14.41 16.5L16.68 16.5L16.68 14.26L13.39 11L11.12 13.24L14.41 16.5ZM23.74 14.26L23.74 16.5L26.01 16.5L29.32 13.24L27.05 11L23.76 14.26L23.74 14.26ZM26.01 23.49L23.74 23.49L23.74 25.73L27.04 29.01L29.32 26.74L26.03 23.49L26.01 23.49ZM31.78 8.55C29.11 5.9 25.58 4.25 21.82 3.89C18.05 3.52 14.27 4.46 11.13 6.54C7.98 8.62 5.66 11.72 4.56 15.3C3.46 18.88 3.66 22.73 5.1 26.19C6.55 29.65 9.17 32.5 12.51 34.27C15.85 36.03 19.7 36.6 23.41 35.86C27.13 35.13 30.47 33.15 32.87 30.26C35.27 27.36 36.58 23.73 36.58 19.99C36.58 17.86 36.16 15.76 35.34 13.79C34.51 11.83 33.31 10.05 31.78 8.55Z" fill="url(#paint_linear_3_5593_0)" fill-opacity="1.000000" fill-rule="evenodd"/>
</svg>
