<svg width="20.000000" height="20.000000" viewBox="0 0 20 20" fill="none" xmlns="http://www.w3.org/2000/svg" xmlns:xlink="http://www.w3.org/1999/xlink">
	<desc>
			Created with Pixso.
	</desc>
	<defs/>
	<path id="Vector" d="M6.04 10C6.04 10.8 5.38 11.45 4.58 11.45C3.77 11.45 3.12 10.8 3.12 10C3.12 9.19 3.77 8.54 4.58 8.54C5.38 8.54 6.04 9.19 6.04 10ZM11.45 10C11.45 10.8 10.8 11.45 10 11.45C9.19 11.45 8.54 10.8 8.54 10C8.54 9.19 9.19 8.54 10 8.54C10.8 8.54 11.45 9.19 11.45 10ZM15.41 11.45C16.22 11.45 16.87 10.8 16.87 10C16.87 9.19 16.22 8.54 15.41 8.54C14.61 8.54 13.95 9.19 13.95 10C13.95 10.8 14.61 11.45 15.41 11.45Z" fill="#525560" fill-opacity="1.000000" fill-rule="evenodd"/>
</svg>
