<svg width="28.000000" height="28.000000" viewBox="0 0 28 28" fill="none" xmlns="http://www.w3.org/2000/svg" xmlns:xlink="http://www.w3.org/1999/xlink">
	<desc>
			Created with Pixso.
	</desc>
	<defs>
		<clipPath id="clip245_21756">
			<rect id="Bold / Money / Wallet Money" rx="0.000000" width="27.250000" height="27.250000" transform="translate(0.375000 0.375000)" fill="white" fill-opacity="0"/>
		</clipPath>
	</defs>
	<g clip-path="url(#clip245_21756)">
		<path id="Vector" d="M11.35 3.01L9.07 4.69C9.96 4.66 10.95 4.66 12.03 4.66L14.56 4.66C15.74 4.66 16.81 4.66 17.77 4.7L15.47 3.01C14.24 2.1 12.58 2.1 11.35 3.01ZM23.6 21.7C23.77 21.69 23.9 21.85 23.85 22.01C23.63 22.82 23.27 23.51 22.69 24.08C21.85 24.93 20.78 25.31 19.47 25.49C18.18 25.66 16.55 25.66 14.48 25.66L12.1 25.66C10.04 25.66 8.4 25.66 7.12 25.49C5.8 25.31 4.74 24.93 3.89 24.08C3.05 23.24 2.68 22.16 2.5 20.83C2.33 19.54 2.33 17.89 2.33 15.81L2.33 15.68C2.33 13.6 2.33 11.95 2.5 10.66C2.68 9.33 3.05 8.25 3.89 7.41C4.74 6.56 5.8 6.18 7.12 6C8.4 5.83 10.04 5.83 12.1 5.83L14.48 5.83C16.55 5.83 18.18 5.83 19.47 6C20.78 6.18 21.85 6.56 22.69 7.41C23.27 7.98 23.63 8.67 23.85 9.48C23.9 9.64 23.77 9.8 23.6 9.79L20.76 9.79C17.58 9.79 14.76 12.33 14.76 15.75C14.76 19.16 17.58 21.7 20.76 21.7L23.6 21.7ZM6.55 10.36C6.08 10.36 5.7 10.74 5.7 11.21C5.7 11.68 6.08 12.06 6.55 12.06L11.04 12.06C11.51 12.06 11.89 11.68 11.89 11.21C11.89 10.74 11.51 10.36 11.04 10.36L6.55 10.36ZM23.81 11.5C23.75 11.49 23.67 11.49 23.6 11.5L23.58 11.5L20.76 11.5C18.44 11.5 16.45 13.34 16.45 15.75C16.45 18.15 18.44 20 20.76 20L23.58 20L23.6 20L23.6 20C23.67 20 23.75 20 23.81 19.99C24.75 19.93 25.59 19.19 25.66 18.15C25.66 18.08 25.66 18 25.66 17.94L25.66 17.94L25.66 17.92L25.66 13.57L25.66 13.55L25.66 13.55C25.66 13.49 25.66 13.41 25.66 13.34C25.59 12.3 24.75 11.56 23.81 11.5ZM20.51 16.88C21.11 16.88 21.6 16.37 21.6 15.75C21.6 15.12 21.11 14.61 20.51 14.61C19.91 14.61 19.43 15.12 19.43 15.75C19.43 16.37 19.91 16.88 20.51 16.88Z" fill="#9ED927" fill-opacity="1.000000" fill-rule="evenodd"/>
	</g>
</svg>
