<svg width="13.000000" height="13.000000" viewBox="0 0 13 13" fill="none" xmlns="http://www.w3.org/2000/svg" xmlns:xlink="http://www.w3.org/1999/xlink">
	<desc>
			Created with Pixso.
	</desc>
	<defs/>
	<path id="Vector" d="M6.98 0.37C6.92 0.15 6.72 0 6.5 0C6.27 0 6.07 0.15 6.01 0.37C5.59 2.03 4.99 3.23 4.11 4.11C3.23 4.99 2.03 5.6 0.37 6.01C0.15 6.07 0 6.27 0 6.5C0 6.72 0.15 6.92 0.37 6.98C2.03 7.39 3.23 8 4.11 8.88C4.99 9.76 5.59 10.96 6.01 12.62C6.07 12.84 6.27 13 6.5 13C6.72 13 6.92 12.84 6.98 12.62C7.4 10.96 8 9.76 8.88 8.88C9.76 8 10.96 7.39 12.62 6.98C12.84 6.92 13 6.72 13 6.5C13 6.27 12.84 6.07 12.62 6.01C10.96 5.6 9.76 4.99 8.88 4.11C8 3.23 7.4 2.03 6.98 0.37Z" fill="#333600" fill-opacity="1.000000" fill-rule="evenodd"/>
</svg>
