<svg width="20.000000" height="20.000000" viewBox="0 0 20 20" fill="none" xmlns="http://www.w3.org/2000/svg" xmlns:xlink="http://www.w3.org/1999/xlink">
	<desc>
			Created with Pixso.
	</desc>
	<defs/>
	<path id="Vector" d="M15.83 6.25L7.08 6.25M15.83 10L7.08 10M15.83 13.75L7.08 13.75" stroke="#747783" stroke-opacity="1.000000" stroke-width="1.500000" stroke-linejoin="round" stroke-linecap="round"/>
	<path id="Vector" d="M4.37 5.41C4.83 5.41 5.2 5.78 5.2 6.25C5.2 6.71 4.83 7.08 4.37 7.08C3.91 7.08 3.54 6.71 3.54 6.25C3.54 5.78 3.91 5.41 4.37 5.41ZM4.37 9.16C4.83 9.16 5.2 9.53 5.2 10C5.2 10.46 4.83 10.83 4.37 10.83C3.91 10.83 3.54 10.46 3.54 10C3.54 9.53 3.91 9.16 4.37 9.16ZM5.2 13.75C5.2 13.28 4.83 12.91 4.37 12.91C3.91 12.91 3.54 13.28 3.54 13.75C3.54 14.21 3.91 14.58 4.37 14.58C4.83 14.58 5.2 14.21 5.2 13.75Z" fill="#747783" fill-opacity="1.000000" fill-rule="evenodd"/>
</svg>
