<svg width="19.500000" height="17.468872" viewBox="0 0 19.5 17.4689" fill="none" xmlns="http://www.w3.org/2000/svg" xmlns:xlink="http://www.w3.org/1999/xlink">
	<desc>
			Created with Pixso.
	</desc>
	<defs>
		<linearGradient x1="9.750000" y1="0.000000" x2="9.750000" y2="17.468849" id="paint_linear_8_10426_0" gradientUnits="userSpaceOnUse">
			<stop stop-color="#FFC71B"/>
			<stop offset="1.000000" stop-color="#FFE92B"/>
		</linearGradient>
	</defs>
	<path id="Vector" d="M0 7.25C0 4.91931 0 3.75403 0.400146 2.84192C0.878906 1.75049 1.75049 0.878906 2.84204 0.400024C3.75415 0 4.91943 0 7.25 0L12.25 0C14.5806 0 15.7461 0 16.658 0.400024C17.7495 0.878906 18.6211 1.75049 19.0999 2.84192C19.5 3.75403 19.5 4.91931 19.5 7.25C19.5 9.52356 19.4951 10.7572 19.0999 11.6581C18.6211 12.7495 17.7495 13.6211 16.658 14.1C15.7458 14.5 14.5806 14.5 12.25 14.5L9.927 14.5L5.38086 16.7731C4.28931 17.3188 3.74341 17.5917 3.4043 17.4156C3.29932 17.3611 3.20874 17.2825 3.13989 17.1863C2.91748 16.8754 3.1106 16.2965 3.49658 15.1387L3.75513 14.3627C3.41162 14.3038 3.11548 14.2198 2.84204 14.1C1.75049 13.6211 0.878906 12.7495 0.400146 11.6581C0 10.746 0 9.58069 0 7.25ZM5.75 5L10.75 5C11.1699 5 11.5 5.32996 11.5 5.75C11.5 6.17004 11.1699 6.5 10.75 6.5L5.75 6.5C5.33008 6.5 5 6.17004 5 5.75C5 5.32996 5.33008 5 5.75 5ZM5 8.75C5 9.17004 5.33008 9.5 5.75 9.5L13.75 9.5C14.1699 9.5 14.5 9.17004 14.5 8.75C14.5 8.32996 14.1699 8 13.75 8L5.75 8C5.33008 8 5 8.32996 5 8.75Z" clip-rule="evenodd" fill="url(#paint_linear_8_10426_0)" fill-opacity="1.000000" fill-rule="evenodd"/>
</svg>
