<svg width="24.000000" height="24.000000" viewBox="0 0 24 24" fill="none" xmlns="http://www.w3.org/2000/svg" xmlns:xlink="http://www.w3.org/1999/xlink">
	<desc>
			Created with Pixso.
	</desc>
	<defs>
		<clipPath id="clip7_836">
			<rect id="clone-3 1" rx="0.000000" width="23.000000" height="23.000000" transform="translate(0.500000 0.500000)" fill="white" fill-opacity="0"/>
		</clipPath>
		<linearGradient x1="9.500000" y1="2.000000" x2="9.500000" y2="17.000000" id="paint_linear_7_833_0" gradientUnits="userSpaceOnUse">
			<stop stop-color="#FFC71B"/>
			<stop offset="1.000000" stop-color="#FFE92B"/>
		</linearGradient>
		<linearGradient x1="14.500000" y1="7.000000" x2="14.500000" y2="22.000000" id="paint_linear_7_834_0" gradientUnits="userSpaceOnUse">
			<stop stop-color="#FFC71B"/>
			<stop offset="1.000000" stop-color="#FFE92B"/>
		</linearGradient>
	</defs>
	<rect id="clone-3 1" rx="0.000000" width="23.000000" height="23.000000" transform="translate(0.500000 0.500000)" fill="#FFFFFF" fill-opacity="0"/>
	<g clip-path="url(#clip7_836)">
		<path id="Vector" d="M17 14C17 15.65 15.65 17 14 17L5 17C3.34 17 2 15.65 2 14L2 5C2 3.34 3.34 2 5 2L14 2C15.65 2 17 3.34 17 5L17 14Z" fill="url(#paint_linear_7_833_0)" fill-opacity="1.000000" fill-rule="evenodd"/>
		<path id="Vector" d="M19 22C20.65 22 22 20.65 22 19L22 10C22 8.34 20.65 7 19 7L18.5 7L18.5 14.5C18.5 16.7 16.7 18.5 14.5 18.5L7 18.5L7 19C7 20.65 8.34 22 10 22L19 22Z" fill="url(#paint_linear_7_834_0)" fill-opacity="1.000000" fill-rule="nonzero"/>
	</g>
</svg>
