<svg width="16.000000" height="16.000000" viewBox="0 0 16 16" fill="none" xmlns="http://www.w3.org/2000/svg" xmlns:xlink="http://www.w3.org/1999/xlink">
	<desc>
			Created with Pixso.
	</desc>
	<defs>
		<clipPath id="clip172_6880">
			<rect id="Bold Duotone / Security / Password Minimalistic Input" rx="0.000000" width="15.000000" height="15.000000" transform="translate(0.500000 0.500000)" fill="white" fill-opacity="0"/>
		</clipPath>
		<linearGradient x1="7.999675" y1="2.666504" x2="7.999675" y2="13.333178" id="paint_linear_3_629_0" gradientUnits="userSpaceOnUse">
			<stop stop-color="#FFC71B"/>
			<stop offset="1.000000" stop-color="#FFE92B"/>
		</linearGradient>
		<linearGradient x1="6.666992" y1="7.333496" x2="6.666992" y2="8.666830" id="paint_linear_3_630_0" gradientUnits="userSpaceOnUse">
			<stop stop-color="#FFC71B"/>
			<stop offset="1.000000" stop-color="#FFE92B"/>
		</linearGradient>
		<linearGradient x1="10.000000" y1="0.833496" x2="10.000000" y2="15.166830" id="paint_linear_3_631_0" gradientUnits="userSpaceOnUse">
			<stop stop-color="#FFC71B"/>
			<stop offset="1.000000" stop-color="#FFE92B"/>
		</linearGradient>
	</defs>
	<g clip-path="url(#clip172_6880)">
		<g opacity="0.500000">
			<path id="Vector" d="M2.11 12.55C2.89 13.33 4.15 13.33 6.66 13.33L10.49 13.32C12.25 13.31 13.23 13.2 13.88 12.55C14.66 11.77 14.66 10.51 14.66 7.99C14.66 5.48 14.66 4.22 13.88 3.44C13.23 2.79 12.24 2.68 10.49 2.66L6.66 2.66C4.15 2.66 2.89 2.66 2.11 3.44C1.33 4.22 1.33 5.48 1.33 7.99C1.33 10.51 1.33 11.77 2.11 12.55Z" fill="url(#paint_linear_3_629_0)" fill-opacity="1.000000" fill-rule="nonzero"/>
		</g>
		<path id="Vector" d="M6 8C6 8.36 5.7 8.66 5.33 8.66C4.96 8.66 4.66 8.36 4.66 8C4.66 7.63 4.96 7.33 5.33 7.33C5.7 7.33 6 7.63 6 8ZM8 7.33C8.36 7.33 8.66 7.63 8.66 8C8.66 8.36 8.36 8.66 8 8.66C7.63 8.66 7.33 8.36 7.33 8C7.33 7.63 7.63 7.33 8 7.33Z" fill="url(#paint_linear_3_630_0)" fill-opacity="1.000000" fill-rule="evenodd"/>
		<path id="Vector" d="M10 0.83C10.27 0.83 10.5 1.05 10.5 1.33L10.5 2.67L10.5 13.32L10.5 14.66C10.5 14.94 10.27 15.16 10 15.16C9.72 15.16 9.5 14.94 9.5 14.66L9.5 1.33C9.5 1.05 9.72 0.83 10 0.83Z" fill="url(#paint_linear_3_631_0)" fill-opacity="1.000000" fill-rule="evenodd"/>
	</g>
</svg>
