<svg width="16.000000" height="13.333344" viewBox="0 0 16 13.3333" fill="none" xmlns="http://www.w3.org/2000/svg" xmlns:xlink="http://www.w3.org/1999/xlink">
	<desc>
			Created with Pixso.
	</desc>
	<defs/>
	<path id="Vector" d="M8 8.66C3.51 8.66 0 6.76 0 4.33C0 1.9 3.51 0 8 0C12.48 0 16 1.9 16 4.33C16 6.76 12.48 8.66 8 8.66ZM10.66 13.09C11.38 12.95 12.05 12.77 12.66 12.53L12.66 9.28C12.04 9.49 11.37 9.65 10.66 9.77L10.66 13.09ZM3.33 12.53C3.94 12.76 4.61 12.95 5.33 13.09L5.33 9.77C4.62 9.65 3.95 9.49 3.33 9.28L3.33 12.53ZM9.33 9.94C8.89 9.98 8.45 10 8 10C7.54 10 7.1 9.98 6.66 9.94L6.66 13.27C7.1 13.3 7.54 13.33 8 13.33C8.45 13.33 8.89 13.3 9.33 13.27L9.33 9.94ZM14 8.72L14 11.88C15.24 11.12 16 10.12 16 9L16 7.32C15.47 7.86 14.78 8.32 14 8.72L14 8.72ZM2 8.72C1.21 8.32 0.52 7.86 0 7.32L0 8.99C0 10.12 0.75 11.12 2 11.88L2 8.72Z" fill="#85DBFF" fill-opacity="1.000000" fill-rule="nonzero"/>
</svg>
