<svg width="15.500000" height="15.406250" viewBox="0 0 15.5 15.4062" fill="none" xmlns="http://www.w3.org/2000/svg" xmlns:xlink="http://www.w3.org/1999/xlink">
	<desc>
			Created with Pixso.
	</desc>
	<defs/>
	<path id="Vector" d="M15.5 7.75C15.5 3.46 12.03 0 7.75 0C3.46 0 0 3.46 0 7.75C0 11.61 2.83 14.82 6.53 15.4L6.53 9.99L4.57 9.99L4.57 7.75L6.53 7.75L6.53 6.04C6.53 4.1 7.69 3.02 9.46 3.02C10.31 3.02 11.2 3.17 11.2 3.17L11.2 5.08L10.22 5.08C9.26 5.08 8.96 5.68 8.96 6.29L8.96 7.75L11.11 7.75L10.76 9.99L8.96 9.99L8.96 15.4C12.66 14.82 15.5 11.61 15.5 7.75Z" fill="#747783" fill-opacity="1.000000" fill-rule="nonzero"/>
</svg>
