<svg width="16.000000" height="15.500000" viewBox="0 0 16 15.5" fill="none" xmlns="http://www.w3.org/2000/svg" xmlns:xlink="http://www.w3.org/1999/xlink">
	<desc>
			Created with Pixso.
	</desc>
	<defs/>
	<path id="Vector" d="M16 7.93C16 12.35 12.82 15.5 8.13 15.5C3.63 15.5 0 12.03 0 7.75C0 3.46 3.63 0 8.13 0C10.32 0 12.16 0.76 13.58 2.02L11.37 4.05C8.47 1.39 3.09 3.39 3.09 7.75C3.09 10.45 5.35 12.64 8.13 12.64C11.35 12.64 12.55 10.44 12.74 9.3L8.13 9.3L8.13 6.63L15.87 6.63C15.94 7.03 16 7.41 16 7.93Z" fill="#747783" fill-opacity="1.000000" fill-rule="nonzero"/>
</svg>
