<svg width="30.000000" height="30.000000" viewBox="0 0 30 30" fill="none" xmlns="http://www.w3.org/2000/svg" xmlns:xlink="http://www.w3.org/1999/xlink">
	<desc>
			Created with Pixso.
	</desc>
	<defs/>
	<path id="Vector" d="M5.62 20.31C5.02 20.31 4.47 19.95 4.28 19.38C3.93 18.29 3.75 17.13 3.75 15.93C3.75 9.72 8.78 4.68 15 4.68C21.21 4.68 26.25 9.72 26.25 15.93C26.25 17.13 26.06 18.29 25.71 19.38C25.52 19.95 24.97 20.31 24.37 20.31" stroke="#9ED927" stroke-opacity="1.000000" stroke-width="1.500000" stroke-linejoin="round"/>
	<path id="Vector" d="M9.06 14.06C7.16 14.06 5.62 15.6 5.62 17.5L5.62 22.5C5.62 24.39 7.16 25.93 9.06 25.93C10.96 25.93 12.5 24.39 12.5 22.5L12.5 17.5C12.5 15.6 10.96 14.06 9.06 14.06ZM20.93 14.06C19.03 14.06 17.5 15.6 17.5 17.5L17.5 22.5C17.5 24.39 19.03 25.93 20.93 25.93C22.83 25.93 24.37 24.39 24.37 22.5L24.37 17.5C24.37 15.6 22.83 14.06 20.93 14.06Z" fill="#9ED927" fill-opacity="1.000000" fill-rule="evenodd"/>
</svg>
