<svg width="14.625000" height="13.915161" viewBox="0 0 14.625 13.9152" fill="none" xmlns="http://www.w3.org/2000/svg" xmlns:xlink="http://www.w3.org/1999/xlink">
	<desc>
			Created with Pixso.
	</desc>
	<defs/>
	<path id="Vector" d="M12.69 3C13.15 3.47 13.39 3.7 13.58 3.95C14.12 4.65 14.47 5.49 14.58 6.37C14.62 6.69 14.62 7.01 14.62 7.67L14.62 11.47C14.62 12.82 13.53 13.91 12.18 13.91C10.84 13.91 9.75 12.82 9.75 11.47L9.75 10.64C9.75 9.29 8.65 8.2 7.31 8.2C5.96 8.2 4.87 9.29 4.87 10.64L4.87 11.47C4.87 12.82 3.78 13.91 2.43 13.91C1.09 13.91 0 12.82 0 11.47L0 7.67C0 7.01 0 6.69 0.03 6.37C0.15 5.49 0.49 4.65 1.04 3.95C1.23 3.7 1.46 3.47 1.92 3C3.14 1.78 3.75 1.17 4.38 0.79C6.19 -0.27 8.43 -0.27 10.23 0.79C10.86 1.17 11.47 1.78 12.69 3Z" fill="#9ED927" fill-opacity="1.000000" fill-rule="evenodd"/>
</svg>
