<svg width="28.000000" height="28.000000" viewBox="0 0 28 28" fill="none" xmlns="http://www.w3.org/2000/svg" xmlns:xlink="http://www.w3.org/1999/xlink">
	<desc>
			Created with Pixso.
	</desc>
	<defs>
		<clipPath id="clip7_13344">
			<rect id="illustration" rx="0.000000" width="27.000000" height="27.000000" transform="translate(0.500000 0.500000)" fill="white" fill-opacity="0"/>
		</clipPath>
	</defs>
	<rect id="illustration" rx="0.000000" width="27.000000" height="27.000000" transform="translate(0.500000 0.500000)" fill="#FFFFFF" fill-opacity="0"/>
	<g clip-path="url(#clip7_13344)">
		<path id="Vector" d="M28 14.03C28 17.18 26.96 20.08 25.21 22.42C22.65 25.83 5.34 25.83 2.78 22.42C1.03 20.08 0 17.18 0 14.03C0 6.3 6.26 0.03 14 0.03C21.73 0.03 28 6.3 28 14.03Z" fill="#484E55" fill-opacity="1.000000" fill-rule="nonzero"/>
		<path id="Vector" d="M26.03 14.58L14 13.21L1.96 14.58L2.78 22.42C3.71 23.65 4.84 24.73 6.12 25.61L14 26.59L21.87 25.61C23.15 24.73 24.28 23.65 25.21 22.42L26.03 14.58Z" fill="#FFE473" fill-opacity="1.000000" fill-rule="nonzero"/>
		<path id="Vector" d="M5.83 25.4L5.81 25.22L4.7 14.58L4.67 14.27L1.96 14.58L2.78 22.42C3.64 23.56 4.67 24.57 5.83 25.4Z" fill="#FFCD61" fill-opacity="1.000000" fill-rule="nonzero"/>
		<path id="Vector" d="M26.03 11.84L14 13.21L1.96 11.84L1.96 4.21C1.96 2.7 3.19 1.48 4.7 1.48L6.75 1.48L9.48 3.78L12.63 1.48L15.36 1.48L18.7 3.01L21.24 1.48L23.29 1.48C24.8 1.48 26.03 2.7 26.03 4.21L26.03 11.84Z" fill="#FFE473" fill-opacity="1.000000" fill-rule="nonzero"/>
		<path id="Vector" d="M4.7 3.53C4.7 2.4 5.62 1.48 6.75 1.48L4.7 1.48C3.19 1.48 1.96 2.7 1.96 4.21L1.96 11.84L4.7 12.15L4.7 3.53Z" fill="#FFCD61" fill-opacity="1.000000" fill-rule="nonzero"/>
		<path id="Vector" d="M12.63 1.48L6.75 1.48C5.62 1.48 4.7 2.4 4.7 3.53L4.7 8.56C4.7 8.86 4.94 9.11 5.25 9.11L12.08 9.11C12.38 9.11 12.63 8.86 12.63 8.56L12.63 1.48Z" fill="#BA623E" fill-opacity="1.000000" fill-rule="nonzero"/>
		<path id="Vector" d="M21.24 1.48L15.36 1.48L15.36 8.56C15.36 8.86 15.61 9.11 15.91 9.11L22.75 9.11C23.05 9.11 23.29 8.86 23.29 8.56L23.29 3.53C23.29 2.4 22.37 1.48 21.24 1.48Z" fill="#BA623E" fill-opacity="1.000000" fill-rule="nonzero"/>
		<path id="Vector" d="M26.98 14.03L26.98 12.39C26.98 12.09 26.74 11.84 26.44 11.84L1.55 11.84C1.25 11.84 1.01 12.09 1.01 12.39L1.01 14.03C1.01 14.33 1.25 14.58 1.55 14.58L26.44 14.58C26.74 14.58 26.98 14.33 26.98 14.03Z" fill="#FFCD61" fill-opacity="1.000000" fill-rule="nonzero"/>
		<path id="Vector" d="M22.4 25.22L5.59 25.22C7.57 26.72 9.97 27.7 12.57 27.96L15.42 27.96C18.02 27.7 20.42 26.72 22.4 25.22Z" fill="#FFCD61" fill-opacity="1.000000" fill-rule="nonzero"/>
		<path id="Vector" d="M22.52 22L23.29 14.58L4.7 14.58L5.47 22C5.5 22.28 5.74 22.49 6.02 22.49L21.97 22.49C22.25 22.49 22.49 22.28 22.52 22Z" fill="#BA623E" fill-opacity="1.000000" fill-rule="nonzero"/>
		<path id="Vector" d="M3.74 14.03L3.74 12.39C3.74 12.09 3.99 11.84 4.29 11.84L1.55 11.84C1.25 11.84 1.01 12.09 1.01 12.39L1.01 14.03C1.01 14.33 1.25 14.58 1.55 14.58L4.29 14.58C3.99 14.58 3.74 14.33 3.74 14.03Z" fill="#F4BE53" fill-opacity="1.000000" fill-rule="nonzero"/>
		<path id="Vector" d="M15.64 15.4L12.35 15.4C12.05 15.4 11.81 15.15 11.81 14.85L11.81 11.57C11.81 11.27 12.05 11.02 12.35 11.02L15.64 11.02C15.94 11.02 16.18 11.27 16.18 11.57L16.18 14.85C16.18 15.15 15.94 15.4 15.64 15.4Z" fill="#FFE473" fill-opacity="1.000000" fill-rule="nonzero"/>
		<path id="Vector" d="M14 14.85L14 11.57C14 11.27 14.24 11.02 14.54 11.02L12.35 11.02C12.05 11.02 11.81 11.27 11.81 11.57L11.81 14.85C11.81 15.15 12.05 15.4 12.35 15.4L14.54 15.4C14.24 15.4 14 15.15 14 14.85Z" fill="#FFCD61" fill-opacity="1.000000" fill-rule="nonzero"/>
		<path id="Vector" d="M14.82 12.66C14.82 12.2 14.43 11.82 13.96 11.84C13.54 11.86 13.2 12.2 13.18 12.62C13.16 12.94 13.33 13.22 13.58 13.37L13.58 14.17C13.58 14.39 13.77 14.58 14 14.58C14.22 14.58 14.41 14.39 14.41 14.17L14.41 13.37C14.65 13.23 14.82 12.97 14.82 12.66Z" fill="#F4BE53" fill-opacity="1.000000" fill-rule="nonzero"/>
		<path id="Vector" d="M12.63 5.7L12.63 4.88L7.98 4.88C7.68 4.88 7.43 4.64 7.43 4.34L7.43 3.53C7.43 2.4 8.35 1.48 9.48 1.48L6.75 1.48C5.62 1.48 4.7 2.4 4.7 3.53L4.7 8.56C4.7 8.86 4.94 9.11 5.25 9.11L7.98 9.11C7.68 9.11 7.43 8.86 7.43 8.56L7.43 6.25C7.43 5.95 7.68 5.7 7.98 5.7L12.63 5.7Z" fill="#964F32" fill-opacity="1.000000" fill-rule="nonzero"/>
		<path id="Vector" d="M22.92 18.12L8.3 18.12C8.02 18.12 7.78 17.91 7.75 17.63L7.43 14.58L4.7 14.58L5.47 22C5.5 22.28 5.74 22.49 6.02 22.49L8.75 22.49C8.47 22.49 8.24 22.28 8.21 22L7.95 19.55C7.92 19.23 8.17 18.94 8.5 18.94L22.84 18.94L22.92 18.12Z" fill="#964F32" fill-opacity="1.000000" fill-rule="nonzero"/>
		<path id="Vector" d="M23.29 5.7L23.29 4.88L18.64 4.88C18.34 4.88 18.1 4.64 18.1 4.34L18.1 1.48L15.36 1.48L15.36 8.56C15.36 8.86 15.61 9.11 15.91 9.11L18.64 9.11C18.34 9.11 18.1 8.86 18.1 8.56L18.1 6.25C18.1 5.95 18.34 5.7 18.64 5.7L23.29 5.7Z" fill="#964F32" fill-opacity="1.000000" fill-rule="nonzero"/>
	</g>
</svg>
