<svg width="13.333008" height="13.333252" viewBox="0 0 13.333 13.3333" fill="none" xmlns="http://www.w3.org/2000/svg" xmlns:xlink="http://www.w3.org/1999/xlink">
	<desc>
			Created with Pixso.
	</desc>
	<defs/>
	<path id="Vector" d="M6.66 0C8.47 0 8.7 0 9.41 0.04C10.12 0.07 10.6 0.18 11.03 0.35C11.47 0.51 11.84 0.74 12.21 1.11C12.55 1.45 12.81 1.85 12.98 2.3C13.14 2.72 13.25 3.2 13.29 3.91C13.32 4.62 13.33 4.85 13.33 6.66C13.33 8.47 13.32 8.7 13.29 9.41C13.25 10.12 13.14 10.6 12.98 11.03C12.81 11.47 12.55 11.88 12.21 12.21C11.88 12.55 11.47 12.81 11.03 12.98C10.6 13.14 10.12 13.26 9.41 13.29C8.7 13.32 8.47 13.33 6.66 13.33C4.85 13.33 4.62 13.32 3.91 13.29C3.2 13.26 2.72 13.14 2.29 12.98C1.85 12.81 1.45 12.55 1.11 12.21C0.77 11.88 0.51 11.47 0.34 11.03C0.18 10.6 0.07 10.12 0.04 9.41C0 8.7 0 8.47 0 6.66C0 4.85 0 4.62 0.04 3.91C0.07 3.2 0.18 2.72 0.34 2.3C0.51 1.85 0.77 1.45 1.11 1.11C1.45 0.77 1.85 0.51 2.29 0.35C2.72 0.18 3.2 0.07 3.91 0.04C4.62 0 4.85 0 6.66 0ZM6.66 3.33C5.78 3.33 4.93 3.68 4.3 4.3C3.68 4.93 3.33 5.78 3.33 6.66C3.33 7.55 3.68 8.39 4.3 9.02C4.93 9.64 5.78 10 6.66 10C7.55 10 8.39 9.64 9.02 9.02C9.64 8.39 10 7.55 10 6.66C10 5.78 9.64 4.93 9.02 4.3C8.39 3.68 7.55 3.33 6.66 3.33ZM11 3.16C11 2.94 10.91 2.73 10.75 2.57C10.59 2.42 10.38 2.33 10.16 2.33C9.94 2.33 9.73 2.42 9.57 2.57C9.42 2.73 9.33 2.94 9.33 3.16C9.33 3.38 9.42 3.59 9.57 3.75C9.73 3.91 9.94 4 10.16 4C10.38 4 10.59 3.91 10.75 3.75C10.91 3.59 11 3.38 11 3.16ZM6.66 4.66C7.19 4.66 7.7 4.87 8.08 5.25C8.45 5.62 8.66 6.13 8.66 6.66C8.66 7.19 8.45 7.7 8.08 8.08C7.7 8.45 7.19 8.66 6.66 8.66C6.13 8.66 5.62 8.45 5.25 8.08C4.87 7.7 4.66 7.19 4.66 6.66C4.66 6.13 4.87 5.62 5.25 5.25C5.62 4.87 6.13 4.66 6.66 4.66Z" fill="#C1C3D1" fill-opacity="1.000000" fill-rule="nonzero"/>
</svg>
