<svg width="29.000000" height="25.000000" viewBox="0 0 29 25" fill="none" xmlns="http://www.w3.org/2000/svg" xmlns:xlink="http://www.w3.org/1999/xlink">
	<desc>
			Created with Pixso.
	</desc>
	<defs>
		<clipPath id="clip22_109">
			<rect id="Frame" rx="0.000000" width="28.000000" height="24.000000" transform="translate(0.500000 0.500000)" fill="white" fill-opacity="0"/>
		</clipPath>
		<linearGradient x1="1.560059" y1="4.830206" x2="19.564600" y2="4.830206" id="paint_linear_22_118_0" gradientUnits="userSpaceOnUse">
			<stop offset="0.050000" stop-color="#FFFF61"/>
			<stop offset="0.490000" stop-color="#FFE800"/>
			<stop offset="1.000000" stop-color="#E69600"/>
		</linearGradient>
		<linearGradient x1="13.688095" y1="-0.362777" x2="8.291782" y2="6.344498" id="paint_linear_22_120_0" gradientUnits="userSpaceOnUse">
			<stop stop-color="#FFFFFF"/>
			<stop offset="1.000000" stop-color="#FFFFFF"/>
		</linearGradient>
		<linearGradient x1="13.904203" y1="0.753012" x2="9.783305" y2="5.875027" id="paint_linear_22_122_0" gradientUnits="userSpaceOnUse">
			<stop stop-color="#FFFFFF"/>
			<stop offset="1.000000" stop-color="#FFFFFF"/>
		</linearGradient>
		<linearGradient x1="0.554509" y1="14.405544" x2="21.931873" y2="14.405544" id="paint_linear_22_123_0" gradientUnits="userSpaceOnUse">
			<stop stop-color="#FFD600"/>
			<stop offset="1.000000" stop-color="#D43000"/>
		</linearGradient>
		<linearGradient x1="0.772812" y1="14.163532" x2="20.281776" y2="14.163532" id="paint_linear_22_125_0" gradientUnits="userSpaceOnUse">
			<stop stop-color="#FFFFFF"/>
			<stop offset="1.000000" stop-color="#FFFFFF"/>
		</linearGradient>
		<linearGradient x1="6.093776" y1="7.864065" x2="12.513569" y2="17.050732" id="paint_linear_22_127_0" gradientUnits="userSpaceOnUse">
			<stop stop-color="#FFFFFF"/>
			<stop offset="1.000000" stop-color="#FFFFFF"/>
		</linearGradient>
		<linearGradient x1="6.489131" y1="9.394582" x2="10.087265" y2="14.541842" id="paint_linear_22_129_0" gradientUnits="userSpaceOnUse">
			<stop stop-color="#FFFFFF"/>
			<stop offset="1.000000" stop-color="#FFFFFF"/>
		</linearGradient>
		<linearGradient x1="1.140343" y1="21.246929" x2="1.861356" y2="22.283197" id="paint_linear_22_131_0" gradientUnits="userSpaceOnUse">
			<stop stop-color="#FFFFFF"/>
			<stop offset="1.000000" stop-color="#FFFFFF"/>
		</linearGradient>
		<linearGradient x1="17.824312" y1="13.733981" x2="28.372602" y2="13.733981" id="paint_linear_22_133_0" gradientUnits="userSpaceOnUse">
			<stop offset="0.050000" stop-color="#FFFF61"/>
			<stop offset="0.490000" stop-color="#FFE800"/>
			<stop offset="1.000000" stop-color="#E69600"/>
		</linearGradient>
		<linearGradient x1="17.824263" y1="13.723757" x2="26.521488" y2="13.723757" id="paint_linear_22_135_0" gradientUnits="userSpaceOnUse">
			<stop stop-color="#FFFFFF"/>
			<stop offset="1.000000" stop-color="#FFFFFF"/>
		</linearGradient>
		<linearGradient x1="18.576294" y1="12.861353" x2="25.217937" y2="12.861353" id="paint_linear_22_137_0" gradientUnits="userSpaceOnUse">
			<stop stop-color="#FFFFFF"/>
			<stop offset="1.000000" stop-color="#FFFFFF"/>
		</linearGradient>
	</defs>
	<rect id="Frame" rx="0.000000" width="28.000000" height="24.000000" transform="translate(0.500000 0.500000)" fill="#FFFFFF" fill-opacity="0"/>
	<g clip-path="url(#clip22_109)">
		<path id="Vector" d="M27.86 10.88C25.82 6.06 21.28 5.18 19.67 5.03C19.08 3.76 17.53 1.19 14.38 0.55C14.26 0.52 14.12 0.5 13.99 0.48L13.82 0.45C13.74 0.43 13.66 0.42 13.58 0.41L13.38 0.39C13.3 0.38 13.22 0.37 13.14 0.36L12.9 0.34C12.83 0.33 12.76 0.33 12.69 0.32L12.48 0.31C12.39 0.3 12.31 0.29 12.22 0.28L11.97 0.27C11.89 0.27 11.81 0.26 11.73 0.26L10.1 0.22L9.69 0.22L7.08 0.3L2.61 0.63C2.37 0.65 2.17 0.67 2.01 0.69L1.1 0.79L1.26 1.21C1.31 1.33 2.39 4.14 5.04 6.47C-0.62 10.66 0.44 19.4 0.49 19.78C0.65 20.96 0.48 21.44 0.35 21.78C0.23 22.1 0.12 22.41 0.42 22.92C1.09 24.08 3.83 24.11 4.14 24.11C4.28 24.11 4.41 24.11 4.53 24.1L4.55 24.1C4.74 24.1 5.11 24.18 5.53 24.28C6.42 24.47 7.75 24.76 9.34 24.76C12.24 24.76 14.97 23.78 17.47 21.84C19.21 20.48 20.51 18.84 21.31 16.95L21.55 17.22L23.32 19.23C23.41 19.33 23.5 19.43 23.59 19.52L24.25 20.23C25.36 21.41 26.2 22.25 26.3 22.34L26.64 22.68L26.87 22.3C27.01 22.07 30.3 16.65 27.85 10.88L27.86 10.88ZM26.49 21.55C26.13 21.18 25.51 20.55 24.76 19.76L24.1 19.06C24.02 18.96 23.93 18.87 23.84 18.77L22.85 17.66L21.08 15.58L20.87 16.15C20.13 18.16 18.83 19.89 17.02 21.3C14.66 23.14 12.08 24.07 9.34 24.07C7.83 24.07 6.59 23.8 5.68 23.6C5.18 23.49 4.81 23.41 4.55 23.41C4.53 23.41 4.5 23.41 4.49 23.41C4.38 23.42 4.26 23.42 4.14 23.42C2.87 23.42 1.34 23.12 1.03 22.58C0.89 22.34 0.91 22.29 1.01 22.01C1.15 21.62 1.36 21.03 1.19 19.69C1.14 19.32 0.08 10.62 5.8 6.78L6.19 6.52L5.83 6.23C3.69 4.47 2.52 2.28 2.1 1.38C2.26 1.36 2.45 1.34 2.68 1.32L2.64 0.98L2.72 1.32L7.41 0.98L10 0.92L11.7 0.96C11.78 0.96 11.86 0.96 11.93 0.97L12.18 0.98C12.26 0.99 12.35 0.99 12.45 1L12.63 1.01C12.7 1.02 12.77 1.03 12.83 1.03L13.07 1.06C13.15 1.06 13.22 1.07 13.3 1.08L13.49 1.11C13.57 1.12 13.64 1.13 13.72 1.14L13.88 1.16C14.01 1.18 14.13 1.21 14.25 1.23C17.24 1.85 18.65 4.42 19.12 5.5L19.23 5.69L19.43 5.71L19.47 5.71C20.81 5.82 25.26 6.52 27.22 11.15C29.16 15.73 27.19 20.22 26.5 21.55L26.49 21.55Z" fill="#D42900" fill-opacity="1.000000" fill-rule="nonzero"/>
		<path id="Vector" d="M9.34 25C7.73 25 6.38 24.7 5.48 24.5C5.09 24.42 4.71 24.33 4.55 24.33L4.53 24.33C4.41 24.34 4.28 24.34 4.14 24.34C3.61 24.34 0.93 24.28 0.21 23.03C-0.14 22.43 0.01 22.04 0.13 21.7C0.24 21.38 0.4 20.94 0.25 19.81C0.21 19.44 -0.85 10.79 4.67 6.45C2.12 4.12 1.08 1.4 1.04 1.28L0.77 0.59L1.97 0.46C2.14 0.44 2.34 0.42 2.58 0.4L7.06 0.07L10.1 0L11.74 0.03C11.82 0.03 11.9 0.04 11.98 0.04L12.23 0.06C12.32 0.06 12.41 0.07 12.5 0.08L12.7 0.09C12.78 0.1 12.85 0.1 12.92 0.11L13.16 0.13C13.24 0.14 13.31 0.15 13.38 0.16L13.6 0.19C13.69 0.2 13.77 0.21 13.85 0.22L14.03 0.25C14.17 0.27 14.3 0.3 14.43 0.33C17.53 0.96 19.13 3.36 19.83 4.82C21.74 5.03 26.06 6.04 28.08 10.79C30.57 16.67 27.22 22.19 27.07 22.42L26.69 23.05L26.14 22.51C26.1 22.47 25.24 21.62 24.08 20.39L23.41 19.68C23.32 19.59 23.23 19.49 23.15 19.39L21.38 17.39C20.55 19.17 19.28 20.73 17.61 22.03C15.08 24.01 12.3 25.01 9.35 25.01L9.34 25ZM4.55 23.87C4.77 23.87 5.13 23.95 5.58 24.05C6.46 24.24 7.78 24.53 9.34 24.53C12.19 24.53 14.87 23.57 17.32 21.66C19.03 20.33 20.3 18.71 21.1 16.86L21.24 16.51L21.72 17.08L23.49 19.08C23.58 19.18 23.67 19.27 23.76 19.37L24.42 20.08C25.57 21.3 26.43 22.15 26.46 22.18L26.59 22.31L26.67 22.18C26.8 21.96 30.04 16.63 27.64 10.97C25.67 6.33 21.39 5.43 19.65 5.26L19.51 5.25L19.46 5.13C18.82 3.77 17.32 1.39 14.33 0.78C14.21 0.75 14.08 0.73 13.95 0.7L13.78 0.68C13.7 0.66 13.62 0.65 13.54 0.64L13.32 0.62C13.25 0.61 13.18 0.6 13.12 0.59L12.87 0.57C12.8 0.56 12.74 0.55 12.67 0.55L12.47 0.53C12.38 0.53 12.29 0.52 12.2 0.52L11.95 0.5C11.88 0.5 11.8 0.5 11.72 0.49L10.09 0.46L9.69 0.46L7.09 0.54L2.63 0.86C2.39 0.89 2.19 0.91 2.03 0.92L1.43 0.99L1.48 1.13C1.52 1.24 2.58 4 5.2 6.3L5.41 6.49L5.18 6.66C-0.37 10.77 0.68 19.39 0.73 19.75C0.89 20.99 0.71 21.49 0.57 21.86C0.46 22.17 0.38 22.39 0.63 22.81C1.11 23.65 3.07 23.88 4.14 23.88C4.28 23.88 4.4 23.88 4.52 23.87L4.55 23.87L4.55 23.87ZM9.34 24.3C7.8 24.3 6.55 24.02 5.64 23.82C5.15 23.71 4.79 23.64 4.55 23.64L4.5 23.64C4.39 23.65 4.27 23.65 4.14 23.65C3.19 23.65 1.27 23.45 0.83 22.69C0.65 22.38 0.68 22.24 0.8 21.93C0.93 21.57 1.13 21.01 0.96 19.72C0.91 19.35 -0.16 10.51 5.68 6.59L5.8 6.51L5.68 6.41C3.49 4.61 2.3 2.36 1.88 1.47L1.75 1.18L2.07 1.15C2.18 1.14 2.29 1.13 2.42 1.11L2.41 1L2.88 0.93L2.91 1.07L7.39 0.75L9.99 0.68L11.71 0.72C11.78 0.72 11.85 0.72 11.91 0.73L12.19 0.74C12.28 0.75 12.36 0.76 12.46 0.77L12.65 0.78C12.72 0.79 12.79 0.79 12.85 0.8L13.09 0.82C13.16 0.83 13.23 0.83 13.3 0.84L13.51 0.87C13.59 0.88 13.67 0.89 13.74 0.91L13.91 0.93C14.04 0.95 14.17 0.97 14.29 1C17.38 1.63 18.83 4.27 19.32 5.38L19.37 5.46L19.48 5.47C20.83 5.58 25.41 6.29 27.43 11.05C29.41 15.74 27.37 20.35 26.7 21.64L26.55 21.93L26.32 21.7C25.93 21.31 25.32 20.68 24.59 19.91L23.67 18.91L22.68 17.81L21.17 16.03L21.1 16.22C20.34 18.27 19.02 20.04 17.17 21.47C14.77 23.35 12.14 24.3 9.35 24.3L9.34 24.3ZM4.55 23.17C4.84 23.17 5.22 23.26 5.74 23.37C6.63 23.57 7.86 23.84 9.34 23.84C12.03 23.84 14.56 22.92 16.88 21.11C18.66 19.73 19.93 18.03 20.65 16.07L21 15.11L23.03 17.51L24.28 18.89L24.94 19.6C25.53 20.22 26.04 20.75 26.43 21.14C27.18 19.59 28.77 15.43 26.99 11.23C25.08 6.71 20.73 6.03 19.44 5.93L19.08 5.9L18.89 5.57C18.44 4.53 17.07 2.04 14.19 1.44C14.08 1.42 13.96 1.4 13.83 1.38L13.67 1.36C13.6 1.34 13.52 1.33 13.45 1.32L13.23 1.29C13.17 1.29 13.1 1.28 13.04 1.27L12.8 1.25C12.74 1.24 12.68 1.23 12.61 1.23L12.42 1.22C12.33 1.21 12.24 1.2 12.16 1.19L11.88 1.18C11.82 1.18 11.75 1.17 11.69 1.17L9.99 1.14L7.41 1.2L2.7 1.54C2.61 1.54 2.53 1.55 2.45 1.56C2.95 2.55 4.08 4.47 5.98 6.04L6.58 6.53L5.94 6.96C0.33 10.74 1.38 19.3 1.43 19.67C1.61 21.06 1.39 21.68 1.24 22.09C1.18 22.25 1.18 22.37 1.24 22.47C1.46 22.86 2.8 23.19 4.14 23.19C4.26 23.19 4.38 23.19 4.48 23.18C4.5 23.18 4.53 23.18 4.55 23.18L4.55 23.17Z" fill="#D42900" fill-opacity="1.000000" fill-rule="nonzero"/>
		<path id="Vector" d="M19.56 5.75C19.56 5.75 18.23 1.7 14.28 0.89C10.33 0.08 1.56 1.08 1.56 1.08C1.56 1.08 3.8 7.05 9.82 8.71C15.83 10.38 19.56 5.75 19.56 5.75L19.56 5.75Z" fill="url(#paint_linear_22_118_0)" fill-opacity="1.000000" fill-rule="nonzero"/>
		<g style="mix-blend-mode:overlay">
			<path id="Vector" d="M9.96 5.51C14.36 7 17.83 6.41 19.33 6.01C19.48 5.85 19.56 5.75 19.56 5.75C19.56 5.75 18.23 1.7 14.28 0.89C10.47 0.11 2.16 1.01 1.59 1.08C3.04 2.19 5.94 4.15 9.97 5.51L9.96 5.51Z" fill="url(#paint_linear_22_120_0)" fill-opacity="1.000000" fill-rule="nonzero"/>
		</g>
		<g style="mix-blend-mode:overlay">
			<path id="Vector" d="M18.9 5.32C18.9 5.32 16.63 1.77 13.56 1.39C10.49 1 4.39 1.62 4.39 1.62C4.39 1.62 8.96 5.23 12 5.6C15.04 5.96 18.9 5.32 18.9 5.32L18.9 5.32Z" fill="url(#paint_linear_22_122_0)" fill-opacity="1.000000" fill-rule="nonzero"/>
		</g>
		<path id="Vector" d="M18.35 4.97C18.35 4.97 11.08 2.96 5.74 6.39C0.39 9.81 0.51 17.43 0.81 19.74C1.11 22.04 0.22 21.92 0.69 22.75C1.17 23.58 3.27 23.82 4.47 23.76C5.68 23.7 11.14 26.3 17.21 21.57C23.28 16.84 21.96 10.03 21.42 8.15C20.88 6.27 19.2 5.44 18.35 4.97L18.35 4.97Z" fill="url(#paint_linear_22_123_0)" fill-opacity="1.000000" fill-rule="nonzero"/>
		<g opacity="0.560000" style="mix-blend-mode:overlay">
			<path id="Vector" d="M20.28 8.51C20.28 8.51 20.16 16.08 16.13 19.38C12.11 22.69 6.94 21.99 5.01 21.69C3.09 21.39 2.64 23.42 1.81 23.2C-0.23 22.67 1.38 21.29 1.21 20.52C1.03 19.75 -0.09 13 4.23 8.51C8.56 4.02 19.2 3.9 20.28 8.51L20.28 8.51Z" fill="url(#paint_linear_22_125_0)" fill-opacity="1.000000" fill-rule="nonzero"/>
		</g>
		<g style="mix-blend-mode:overlay">
			<path id="Vector" d="M18.42 7.86C18.42 7.86 18.24 12.77 12.41 16.67C6.58 20.57 4.84 19.92 3.34 20.69C1.84 21.45 1.95 19.03 2.02 15.96C2.07 12.89 3.85 6.39 13.01 5.65C17.09 5.32 18.3 6.74 18.42 7.86L18.42 7.86Z" fill="url(#paint_linear_22_127_0)" fill-opacity="1.000000" fill-rule="nonzero"/>
		</g>
		<path id="Vector" d="M10.48 7.01C10.48 7.01 6.28 8.87 4.75 11.73C3.22 14.6 2.8 16.55 2.85 17.58C2.91 18.62 9.76 15.52 12.77 11.53C15.77 7.54 14.75 5.56 10.48 7.01Z" fill="url(#paint_linear_22_129_0)" fill-opacity="1.000000" fill-rule="nonzero"/>
		<g style="mix-blend-mode:overlay">
			<path id="Vector" d="M1.79 20.94C1.34 20.72 0.59 22.38 1.12 22.54C1.66 22.69 2.67 21.37 1.79 20.94Z" fill="url(#paint_linear_22_131_0)" fill-opacity="1.000000" fill-rule="nonzero"/>
		</g>
		<path id="Vector" d="M19.09 5.34C19.09 5.34 16.69 8.89 18.49 12.43C20.29 15.98 26.54 22.12 26.54 22.12C26.54 22.12 29.91 16.68 27.5 11.02C25.1 5.34 19.09 5.34 19.09 5.34L19.09 5.34Z" fill="url(#paint_linear_22_133_0)" fill-opacity="1.000000" fill-rule="nonzero"/>
		<g style="mix-blend-mode:overlay">
			<path id="Vector" d="M24.85 12.88C23.31 8.57 20.69 6.26 19.44 5.36C19.22 5.34 19.09 5.34 19.09 5.34C19.09 5.34 16.69 8.89 18.49 12.43C20.23 15.85 26.11 21.69 26.52 22.1C26.51 20.29 26.27 16.83 24.86 12.89L24.85 12.88Z" fill="url(#paint_linear_22_135_0)" fill-opacity="1.000000" fill-rule="nonzero"/>
		</g>
		<g style="mix-blend-mode:overlay">
			<path id="Vector" d="M19.15 6.12C19.15 6.12 17.73 10.07 19.33 12.68C20.93 15.28 25.21 19.6 25.21 19.6C25.21 19.6 25.25 13.84 23.66 11.27C22.06 8.7 19.15 6.12 19.15 6.12Z" fill="url(#paint_linear_22_137_0)" fill-opacity="1.000000" fill-rule="nonzero"/>
		</g>
	</g>
</svg>
