<svg width="14.000977" height="13.985840" viewBox="0 0 14.001 13.9858" fill="none" xmlns="http://www.w3.org/2000/svg" xmlns:xlink="http://www.w3.org/1999/xlink">
	<desc>
			Created with Pixso.
	</desc>
	<defs>
		<linearGradient x1="7.000371" y1="0.000000" x2="7.000371" y2="13.985889" id="paint_linear_2033_31494_0" gradientUnits="userSpaceOnUse">
			<stop stop-color="#FFC71B"/>
			<stop offset="1.000000" stop-color="#FFE92B"/>
		</linearGradient>
	</defs>
	<path id="Vector" d="M13.64 6.27C13.43 6.57 13.11 6.77 12.75 6.84C12.39 6.9 12.02 6.84 11.71 6.65C11.54 6.53 11.54 6.54 11.36 6.73C10.44 7.66 10.19 7.91 9.42 8.66L9.08 9.01C9.02 9.06 9.02 9.05 9.06 9.11C10.03 10.58 9.41 12.22 8.5 13.27C8.04 13.77 7.56 13.78 7.08 13.33C6.24 12.49 5.61 11.88 4.7 10.94C4.61 10.86 4.65 10.85 4.53 10.94C3.81 11.53 3.09 12.12 2.37 12.7C1.93 13.05 1.49 13.41 1.06 13.76C0.92 13.89 0.75 13.97 0.56 13.98C0.49 13.98 0.41 13.96 0.35 13.93C0.28 13.9 0.22 13.86 0.17 13.81C-0.18 13.47 0.08 13.11 0.19 12.96C1.09 11.72 1.97 10.5 2.89 9.27C2.96 9.17 2.94 9.2 2.86 9.11C2.03 8.29 1.46 7.71 0.71 6.96C0.19 6.44 0.22 5.91 0.78 5.42C1.83 4.5 3.64 4.02 4.91 4.95C4.92 4.95 4.92 4.96 4.93 4.96C6.02 3.86 6.49 3.4 7.44 2.45C7.21 2.14 7.11 1.75 7.15 1.36C7.2 0.98 7.39 0.62 7.68 0.37C7.97 0.12 8.35 -0.02 8.74 0C9.13 0.01 9.5 0.17 9.78 0.44C11.34 1.99 12.01 2.66 13.56 4.22C13.82 4.49 13.98 4.85 13.99 5.23C14.01 5.61 13.88 5.98 13.64 6.27Z" fill="url(#paint_linear_2033_31494_0)" fill-opacity="1.000000" fill-rule="nonzero"/>
</svg>
