<svg width="28.126953" height="26.968140" viewBox="0 0 28.127 26.9681" fill="none" xmlns="http://www.w3.org/2000/svg" xmlns:xlink="http://www.w3.org/1999/xlink">
	<desc>
			Created with Pixso.
	</desc>
	<defs/>
	<path id="Vector" d="M19.02 7.25C19.57 7.4 20.03 7.75 20.32 8.24C20.86 9.19 20.6 10.38 19.74 11.02L17.62 7.35C18.06 7.16 18.55 7.12 19.02 7.25L19.02 7.25ZM5.82 21.1L8.78 19.39L4.89 12.66L1.94 14.36C1.04 14.88 0.4 15.72 0.13 16.72C-0.14 17.73 0 18.78 0.51 19.67C1.23 20.92 2.54 21.62 3.89 21.62C4.55 21.62 5.21 21.45 5.82 21.1ZM11.99 24.96L9.51 20.66L7.19 22L9.67 26.3C10.04 26.93 10.86 27.15 11.5 26.78C11.81 26.61 12.03 26.32 12.12 25.97C12.21 25.63 12.16 25.27 11.99 24.96L11.99 24.96ZM21.21 16.5L13.61 3.33C13.45 3.06 13.19 2.91 12.88 2.91C12.87 2.91 12.87 2.91 12.86 2.91C12.54 2.91 12.28 3.08 12.12 3.36C11.86 3.86 11.6 4.4 11.33 4.97C10.18 7.37 8.89 10.06 6.14 11.9L10.06 18.68C13.03 17.22 16 17.45 18.65 17.66C19.28 17.71 19.88 17.75 20.45 17.77C20.77 17.79 21.04 17.64 21.21 17.36C21.37 17.09 21.37 16.78 21.21 16.5L21.21 16.5ZM19.3 2.98C19.1 3.33 19.22 3.78 19.57 3.98C19.69 4.05 19.81 4.08 19.94 4.08C20.19 4.08 20.44 3.95 20.57 3.71L22.08 1.09C22.29 0.74 22.17 0.3 21.82 0.09C21.46 -0.11 21.02 0.01 20.82 0.36L19.3 2.98ZM28.12 11.01C28.12 10.61 27.79 10.28 27.39 10.28L24.36 10.28C23.96 10.28 23.63 10.61 23.63 11.01C23.63 11.42 23.96 11.75 24.36 11.75L27.39 11.75C27.79 11.75 28.12 11.42 28.12 11.01ZM26.37 4.74C26.17 4.39 25.72 4.27 25.37 4.48L22.69 6.03C22.34 6.23 22.22 6.68 22.42 7.03C22.55 7.26 22.8 7.39 23.05 7.39C23.18 7.39 23.3 7.36 23.42 7.29L26.1 5.74C26.45 5.54 26.57 5.09 26.37 4.74Z" fill="#9ED927" fill-opacity="1.000000" fill-rule="evenodd"/>
</svg>
