<svg width="112.047852" height="112.048157" viewBox="0 0 112.048 112.048" fill="none" xmlns="http://www.w3.org/2000/svg" xmlns:xlink="http://www.w3.org/1999/xlink">
	<desc>
			Created with Pixso.
	</desc>
	<defs/>
	<path id="Vector" d="M3.39 0L0 0L0 23.76L23.76 23.76L23.76 0L3.39 0ZM3.39 3.39L20.37 3.39L20.37 20.37L3.39 20.37L3.39 3.39ZM30.55 0L27.16 0L27.16 3.39L30.55 3.39L30.55 0ZM37.34 0L33.95 0L33.95 3.39L30.55 3.39L30.55 6.79L27.16 6.79L27.16 23.76L30.55 23.76L30.55 20.37L33.95 20.37L33.95 23.76L37.34 23.76L37.34 16.97L44.14 16.97L44.14 10.18L40.74 10.18L40.74 13.58L37.34 13.58L37.34 6.79L44.14 6.79L44.14 3.39L47.53 3.39L47.53 0L40.74 0L40.74 3.39L37.34 3.39L37.34 0ZM57.72 0L54.32 0L54.32 6.79L57.72 6.79L57.72 0ZM64.51 0L61.11 0L61.11 3.39L64.51 3.39L64.51 0ZM71.3 0L67.9 0L67.9 3.39L84.88 3.39L84.88 0L71.3 0ZM91.67 0L88.28 0L88.28 23.76L112.04 23.76L112.04 0L91.67 0ZM91.67 3.39L108.65 3.39L108.65 20.37L91.67 20.37L91.67 3.39ZM50.93 3.39L47.53 3.39L47.53 10.18L50.93 10.18L50.93 20.37L54.32 20.37L54.32 6.79L50.93 6.79L50.93 3.39ZM67.9 3.39L64.51 3.39L64.51 6.79L67.9 6.79L67.9 3.39ZM10.18 6.79L6.79 6.79L6.79 16.97L16.97 16.97L16.97 6.79L10.18 6.79ZM30.55 10.18L33.95 10.18L33.95 13.58L30.55 13.58L30.55 10.18ZM61.11 6.79L57.72 6.79L57.72 13.58L67.9 13.58L67.9 10.18L64.51 10.18L64.51 6.79L61.11 6.79ZM98.46 6.79L95.07 6.79L95.07 16.97L105.25 16.97L105.25 6.79L98.46 6.79ZM74.69 10.18L71.3 10.18L71.3 13.58L74.69 13.58L74.69 10.18ZM81.48 10.18L78.09 10.18L78.09 13.58L81.48 13.58L81.48 16.97L84.88 16.97L84.88 10.18L81.48 10.18ZM78.09 13.58L74.69 13.58L74.69 23.76L78.09 23.76L78.09 13.58ZM47.53 16.97L44.14 16.97L44.14 20.37L47.53 20.37L47.53 16.97ZM61.11 16.97L57.72 16.97L57.72 20.37L61.11 20.37L61.11 23.76L57.72 23.76L57.72 27.16L61.11 27.16L61.11 30.55L64.51 30.55L64.51 27.16L71.3 27.16L71.3 30.55L67.9 30.55L67.9 33.95L78.09 33.95L78.09 30.55L88.28 30.55L88.28 27.16L84.88 27.16L84.88 20.37L81.48 20.37L81.48 23.76L78.09 23.76L78.09 27.16L74.69 27.16L74.69 23.76L71.3 23.76L71.3 16.97L67.9 16.97L67.9 23.76L64.51 23.76L64.51 16.97L61.11 16.97ZM44.14 20.37L40.74 20.37L40.74 27.16L37.34 27.16L37.34 30.55L44.14 30.55L44.14 27.16L47.53 27.16L47.53 23.76L44.14 23.76L44.14 20.37ZM50.93 20.37L47.53 20.37L47.53 23.76L50.93 23.76L50.93 20.37ZM57.72 20.37L54.32 20.37L54.32 23.76L57.72 23.76L57.72 20.37ZM33.95 23.76L30.55 23.76L30.55 30.55L33.95 30.55L33.95 23.76ZM10.18 27.16L6.79 27.16L6.79 30.55L16.97 30.55L16.97 37.34L23.76 37.34L23.76 40.74L20.37 40.74L20.37 44.14L27.16 44.14L27.16 40.74L30.55 40.74L30.55 44.14L37.34 44.14L37.34 37.34L40.74 37.34L40.74 33.95L33.95 33.95L33.95 37.34L27.16 37.34L27.16 33.95L20.37 33.95L20.37 30.55L27.16 30.55L27.16 27.16L10.18 27.16ZM50.93 27.16L47.53 27.16L47.53 30.55L50.93 30.55L50.93 27.16ZM95.07 27.16L91.67 27.16L91.67 30.55L88.28 30.55L88.28 37.34L91.67 37.34L91.67 33.95L95.07 33.95L95.07 30.55L98.46 30.55L98.46 33.95L105.25 33.95L105.25 40.74L108.65 40.74L108.65 37.34L112.04 37.34L112.04 33.95L108.65 33.95L108.65 30.55L105.25 30.55L105.25 27.16L95.07 27.16ZM112.04 27.16L108.65 27.16L108.65 30.55L112.04 30.55L112.04 27.16ZM30.55 30.55L27.16 30.55L27.16 33.95L30.55 33.95L30.55 30.55ZM47.53 30.55L44.14 30.55L44.14 37.34L50.93 37.34L50.93 33.95L47.53 33.95L47.53 30.55ZM54.32 30.55L50.93 30.55L50.93 33.95L54.32 33.95L54.32 30.55ZM3.39 33.95L0 33.95L0 40.74L3.39 40.74L3.39 44.14L0 44.14L0 50.93L3.39 50.93L3.39 57.72L0 57.72L0 71.3L10.18 71.3L10.18 81.48L13.58 81.48L13.58 74.69L16.97 74.69L16.97 71.3L13.58 71.3L13.58 67.9L10.18 67.9L10.18 57.72L13.58 57.72L13.58 54.32L16.97 54.32L16.97 61.11L13.58 61.11L13.58 64.51L23.76 64.51L23.76 61.11L20.37 61.11L20.37 57.72L23.76 57.72L23.76 54.32L20.37 54.32L20.37 50.93L13.58 50.93L13.58 47.53L10.18 47.53L10.18 50.93L6.79 50.93L6.79 47.53L10.18 47.53L10.18 44.14L13.58 44.14L13.58 33.95L6.79 33.95L6.79 37.34L10.18 37.34L10.18 40.74L6.79 40.74L6.79 37.34L3.39 37.34L3.39 33.95ZM44.14 37.34L40.74 37.34L40.74 40.74L44.14 40.74L44.14 37.34ZM64.51 37.34L61.11 37.34L61.11 40.74L64.51 40.74L64.51 37.34ZM84.88 37.34L81.48 37.34L81.48 44.14L84.88 44.14L84.88 40.74L88.28 40.74L88.28 37.34L84.88 37.34ZM95.07 37.34L91.67 37.34L91.67 40.74L95.07 40.74L95.07 44.14L91.67 44.14L91.67 47.53L98.46 47.53L98.46 44.14L101.86 44.14L101.86 47.53L108.65 47.53L108.65 44.14L105.25 44.14L105.25 40.74L101.86 40.74L101.86 37.34L95.07 37.34ZM50.93 40.74L47.53 40.74L47.53 44.14L50.93 44.14L50.93 47.53L47.53 47.53L47.53 44.14L44.14 44.14L44.14 57.72L47.53 57.72L47.53 50.93L61.11 50.93L61.11 47.53L54.32 47.53L54.32 44.14L61.11 44.14L61.11 40.74L50.93 40.74ZM71.3 40.74L67.9 40.74L67.9 44.14L74.69 44.14L74.69 40.74L71.3 40.74ZM112.04 40.74L108.65 40.74L108.65 44.14L112.04 44.14L112.04 40.74ZM20.37 44.14L16.97 44.14L16.97 47.53L20.37 47.53L20.37 44.14ZM30.55 44.14L27.16 44.14L27.16 47.53L30.55 47.53L30.55 44.14ZM64.51 44.14L61.11 44.14L61.11 47.53L64.51 47.53L64.51 44.14ZM78.09 44.14L74.69 44.14L74.69 47.53L78.09 47.53L78.09 44.14ZM88.28 44.14L84.88 44.14L84.88 47.53L81.48 47.53L81.48 50.93L61.11 50.93L61.11 57.72L57.72 57.72L57.72 54.32L50.93 54.32L50.93 57.72L54.32 57.72L54.32 64.51L50.93 64.51L50.93 57.72L47.53 57.72L47.53 67.9L50.93 67.9L50.93 71.3L47.53 71.3L47.53 67.9L44.14 67.9L44.14 71.3L40.74 71.3L40.74 64.51L37.34 64.51L37.34 71.3L30.55 71.3L30.55 74.69L37.34 74.69L37.34 78.09L40.74 78.09L40.74 74.69L44.14 74.69L44.14 78.09L47.53 78.09L47.53 84.88L50.93 84.88L50.93 81.48L57.72 81.48L57.72 95.07L61.11 95.07L61.11 84.88L64.51 84.88L64.51 81.48L61.11 81.48L61.11 78.09L57.72 78.09L57.72 67.9L61.11 67.9L61.11 64.51L57.72 64.51L57.72 61.11L64.51 61.11L64.51 64.51L64.51 71.3L67.9 71.3L67.9 78.09L71.3 78.09L71.3 74.69L74.69 74.69L74.69 71.3L71.3 71.3L71.3 67.9L67.9 67.9L67.9 57.72L71.3 57.72L71.3 54.32L74.69 54.32L74.69 57.72L78.09 57.72L78.09 54.32L84.88 54.32L84.88 57.72L91.67 57.72L91.67 54.32L95.07 54.32L95.07 50.93L88.28 50.93L88.28 44.14ZM23.76 47.53L20.37 47.53L20.37 50.93L23.76 50.93L23.76 54.32L27.16 54.32L27.16 64.51L30.55 64.51L30.55 50.93L27.16 50.93L27.16 47.53L23.76 47.53ZM33.95 47.53L30.55 47.53L30.55 50.93L33.95 50.93L33.95 47.53ZM40.74 47.53L37.34 47.53L37.34 50.93L33.95 50.93L33.95 54.32L40.74 54.32L40.74 47.53ZM101.86 47.53L98.46 47.53L98.46 57.72L101.86 57.72L101.86 47.53ZM112.04 47.53L108.65 47.53L108.65 50.93L112.04 50.93L112.04 47.53ZM108.65 54.32L105.25 54.32L105.25 57.72L108.65 57.72L108.65 64.51L105.25 64.51L105.25 57.72L101.86 57.72L101.86 67.9L105.25 67.9L105.25 71.3L101.86 71.3L101.86 67.9L98.46 67.9L98.46 71.3L88.28 71.3L88.28 67.9L84.88 67.9L84.88 81.48L67.9 81.48L67.9 84.88L71.3 84.88L71.3 95.07L74.69 95.07L74.69 84.88L81.48 84.88L81.48 98.46L84.88 98.46L84.88 105.25L88.28 105.25L88.28 98.46L95.07 98.46L95.07 101.86L98.46 101.86L98.46 105.25L108.65 105.25L108.65 101.86L101.86 101.86L101.86 95.07L98.46 95.07L98.46 88.28L101.86 88.28L101.86 84.88L98.46 84.88L98.46 81.48L91.67 81.48L91.67 78.09L88.28 78.09L88.28 74.69L91.67 74.69L91.67 78.09L95.07 78.09L95.07 74.69L98.46 74.69L98.46 78.09L101.86 78.09L101.86 84.88L105.25 84.88L105.25 81.48L108.65 81.48L108.65 78.09L105.25 78.09L105.25 74.69L108.65 74.69L108.65 71.3L112.04 71.3L112.04 54.32L108.65 54.32ZM3.39 61.11L6.79 61.11L6.79 67.9L3.39 67.9L3.39 61.11ZM74.69 57.72L71.3 57.72L71.3 64.51L81.48 64.51L81.48 61.11L74.69 61.11L74.69 57.72ZM84.88 57.72L81.48 57.72L81.48 61.11L84.88 61.11L84.88 57.72ZM37.34 61.11L33.95 61.11L33.95 64.51L37.34 64.51L37.34 61.11ZM44.14 61.11L40.74 61.11L40.74 64.51L44.14 64.51L44.14 61.11ZM88.28 61.11L84.88 61.11L84.88 64.51L91.67 64.51L91.67 61.11L88.28 61.11ZM98.46 61.11L95.07 61.11L95.07 64.51L98.46 64.51L98.46 61.11ZM33.95 64.51L30.55 64.51L30.55 67.9L33.95 67.9L33.95 64.51ZM20.37 67.9L16.97 67.9L16.97 71.3L23.76 71.3L23.76 67.9L20.37 67.9ZM30.55 67.9L27.16 67.9L27.16 71.3L30.55 71.3L30.55 67.9ZM78.09 67.9L74.69 67.9L74.69 71.3L78.09 71.3L78.09 67.9ZM27.16 71.3L23.76 71.3L23.76 74.69L27.16 74.69L27.16 71.3ZM50.93 74.69L54.32 74.69L54.32 78.09L50.93 78.09L50.93 74.69ZM81.48 71.3L78.09 71.3L78.09 78.09L81.48 78.09L81.48 71.3ZM6.79 74.69L3.39 74.69L3.39 78.09L6.79 78.09L6.79 74.69ZM20.37 74.69L16.97 74.69L16.97 78.09L23.76 78.09L23.76 74.69L20.37 74.69ZM30.55 74.69L27.16 74.69L27.16 78.09L30.55 78.09L30.55 74.69ZM64.51 74.69L61.11 74.69L61.11 78.09L64.51 78.09L64.51 74.69ZM33.95 78.09L30.55 78.09L30.55 88.28L27.16 88.28L27.16 105.25L30.55 105.25L30.55 95.07L33.95 95.07L33.95 98.46L37.34 98.46L37.34 91.67L33.95 91.67L33.95 78.09ZM10.18 81.48L6.79 81.48L6.79 84.88L10.18 84.88L10.18 81.48ZM16.97 81.48L13.58 81.48L13.58 84.88L16.97 84.88L16.97 81.48ZM23.76 81.48L20.37 81.48L20.37 84.88L27.16 84.88L27.16 81.48L23.76 81.48ZM40.74 81.48L37.34 81.48L37.34 88.28L40.74 88.28L40.74 84.88L44.14 84.88L44.14 81.48L40.74 81.48ZM84.88 84.88L95.07 84.88L95.07 95.07L84.88 95.07L84.88 84.88ZM112.04 81.48L108.65 81.48L108.65 84.88L112.04 84.88L112.04 81.48ZM47.53 84.88L44.14 84.88L44.14 91.67L47.53 91.67L47.53 95.07L50.93 95.07L50.93 98.46L47.53 98.46L47.53 101.86L50.93 101.86L50.93 105.25L57.72 105.25L57.72 112.04L61.11 112.04L61.11 101.86L64.51 101.86L64.51 98.46L57.72 98.46L57.72 101.86L54.32 101.86L54.32 98.46L57.72 98.46L57.72 95.07L54.32 95.07L54.32 91.67L50.93 91.67L50.93 88.28L47.53 88.28L47.53 84.88ZM54.32 84.88L50.93 84.88L50.93 88.28L54.32 88.28L54.32 84.88ZM67.9 84.88L64.51 84.88L64.51 88.28L67.9 88.28L67.9 84.88ZM108.65 84.88L105.25 84.88L105.25 88.28L108.65 88.28L108.65 84.88ZM3.39 88.28L0 88.28L0 112.04L23.76 112.04L23.76 88.28L3.39 88.28ZM3.39 91.67L20.37 91.67L20.37 108.65L3.39 108.65L3.39 91.67ZM91.67 88.28L88.28 88.28L88.28 91.67L91.67 91.67L91.67 88.28ZM44.14 91.67L40.74 91.67L40.74 95.07L44.14 95.07L44.14 91.67ZM67.9 91.67L64.51 91.67L64.51 95.07L67.9 95.07L67.9 91.67ZM105.25 91.67L101.86 91.67L101.86 95.07L105.25 95.07L105.25 91.67ZM112.04 91.67L108.65 91.67L108.65 95.07L112.04 95.07L112.04 91.67ZM10.18 95.07L6.79 95.07L6.79 105.25L16.97 105.25L16.97 95.07L10.18 95.07ZM71.3 95.07L67.9 95.07L67.9 101.86L71.3 101.86L71.3 112.04L74.69 112.04L74.69 105.25L81.48 105.25L81.48 98.46L78.09 98.46L78.09 101.86L74.69 101.86L74.69 98.46L71.3 98.46L71.3 95.07ZM108.65 95.07L105.25 95.07L105.25 98.46L108.65 98.46L108.65 95.07ZM44.14 98.46L40.74 98.46L40.74 101.86L44.14 101.86L44.14 98.46ZM112.04 98.46L108.65 98.46L108.65 101.86L112.04 101.86L112.04 98.46ZM37.34 101.86L33.95 101.86L33.95 108.65L40.74 108.65L40.74 101.86L37.34 101.86ZM47.53 101.86L44.14 101.86L44.14 112.04L47.53 112.04L47.53 108.65L50.93 108.65L50.93 105.25L47.53 105.25L47.53 101.86ZM67.9 101.86L64.51 101.86L64.51 105.25L67.9 105.25L67.9 101.86ZM95.07 101.86L91.67 101.86L91.67 105.25L88.28 105.25L88.28 108.65L91.67 108.65L91.67 112.04L95.07 112.04L95.07 101.86ZM112.04 105.25L108.65 105.25L108.65 108.65L112.04 108.65L112.04 105.25ZM67.9 108.65L64.51 108.65L64.51 112.04L67.9 112.04L67.9 108.65ZM81.48 108.65L78.09 108.65L78.09 112.04L88.28 112.04L88.28 108.65L81.48 108.65ZM101.86 108.65L98.46 108.65L98.46 112.04L101.86 112.04L101.86 108.65Z" fill="#FFFFFF" fill-opacity="1.000000" fill-rule="evenodd"/>
</svg>
