<svg width="249.000000" height="249.000000" viewBox="0 0 249 249" fill="none" xmlns="http://www.w3.org/2000/svg" xmlns:xlink="http://www.w3.org/1999/xlink">
	<desc>
			Created with Pixso.
	</desc>
	<defs>
		<clipPath id="clip118_4924">
			<rect id="14230942_5443168 1" rx="0.000000" width="248.000000" height="248.000000" transform="matrix(-1 0 0 1 249.5 0.5)" fill="white" fill-opacity="0"/>
		</clipPath>
	</defs>
	<rect id="14230942_5443168 1" rx="0.000000" width="248.000000" height="248.000000" transform="matrix(-1 0 0 1 249.5 0.5)" fill="#FFFFFF" fill-opacity="0"/>
	<g clip-path="url(#clip118_4924)">
		<path id="Vector" d="M122.46 172.78C118.63 176.6 112.43 176.6 108.6 172.78C104.78 168.95 104.78 162.75 108.6 158.92C112.43 155.09 118.63 155.09 122.46 158.92C126.29 162.75 126.29 168.95 122.46 172.78Z" fill="#EBEBEB" fill-opacity="1.000000" fill-rule="nonzero"/>
		<path id="Vector" d="M111.97 160.03C111.93 160.49 112.07 160.97 112.33 161.37C112.58 161.77 112.97 162.09 113.39 162.31C113.83 162.52 114.37 162.59 114.83 162.43C115.3 162.28 115.69 161.97 115.93 161.59C115.56 161.85 115.16 162.04 114.75 162.1C114.55 162.14 114.35 162.14 114.15 162.11C113.95 162.08 113.77 162 113.58 161.92C113.49 161.88 113.4 161.83 113.31 161.77C113.22 161.72 113.13 161.66 113.05 161.6C112.88 161.48 112.74 161.32 112.6 161.17C112.33 160.85 112.11 160.47 111.97 160.03Z" fill="#C7C7C7" fill-opacity="1.000000" fill-rule="nonzero"/>
		<path id="Vector" d="M115.49 160.6C115.54 160.28 115.46 159.95 115.29 159.66C115.11 159.38 114.85 159.14 114.55 158.99C114.24 158.84 113.85 158.8 113.53 158.92C113.2 159.03 112.94 159.26 112.79 159.54C113.07 159.39 113.34 159.28 113.61 159.24C113.87 159.21 114.12 159.27 114.36 159.38C114.85 159.61 115.24 160.02 115.49 160.6Z" fill="#C7C7C7" fill-opacity="1.000000" fill-rule="nonzero"/>
		<path id="Vector" d="M115.53 170.45C115.41 170.74 115.41 171.08 115.51 171.39C115.61 171.7 115.81 171.98 116.08 172.18C116.34 172.39 116.71 172.49 117.04 172.44C117.37 172.39 117.66 172.23 117.86 171.99C117.57 172.08 117.28 172.12 117.02 172.11C116.76 172.09 116.54 171.99 116.33 171.84C116.12 171.68 115.95 171.48 115.81 171.25C115.68 171.02 115.59 170.76 115.53 170.45Z" fill="#C7C7C7" fill-opacity="1.000000" fill-rule="nonzero"/>
		<path id="Vector" d="M117.56 171.57C117.68 171.37 117.69 171.13 117.63 170.91C117.57 170.68 117.42 170.48 117.23 170.34C117.04 170.18 116.77 170.11 116.53 170.16C116.3 170.2 116.1 170.33 115.98 170.52C116.19 170.48 116.38 170.47 116.55 170.49C116.72 170.52 116.85 170.58 116.97 170.68C117.24 170.88 117.43 171.15 117.56 171.57Z" fill="#C7C7C7" fill-opacity="1.000000" fill-rule="nonzero"/>
		<path id="Vector" d="M119.06 161.64C118.89 161.79 118.79 162.02 118.78 162.27C118.78 162.52 118.88 162.78 119.06 162.96C119.25 163.16 119.54 163.24 119.78 163.21C120.02 163.18 120.24 163.08 120.4 162.91C120.17 162.91 119.97 162.91 119.79 162.87C119.61 162.83 119.47 162.77 119.37 162.66C119.26 162.55 119.17 162.4 119.12 162.23C119.07 162.06 119.06 161.86 119.06 161.64Z" fill="#C7C7C7" fill-opacity="1.000000" fill-rule="nonzero"/>
		<path id="Vector" d="M120.28 162.59C120.42 162.5 120.51 162.34 120.52 162.16C120.53 161.97 120.46 161.78 120.33 161.64C120.19 161.49 119.96 161.44 119.79 161.47C119.62 161.5 119.47 161.59 119.37 161.73C119.54 161.75 119.67 161.77 119.78 161.81C119.9 161.84 119.97 161.89 120.02 161.94C120.09 162.01 120.15 162.09 120.19 162.19C120.23 162.3 120.26 162.42 120.28 162.59Z" fill="#C7C7C7" fill-opacity="1.000000" fill-rule="nonzero"/>
		<path id="Vector" d="M112.26 171.97C112.36 172.17 112.56 172.32 112.8 172.39C113.04 172.46 113.31 172.42 113.54 172.29C113.78 172.16 113.92 171.89 113.95 171.66C113.98 171.41 113.93 171.18 113.82 170.99C113.76 171.2 113.71 171.4 113.63 171.57C113.55 171.73 113.45 171.85 113.32 171.92C113.18 172 113.02 172.05 112.85 172.06C112.67 172.07 112.47 172.03 112.26 171.97Z" fill="#C7C7C7" fill-opacity="1.000000" fill-rule="nonzero"/>
		<path id="Vector" d="M113.48 171.02C113.42 170.86 113.29 170.74 113.11 170.68C112.94 170.62 112.74 170.64 112.57 170.74C112.39 170.84 112.28 171.05 112.27 171.22C112.26 171.4 112.31 171.56 112.42 171.69C112.48 171.54 112.53 171.41 112.6 171.31C112.66 171.21 112.72 171.15 112.79 171.11C112.87 171.06 112.96 171.03 113.07 171.01C113.18 170.99 113.31 171 113.48 171.02Z" fill="#C7C7C7" fill-opacity="1.000000" fill-rule="nonzero"/>
		<path id="Vector" d="M108.9 165.07C108.87 165.3 108.95 165.54 109.11 165.73C109.27 165.92 109.52 166.05 109.78 166.06C110.05 166.09 110.32 165.95 110.48 165.77C110.64 165.59 110.73 165.37 110.74 165.14C110.57 165.29 110.42 165.42 110.26 165.51C110.1 165.61 109.95 165.65 109.8 165.63C109.65 165.62 109.48 165.57 109.34 165.48C109.18 165.39 109.04 165.25 108.9 165.07Z" fill="#C7C7C7" fill-opacity="1.000000" fill-rule="nonzero"/>
		<path id="Vector" d="M110.44 164.98C110.49 164.81 110.44 164.64 110.33 164.49C110.22 164.35 110.04 164.25 109.85 164.24C109.64 164.22 109.44 164.33 109.33 164.46C109.22 164.6 109.17 164.76 109.19 164.93C109.33 164.84 109.44 164.77 109.55 164.72C109.66 164.67 109.74 164.66 109.82 164.66C109.91 164.67 110.01 164.69 110.11 164.74C110.21 164.79 110.32 164.87 110.44 164.98Z" fill="#C7C7C7" fill-opacity="1.000000" fill-rule="nonzero"/>
		<path id="Vector" d="M121.88 167.29C121.85 167.52 121.93 167.76 122.09 167.95C122.25 168.14 122.49 168.26 122.75 168.28C123.03 168.31 123.3 168.17 123.45 167.99C123.61 167.81 123.71 167.59 123.72 167.36C123.55 167.51 123.39 167.64 123.24 167.73C123.08 167.82 122.93 167.87 122.78 167.85C122.62 167.84 122.46 167.79 122.31 167.7C122.16 167.61 122.02 167.47 121.88 167.29Z" fill="#C7C7C7" fill-opacity="1.000000" fill-rule="nonzero"/>
		<path id="Vector" d="M123.42 167.2C123.46 167.03 123.42 166.86 123.31 166.71C123.2 166.56 123.02 166.47 122.83 166.45C122.62 166.44 122.42 166.54 122.31 166.68C122.2 166.82 122.15 166.98 122.16 167.15C122.31 167.06 122.42 166.98 122.53 166.94C122.63 166.89 122.72 166.87 122.8 166.88C122.89 166.89 122.99 166.91 123.08 166.96C123.19 167.01 123.29 167.09 123.42 167.2Z" fill="#C7C7C7" fill-opacity="1.000000" fill-rule="nonzero"/>
		<g opacity="0.400000">
			<path id="Vector" d="M224.88 129.43C224.85 133.22 224.21 137.02 222.76 140.47C221.32 143.89 219.04 146.98 216.1 148.89C215.36 149.37 214.6 149.78 213.82 150.12C213.03 150.44 212.23 150.69 211.41 150.86C209.79 151.2 208.13 151.19 206.53 150.93C203.33 150.37 200.36 148.78 197.75 146.69C197.59 146.56 197.41 146.42 197.27 146.3L196.9 145.95C196.66 145.7 196.42 145.46 196.19 145.18C195.73 144.66 195.29 144.08 194.89 143.45C194.08 142.2 193.35 140.78 192.73 139.27C191.45 136.24 190.45 132.86 189.56 129.39C187.78 122.42 186.36 115.03 184.68 107.53C184.26 105.66 183.81 103.77 183.34 101.88C182.88 99.98 182.37 98.08 181.83 96.16C180.74 92.33 179.52 88.47 177.71 84.5C177.25 83.5 176.75 82.49 176.15 81.47C175.85 80.96 175.52 80.44 175.17 79.93C174.81 79.44 174.44 78.95 174.05 78.49C172.49 76.65 170.69 75.16 168.86 73.95C165.21 71.49 161.45 69.96 157.85 68.4C154.22 66.89 150.68 65.43 147.33 63.7C143.97 61.97 140.8 59.98 138 57.62C135.18 55.27 132.79 52.49 130.95 49.42C129.12 46.33 127.79 42.97 127.4 39.7C127.21 38.07 127.23 36.47 127.49 35C127.77 33.54 128.27 32.2 128.99 31.09C130.42 28.85 132.58 27.5 135.01 27.01C136.22 26.76 137.51 26.73 138.82 26.86C140.13 27.01 141.47 27.34 142.79 27.84C143.12 27.96 143.45 28.1 143.78 28.24L144.96 28.75C145.74 29.1 146.5 29.47 147.26 29.85C148.77 30.63 150.24 31.46 151.69 32.39C154.6 34.23 157.45 36.45 160.63 38.84C163.79 41.22 167.32 43.68 171.15 45.77C174.99 47.83 179.04 49.54 183.14 50.8C183.65 50.98 184.16 51.11 184.68 51.26L186.05 51.65C186.82 51.88 187.59 52.12 188.35 52.39C189.88 52.92 191.4 53.53 192.87 54.22C198.76 56.96 203.91 60.82 207.58 65.83C209.43 68.33 211 71.08 212.25 74.11C212.88 75.62 213.43 77.2 213.88 78.84C214.36 80.48 214.73 82.17 215.05 83.91C215.35 85.65 215.58 87.43 215.72 89.25C215.8 90.1 215.85 91.21 215.92 92.21C216.01 93.24 216.1 94.26 216.22 95.28C216.7 99.34 217.46 103.32 218.48 107.19C219.47 111.05 220.71 114.8 221.97 118.48C222.6 120.32 223.23 122.15 223.79 123.98C224.34 125.8 224.85 127.66 224.88 129.43ZM226.37 129.45C226.39 128.4 226.24 127.39 226.07 126.42C225.9 125.44 225.66 124.48 225.44 123.53C224.99 121.63 224.51 119.77 224.11 117.88C223.7 116.01 223.36 114.12 223.1 112.24C222.84 110.35 222.69 108.45 222.61 106.57C222.48 102.79 222.72 99.04 223.33 95.39C223.47 94.47 223.65 93.56 223.83 92.66C224.02 91.74 224.22 90.93 224.43 89.85C224.84 87.81 225.17 85.73 225.36 83.61C225.75 79.37 225.63 74.96 224.76 70.55C223.9 66.15 222.28 61.78 219.92 57.8C217.55 53.82 214.51 50.25 211.07 47.23C207.63 44.2 203.81 41.71 199.78 39.75C197.77 38.77 195.71 37.92 193.59 37.19C192.53 36.83 191.46 36.5 190.36 36.2L187.7 35.49C184.39 34.55 181.23 33.44 178.18 31.99C175.11 30.58 172.17 28.81 168.99 26.78C165.82 24.77 162.4 22.47 158.61 20.45C156.72 19.44 154.76 18.5 152.75 17.68C151.75 17.27 150.73 16.9 149.71 16.54L148.17 16.03C147.59 15.85 147.01 15.69 146.41 15.54C144.03 14.95 141.53 14.63 138.98 14.74C136.43 14.82 133.84 15.33 131.39 16.32C128.95 17.31 126.67 18.79 124.8 20.67C122.92 22.55 121.47 24.81 120.58 27.21C119.66 29.6 119.29 32.09 119.32 34.48C119.33 36.86 119.74 39.15 120.39 41.29C121.74 45.55 123.89 49.24 126.39 52.53C127.64 54.19 129.03 55.73 130.47 57.19C131.94 58.63 133.48 59.98 135.08 61.23C141.5 66.22 148.79 69.51 155.38 73.36C158.66 75.26 161.8 77.35 164.17 79.75C165.34 80.95 166.3 82.22 166.98 83.53C167.15 83.85 167.3 84.18 167.44 84.51C167.58 84.84 167.7 85.17 167.83 85.53C168.07 86.24 168.3 87.03 168.5 87.85C168.9 89.49 169.22 91.25 169.49 93.06C169.79 94.86 170.02 96.7 170.27 98.57L171.01 104.22C171.26 106.12 171.52 108.03 171.81 109.95C172.98 117.62 174.48 125.44 177.27 133.23C178.69 137.12 180.43 141.01 182.9 144.75C183.53 145.67 184.19 146.59 184.92 147.49C185.64 148.38 186.43 149.26 187.3 150.08C188.16 150.91 189.1 151.7 190.12 152.41C190.61 152.77 191.16 153.1 191.7 153.42L192.54 153.86C192.81 154 193.05 154.1 193.3 154.22C195.32 155.14 197.43 155.88 199.64 156.36C201.84 156.83 204.12 157.02 206.38 156.85C208.64 156.7 210.87 156.12 212.9 155.23C213.91 154.77 214.88 154.24 215.77 153.62C216.68 153.01 217.52 152.33 218.29 151.59C221.37 148.63 223.34 144.93 224.57 141.14C225.8 137.33 226.31 133.38 226.37 129.45Z" fill="#EBEBEB" fill-opacity="1.000000" fill-rule="nonzero"/>
			<path id="Vector" d="M23.54 44.76C24.2 46.19 24.93 47.45 25.69 48.63C26.06 49.23 26.45 49.79 26.83 50.36C27.23 50.91 27.63 51.46 28.04 51.98C28.84 53.05 29.69 54.03 30.54 55.01C33.96 58.87 37.68 62.19 41.33 65.47L42.61 66.64L43.18 67.16L43.72 67.73C44.09 68.1 44.42 68.53 44.77 68.94C45.1 69.38 45.43 69.81 45.75 70.28C46.06 70.74 46.37 71.2 46.66 71.7C46.96 72.18 47.25 72.68 47.52 73.19C48.06 74.22 48.6 75.27 49.07 76.36C51.05 80.71 52.53 85.39 54.85 90.07C56.05 92.4 57.48 94.78 59.57 96.84C60.58 97.9 61.8 98.8 63.07 99.62C63.72 100 64.38 100.39 65.06 100.69C65.41 100.85 65.75 101.02 66.1 101.16L67.16 101.55C68.58 102.06 70.02 102.39 71.47 102.64C72.21 102.77 73 102.81 73.78 102.88C74.57 102.94 75.33 102.89 76.11 102.88C76.89 102.86 77.63 102.75 78.4 102.66C78.78 102.63 79.14 102.55 79.51 102.47L80.61 102.25L81.17 102.13L81.7 101.98L82.76 101.66C83.49 101.47 84.15 101.19 84.83 100.93C87.54 99.86 90.02 98.44 92.27 96.8C94.51 95.14 96.54 93.28 98.36 91.25C100.17 89.22 101.73 87 103.08 84.67C103.41 84.08 103.73 83.49 104.04 82.9C104.35 82.3 104.62 81.68 104.9 81.07C105.19 80.47 105.45 79.85 105.69 79.22C105.93 78.6 106.18 77.98 106.39 77.33C107.26 74.81 107.88 72.19 108.34 69.59C108.78 66.98 109.04 64.37 109.06 61.77C109.08 59.18 108.93 56.62 108.48 54.13C108.03 51.63 107.27 49.21 106.12 46.96C104.96 44.69 103.24 42.68 101.15 41.14C99.06 39.59 96.68 38.44 94.25 37.51C89.36 35.67 84.21 34.52 79.14 33.74C76.59 33.34 74.06 33.09 71.56 32.93C71.19 32.92 71.05 32.86 70.84 32.83L70.25 32.73C69.86 32.61 69.48 32.58 69.09 32.43L68.51 32.27C68.31 32.2 68.12 32.12 67.92 32.07C67.53 31.96 67.13 31.76 66.73 31.63C65.11 30.98 63.38 30.15 61.5 29.11L58.54 27.45L56.96 26.56L55.29 25.65C54.16 25.03 52.9 24.44 51.6 23.85C50.26 23.29 48.85 22.73 47.28 22.28C45.69 21.85 44.02 21.47 42.17 21.36C40.35 21.24 38.42 21.3 36.55 21.7L35.84 21.83L35.15 22.02C34.69 22.15 34.23 22.27 33.78 22.42C32.92 22.75 32.02 23.07 31.24 23.49L30.04 24.11L28.93 24.8C28.18 25.25 27.54 25.76 26.88 26.26C26.7 26.39 26.57 26.49 26.37 26.65C26.11 26.87 25.87 27.09 25.62 27.32C25.13 27.75 24.65 28.3 24.21 28.86C24.1 29 23.99 29.14 23.89 29.28L23.58 29.75C23.39 30.06 23.2 30.37 23.02 30.69C22.69 31.34 22.4 32.02 22.18 32.69C22.08 33.03 21.99 33.36 21.9 33.7C21.86 33.87 21.82 34.04 21.79 34.2L21.71 34.69C21.66 35.01 21.63 35.33 21.59 35.66C21.56 35.98 21.57 36.26 21.56 36.57C21.56 36.86 21.56 37.16 21.57 37.45L21.64 38.27C21.67 38.54 21.69 38.82 21.74 39.07L21.87 39.81C22.27 41.75 22.89 43.33 23.54 44.76Z" fill="#EBEBEB" fill-opacity="1.000000" fill-rule="nonzero"/>
			<path id="Vector" d="M187.8 176.46C187.54 177.97 187.46 179.4 187.5 180.77C187.54 183.54 188.16 186.07 188.85 188.53C189.54 191 190.38 193.4 191.43 195.72C192.5 198.03 193.8 200.24 195.43 202.26C197.06 204.29 198.93 206.18 201.17 207.81C203.41 209.4 206.2 210.57 209.26 211.03C210.78 211.25 212.37 211.3 213.92 211.12C215.46 210.94 216.96 210.55 218.26 209.95C219.58 209.37 220.7 208.63 221.67 207.84C222.64 207.05 223.49 206.21 224.3 205.37C224.73 204.9 225.11 204.4 225.45 203.86C225.77 203.3 226.03 202.72 226.27 202.11C226.69 200.9 226.96 199.6 227.13 198.28C227.48 195.65 227.55 192.82 227.22 190.12C226.89 187.41 226.05 184.89 224.74 182.74C223.42 180.59 221.7 178.76 219.67 177.3C217.64 175.83 215.27 174.77 212.94 173.81C210.58 172.88 208.3 172 206.12 170.97C203.91 169.98 201.85 168.8 199.21 167.98C198.54 167.78 197.83 167.6 197.04 167.51C196.26 167.41 195.4 167.39 194.46 167.55C193.46 167.72 192.25 168.29 191.36 169.06C191.15 169.26 190.92 169.47 190.74 169.67C190.55 169.88 190.37 170.1 190.19 170.32C189.89 170.75 189.59 171.2 189.37 171.63C189.12 172.07 188.96 172.47 188.77 172.91C188.62 173.31 188.46 173.75 188.35 174.13L188.18 174.73L188.03 175.32C187.94 175.71 187.87 176.08 187.8 176.46Z" fill="#EBEBEB" fill-opacity="1.000000" fill-rule="nonzero"/>
		</g>
		<g opacity="0.400000">
			<path id="Vector" d="M47.13 92.86C35.42 83.77 23.65 85.54 23.65 85.54C23.65 85.54 23.59 97.45 34.28 107.72C43.29 116.39 51.86 115.9 54.81 112.49C57.76 109.08 57.01 100.53 47.13 92.86Z" fill="#EBEBEB" fill-opacity="1.000000" fill-rule="nonzero"/>
			<path id="Vector" d="M48.43 98.74C41.01 92.98 33.55 94.1 33.55 94.1C33.55 94.1 33.51 101.65 40.29 108.16C46 113.66 51.43 113.35 53.3 111.19C55.17 109.03 54.7 103.61 48.43 98.74Z" fill="#FFFFFF" fill-opacity="1.000000" fill-rule="nonzero"/>
		</g>
		<path id="Vector" d="M43.06 101.86L43.95 101.15C44.2 100.95 44.24 100.58 44.04 100.32C43.84 100.07 43.47 100.03 43.21 100.23L42.33 100.94C42.07 101.14 42.03 101.51 42.23 101.76C42.44 102.02 42.81 102.06 43.06 101.86Z" fill="#EBEBEB" fill-opacity="1.000000" fill-rule="nonzero"/>
		<path id="Vector" d="M53.05 110.97L53.67 110.02C53.85 109.75 53.77 109.39 53.5 109.21C53.23 109.03 52.86 109.11 52.69 109.38L52.07 110.33C51.89 110.6 51.97 110.97 52.24 111.14C52.51 111.32 52.88 111.24 53.05 110.97Z" fill="#EBEBEB" fill-opacity="1.000000" fill-rule="nonzero"/>
		<path id="Vector" d="M47.22 100.05L47.83 100.03C48.15 100.02 48.41 99.75 48.4 99.42C48.39 99.1 48.12 98.84 47.79 98.85L47.18 98.87C46.86 98.88 46.6 99.15 46.61 99.48C46.62 99.8 46.89 100.06 47.22 100.05Z" fill="#EBEBEB" fill-opacity="1.000000" fill-rule="nonzero"/>
		<path id="Vector" d="M41.58 107.42L41.56 106.81C41.55 106.48 41.28 106.23 40.95 106.24C40.63 106.25 40.37 106.52 40.38 106.84L40.4 107.45C40.41 107.78 40.68 108.03 41.01 108.02C41.33 108.01 41.59 107.74 41.58 107.42Z" fill="#EBEBEB" fill-opacity="1.000000" fill-rule="nonzero"/>
		<path id="Vector" d="M54.56 107.6L54.63 106.99C54.67 106.67 54.43 106.38 54.11 106.34C53.79 106.3 53.5 106.54 53.46 106.86L53.39 107.46C53.36 107.79 53.59 108.08 53.91 108.11C54.24 108.15 54.53 107.92 54.56 107.6Z" fill="#EBEBEB" fill-opacity="1.000000" fill-rule="nonzero"/>
		<path id="Vector" d="M44.68 112.9L45.24 113.13C45.55 113.24 45.89 113.1 46 112.79C46.12 112.49 45.98 112.15 45.67 112.03L45.11 111.81C44.8 111.69 44.46 111.84 44.34 112.14C44.23 112.44 44.37 112.79 44.68 112.9Z" fill="#EBEBEB" fill-opacity="1.000000" fill-rule="nonzero"/>
		<path id="Vector" d="M40.74 105.48C40.33 109.2 43.01 112.55 46.73 112.97C50.45 113.38 53.8 110.7 54.22 106.98C54.63 103.26 51.95 99.91 48.23 99.49C44.51 99.08 41.16 101.76 40.74 105.48Z" fill="#EBEBEB" fill-opacity="1.000000" fill-rule="evenodd"/>
		<path id="Vector" d="M50.37 102.52C50.36 102.83 50.23 103.15 50.02 103.4C49.82 103.66 49.53 103.85 49.22 103.97C48.9 104.08 48.53 104.09 48.22 103.94C47.91 103.8 47.67 103.56 47.53 103.28C47.76 103.48 48.02 103.65 48.3 103.72C48.43 103.76 48.57 103.78 48.71 103.77C48.85 103.77 48.99 103.73 49.12 103.69C49.18 103.66 49.25 103.64 49.32 103.61C49.38 103.57 49.45 103.54 49.51 103.5C49.63 103.44 49.74 103.34 49.85 103.25C50.07 103.05 50.24 102.8 50.37 102.52Z" fill="#C7C7C7" fill-opacity="1.000000" fill-rule="nonzero"/>
		<path id="Vector" d="M47.91 102.63C47.9 102.41 47.98 102.19 48.12 102C48.26 101.82 48.46 101.68 48.68 101.6C48.9 101.52 49.17 101.52 49.39 101.63C49.6 101.73 49.77 101.91 49.84 102.11C49.67 101.98 49.49 101.89 49.31 101.84C49.13 101.8 48.95 101.82 48.78 101.88C48.42 102 48.12 102.25 47.91 102.63Z" fill="#C7C7C7" fill-opacity="1.000000" fill-rule="nonzero"/>
		<path id="Vector" d="M45.11 107C45.17 107.21 45.14 107.44 45.05 107.65C44.96 107.85 44.8 108.03 44.6 108.15C44.4 108.27 44.14 108.32 43.92 108.25C43.69 108.19 43.5 108.06 43.39 107.88C43.58 107.96 43.77 108.02 43.95 108.02C44.14 108.03 44.3 107.98 44.45 107.89C44.6 107.8 44.74 107.68 44.85 107.53C44.96 107.38 45.05 107.21 45.11 107Z" fill="#C7C7C7" fill-opacity="1.000000" fill-rule="nonzero"/>
		<path id="Vector" d="M43.63 107.61C43.56 107.47 43.57 107.3 43.63 107.15C43.69 107 43.81 106.87 43.95 106.79C44.09 106.7 44.28 106.67 44.44 106.72C44.6 106.77 44.73 106.88 44.8 107.01C44.65 106.97 44.52 106.95 44.41 106.95C44.29 106.96 44.19 106.99 44.1 107.04C43.9 107.16 43.75 107.33 43.63 107.61Z" fill="#C7C7C7" fill-opacity="1.000000" fill-rule="nonzero"/>
		<path id="Vector" d="M42.86 105.23C42.97 105.35 43.02 105.52 43 105.69C42.99 105.86 42.9 106.03 42.76 106.14C42.61 106.26 42.41 106.29 42.25 106.25C42.08 106.22 41.94 106.13 41.84 106C42 106.02 42.14 106.04 42.27 106.02C42.39 106.01 42.49 105.98 42.57 105.91C42.66 105.84 42.73 105.75 42.78 105.64C42.83 105.52 42.85 105.39 42.86 105.23Z" fill="#C7C7C7" fill-opacity="1.000000" fill-rule="nonzero"/>
		<path id="Vector" d="M41.95 105.79C41.86 105.72 41.81 105.6 41.82 105.48C41.82 105.35 41.89 105.22 41.99 105.14C42.1 105.05 42.26 105.03 42.37 105.06C42.49 105.09 42.58 105.17 42.64 105.27C42.53 105.27 42.43 105.28 42.35 105.29C42.27 105.31 42.22 105.33 42.18 105.37C42.13 105.41 42.08 105.46 42.04 105.53C42 105.59 41.98 105.68 41.95 105.79Z" fill="#C7C7C7" fill-opacity="1.000000" fill-rule="nonzero"/>
		<path id="Vector" d="M52.32 104.27C52.32 104.43 52.25 104.59 52.12 104.71C52 104.83 51.82 104.89 51.64 104.89C51.45 104.88 51.27 104.77 51.18 104.63C51.08 104.49 51.03 104.34 51.05 104.18C51.15 104.29 51.25 104.4 51.35 104.47C51.45 104.55 51.55 104.59 51.65 104.59C51.76 104.6 51.88 104.57 51.98 104.52C52.1 104.47 52.2 104.38 52.32 104.27Z" fill="#C7C7C7" fill-opacity="1.000000" fill-rule="nonzero"/>
		<path id="Vector" d="M51.26 104.09C51.25 103.97 51.29 103.85 51.38 103.76C51.46 103.67 51.59 103.62 51.73 103.63C51.87 103.63 52 103.72 52.07 103.82C52.13 103.92 52.16 104.04 52.13 104.16C52.04 104.08 51.97 104.02 51.9 103.98C51.83 103.94 51.77 103.92 51.72 103.92C51.65 103.92 51.58 103.93 51.51 103.95C51.44 103.98 51.36 104.02 51.26 104.09Z" fill="#C7C7C7" fill-opacity="1.000000" fill-rule="nonzero"/>
		<path id="Vector" d="M48.02 108.43C48.73 108.84 49.65 108.6 50.07 107.89C50.49 107.17 50.26 106.25 49.55 105.84C48.83 105.42 47.92 105.66 47.5 106.37C47.08 107.09 47.31 108.01 48.02 108.43Z" fill="#DBDBDB" fill-opacity="1.000000" fill-rule="nonzero"/>
		<path id="Vector" d="M49.56 106.51C49.95 106.74 50.18 107.13 50.22 107.54C50.41 106.9 50.15 106.19 49.54 105.84C48.83 105.42 47.91 105.66 47.5 106.37C47.19 106.89 47.23 107.51 47.54 107.97C47.47 107.65 47.52 107.3 47.7 106.99C48.08 106.35 48.91 106.13 49.56 106.51Z" fill="#C7C7C7" fill-opacity="1.000000" fill-rule="nonzero"/>
		<path id="Vector" d="M50.82 107.61C50.79 108 50.62 108.38 50.36 108.69C50.11 109 49.75 109.23 49.38 109.37C48.99 109.51 48.54 109.52 48.16 109.35C47.79 109.18 47.49 108.89 47.3 108.55C47.58 108.82 47.9 109.03 48.24 109.13C48.33 109.16 48.41 109.17 48.5 109.19C48.59 109.19 48.68 109.21 48.76 109.19C48.94 109.19 49.11 109.15 49.28 109.09C49.36 109.06 49.44 109.03 49.53 108.99C49.6 108.95 49.69 108.91 49.76 108.86C49.92 108.77 50.06 108.65 50.19 108.53C50.45 108.28 50.67 107.97 50.82 107.61Z" fill="#C7C7C7" fill-opacity="1.000000" fill-rule="nonzero"/>
		<path id="Vector" d="M52.38 108.36C52.67 108.47 52.99 108.31 53.09 108.02C53.2 107.73 53.04 107.41 52.75 107.31C52.46 107.2 52.15 107.36 52.04 107.65C51.94 107.94 52.09 108.26 52.38 108.36Z" fill="#DBDBDB" fill-opacity="1.000000" fill-rule="nonzero"/>
		<path id="Vector" d="M52.81 107.55C52.97 107.61 53.08 107.73 53.12 107.88C53.15 107.63 53 107.39 52.75 107.31C52.46 107.2 52.15 107.36 52.04 107.65C51.97 107.86 52.03 108.08 52.17 108.23C52.12 108.12 52.12 107.99 52.16 107.86C52.25 107.6 52.54 107.46 52.81 107.55Z" fill="#C7C7C7" fill-opacity="1.000000" fill-rule="nonzero"/>
		<path id="Vector" d="M53.35 107.87C53.37 108.01 53.34 108.17 53.27 108.3C53.2 108.44 53.08 108.55 52.95 108.63C52.82 108.71 52.65 108.74 52.5 108.7C52.34 108.67 52.21 108.58 52.13 108.46C52.25 108.53 52.39 108.58 52.51 108.59C52.64 108.6 52.77 108.57 52.88 108.5C53.11 108.37 53.27 108.15 53.35 107.87Z" fill="#C7C7C7" fill-opacity="1.000000" fill-rule="nonzero"/>
		<path id="Vector" d="M48.16 111.54C48.59 111.61 49 111.32 49.07 110.88C49.14 110.45 48.85 110.04 48.42 109.97C47.99 109.9 47.58 110.19 47.51 110.62C47.43 111.06 47.72 111.47 48.16 111.54Z" fill="#DBDBDB" fill-opacity="1.000000" fill-rule="nonzero"/>
		<path id="Vector" d="M48.55 110.3C48.79 110.34 48.98 110.49 49.08 110.69C49.05 110.33 48.78 110.03 48.42 109.97C47.99 109.9 47.58 110.19 47.51 110.62C47.45 110.94 47.59 111.24 47.83 111.41C47.74 111.26 47.69 111.08 47.73 110.89C47.79 110.5 48.16 110.23 48.55 110.3Z" fill="#C7C7C7" fill-opacity="1.000000" fill-rule="nonzero"/>
		<path id="Vector" d="M49.38 110.61C49.44 110.8 49.43 111.02 49.36 111.22C49.29 111.43 49.16 111.61 49 111.75C48.84 111.89 48.62 111.98 48.4 111.96C48.18 111.96 47.98 111.87 47.82 111.74C48.01 111.82 48.21 111.86 48.4 111.85C48.59 111.84 48.76 111.76 48.91 111.63C49.05 111.51 49.17 111.36 49.25 111.18C49.33 111.01 49.38 110.81 49.38 110.61Z" fill="#C7C7C7" fill-opacity="1.000000" fill-rule="nonzero"/>
		<path id="Vector" d="M45.49 103.51C45.07 104.02 44.27 104.05 43.7 103.57C43.13 103.1 43 102.31 43.42 101.81C43.84 101.3 44.64 101.27 45.21 101.74C45.78 102.22 45.91 103.01 45.49 103.51Z" fill="#DBDBDB" fill-opacity="1.000000" fill-rule="nonzero"/>
		<path id="Vector" d="M43.64 102.35C43.41 102.62 43.36 102.99 43.47 103.33C43.1 102.86 43.07 102.23 43.42 101.8C43.84 101.3 44.64 101.27 45.21 101.74C45.62 102.08 45.8 102.59 45.71 103.03C45.66 102.76 45.5 102.49 45.26 102.29C44.74 101.86 44.01 101.89 43.64 102.35Z" fill="#C7C7C7" fill-opacity="1.000000" fill-rule="nonzero"/>
		<path id="Vector" d="M46.02 102.66C46.17 102.95 46.2 103.31 46.09 103.64C46.04 103.81 45.93 103.96 45.82 104.09C45.7 104.22 45.55 104.32 45.39 104.4C45.23 104.47 45.05 104.51 44.87 104.51C44.7 104.51 44.53 104.49 44.37 104.44C44.05 104.35 43.75 104.18 43.52 103.95C43.82 104.07 44.12 104.17 44.42 104.22C44.72 104.26 45.01 104.24 45.27 104.13C45.39 104.07 45.52 103.99 45.62 103.89C45.72 103.8 45.81 103.68 45.88 103.55C46 103.29 46.05 102.98 46.02 102.66Z" fill="#C7C7C7" fill-opacity="1.000000" fill-rule="nonzero"/>
		<path id="Vector" d="M216.06 169.65L212.23 165.81C211.13 164.71 211.13 162.93 212.23 161.84C213.33 160.74 215.11 160.74 216.2 161.84L220.04 165.67C221.14 166.77 221.14 168.55 220.04 169.65C218.94 170.75 217.16 170.75 216.06 169.65Z" fill="#EBEBEB" fill-opacity="1.000000" fill-rule="nonzero"/>
		<path id="Vector" d="M163.68 207.66L161.25 202.81C160.55 201.43 161.11 199.74 162.5 199.04C163.89 198.34 165.58 198.9 166.27 200.29L168.71 205.14C169.4 206.53 168.85 208.22 167.46 208.91C166.07 209.61 164.38 209.05 163.68 207.66Z" fill="#EBEBEB" fill-opacity="1.000000" fill-rule="nonzero"/>
		<path id="Vector" d="M197.26 158.82L194.37 158.41C192.84 158.19 191.77 156.76 191.99 155.23C192.21 153.69 193.63 152.62 195.17 152.84L198.06 153.25C199.59 153.47 200.66 154.9 200.44 156.44C200.22 157.97 198.8 159.04 197.26 158.82Z" fill="#EBEBEB" fill-opacity="1.000000" fill-rule="nonzero"/>
		<path id="Vector" d="M220.15 196.87L220.56 193.99C220.78 192.45 222.2 191.38 223.74 191.6C225.28 191.82 226.35 193.25 226.12 194.79L225.71 197.67C225.49 199.21 224.07 200.28 222.53 200.06C220.99 199.84 219.93 198.41 220.15 196.87Z" fill="#EBEBEB" fill-opacity="1.000000" fill-rule="nonzero"/>
		<path id="Vector" d="M158.31 192.53L158.31 186.14C158.31 185.55 158.79 185.07 159.38 185.07L162.85 185.07C163.45 185.07 163.93 185.55 163.93 186.14L163.93 192.53C163.93 193.13 163.45 193.61 162.85 193.61L159.38 193.61C158.79 193.61 158.31 193.13 158.31 192.53Z" fill="#EBEBEB" fill-opacity="1.000000" fill-rule="nonzero"/>
		<path id="Vector" d="M202.48 221.31L199.67 222.07C198.17 222.47 196.62 221.58 196.22 220.08C195.82 218.58 196.71 217.04 198.21 216.64L201.02 215.88C202.52 215.48 204.07 216.37 204.47 217.87C204.87 219.37 203.98 220.91 202.48 221.31Z" fill="#EBEBEB" fill-opacity="1.000000" fill-rule="nonzero"/>
		<path id="Vector" d="M160.3 188.12C160.3 206.04 174.82 220.56 192.74 220.56C210.65 220.56 225.18 206.04 225.18 188.12C225.18 170.21 210.65 155.68 192.74 155.68C174.82 155.68 160.3 170.21 160.3 188.12Z" fill="#EBEBEB" fill-opacity="1.000000" fill-rule="evenodd"/>
		<path id="Vector" d="M180.93 168.88C180.82 170.39 181.29 171.96 182.13 173.28C182.98 174.62 184.24 175.69 185.66 176.4C187.11 177.09 188.88 177.33 190.42 176.8C191.96 176.31 193.25 175.29 194.05 174.01C192.83 174.88 191.5 175.5 190.16 175.73C189.49 175.84 188.82 175.85 188.17 175.73C187.52 175.65 186.89 175.4 186.28 175.12C185.98 174.97 185.67 174.81 185.37 174.63C185.09 174.44 184.79 174.26 184.53 174.04C183.96 173.65 183.49 173.14 183.02 172.63C182.12 171.57 181.4 170.3 180.93 168.88Z" fill="#C7C7C7" fill-opacity="1.000000" fill-rule="nonzero"/>
		<path id="Vector" d="M192.6 170.74C192.77 169.7 192.49 168.59 191.92 167.64C191.35 166.69 190.48 165.91 189.48 165.42C188.46 164.92 187.17 164.78 186.1 165.18C185.02 165.55 184.15 166.31 183.67 167.25C184.57 166.72 185.48 166.36 186.36 166.25C187.24 166.13 188.07 166.33 188.86 166.69C190.49 167.48 191.77 168.83 192.6 170.74Z" fill="#C7C7C7" fill-opacity="1.000000" fill-rule="nonzero"/>
		<path id="Vector" d="M203.59 193.03C203.17 193.97 203.17 195.09 203.5 196.12C203.84 197.14 204.5 198.09 205.38 198.74C206.26 199.44 207.47 199.78 208.57 199.6C209.66 199.44 210.64 198.9 211.29 198.11C210.32 198.4 209.38 198.56 208.52 198.5C207.65 198.44 206.9 198.12 206.24 197.62C205.54 197.1 204.96 196.44 204.51 195.68C204.07 194.91 203.76 194.03 203.59 193.03Z" fill="#C7C7C7" fill-opacity="1.000000" fill-rule="nonzero"/>
		<path id="Vector" d="M210.3 196.71C210.68 196.07 210.72 195.27 210.52 194.53C210.31 193.79 209.84 193.1 209.22 192.64C208.58 192.13 207.68 191.89 206.9 192.05C206.12 192.2 205.45 192.63 205.06 193.25C205.77 193.13 206.4 193.08 206.95 193.16C207.5 193.24 207.94 193.45 208.36 193.76C209.24 194.44 209.88 195.33 210.3 196.71Z" fill="#C7C7C7" fill-opacity="1.000000" fill-rule="nonzero"/>
		<path id="Vector" d="M215.22 185.81C214.65 186.31 214.32 187.07 214.29 187.89C214.27 188.72 214.6 189.57 215.21 190.18C215.83 190.85 216.8 191.1 217.59 190.99C218.39 190.9 219.1 190.56 219.63 190.02C218.88 190.01 218.2 190.01 217.61 189.88C217.02 189.76 216.56 189.54 216.22 189.18C215.85 188.81 215.56 188.33 215.4 187.77C215.23 187.21 215.19 186.55 215.22 185.81Z" fill="#C7C7C7" fill-opacity="1.000000" fill-rule="nonzero"/>
		<path id="Vector" d="M219.24 188.96C219.71 188.65 219.99 188.12 220.04 187.52C220.09 186.91 219.86 186.28 219.4 185.82C218.93 185.32 218.19 185.14 217.63 185.25C217.05 185.35 216.56 185.63 216.24 186.09C216.78 186.18 217.23 186.24 217.6 186.36C217.98 186.48 218.21 186.62 218.4 186.82C218.61 187.03 218.8 187.3 218.94 187.63C219.09 187.98 219.17 188.41 219.24 188.96Z" fill="#C7C7C7" fill-opacity="1.000000" fill-rule="nonzero"/>
		<path id="Vector" d="M170.77 176.2C170.68 176.95 170.93 177.74 171.46 178.37C171.99 179 172.81 179.42 173.67 179.47C174.57 179.56 175.47 179.1 175.98 178.5C176.52 177.9 176.82 177.18 176.86 176.42C176.3 176.91 175.79 177.35 175.26 177.65C174.74 177.96 174.25 178.1 173.76 178.06C173.24 178.03 172.7 177.86 172.21 177.55C171.7 177.24 171.24 176.78 170.77 176.2Z" fill="#C7C7C7" fill-opacity="1.000000" fill-rule="nonzero"/>
		<path id="Vector" d="M175.86 175.88C176.02 175.34 175.87 174.76 175.51 174.27C175.14 173.79 174.54 173.47 173.9 173.43C173.22 173.36 172.55 173.72 172.2 174.18C171.83 174.64 171.66 175.17 171.72 175.73C172.18 175.44 172.56 175.18 172.92 175.03C173.27 174.86 173.54 174.82 173.81 174.84C174.12 174.86 174.43 174.93 174.76 175.09C175.1 175.25 175.45 175.52 175.86 175.88Z" fill="#C7C7C7" fill-opacity="1.000000" fill-rule="nonzero"/>
		<path id="Vector" d="M188.95 198.24C185.35 199.84 181.11 198.21 179.5 194.58C177.88 190.96 179.49 186.72 183.1 185.11C186.7 183.5 190.94 185.14 192.55 188.76C194.17 192.39 192.56 196.63 188.95 198.24Z" fill="#DBDBDB" fill-opacity="1.000000" fill-rule="nonzero"/>
		<path id="Vector" d="M182.67 188.29C180.7 189.17 179.39 190.91 178.97 192.87C178.43 189.71 180.05 186.47 183.1 185.11C186.7 183.5 190.94 185.13 192.56 188.76C193.72 191.37 193.21 194.31 191.48 196.34C191.99 194.85 191.95 193.17 191.25 191.6C189.79 188.32 185.94 186.83 182.67 188.29Z" fill="#C7C7C7" fill-opacity="1.000000" fill-rule="nonzero"/>
		<path id="Vector" d="M176.11 192.88C176.04 194.74 176.65 196.63 177.7 198.24C178.75 199.86 180.29 201.15 182.02 202.01C183.78 202.85 185.92 203.16 187.8 202.54C189.67 201.97 191.27 200.75 192.31 199.22C190.85 200.34 189.21 201.15 187.53 201.46C187.12 201.55 186.69 201.56 186.27 201.59C185.86 201.57 185.43 201.59 185.03 201.49C184.2 201.4 183.41 201.09 182.64 200.74C182.26 200.55 181.87 200.34 181.51 200.12C181.15 199.88 180.78 199.66 180.45 199.38C179.75 198.88 179.16 198.24 178.59 197.59C177.48 196.25 176.62 194.65 176.11 192.88Z" fill="#C7C7C7" fill-opacity="1.000000" fill-rule="nonzero"/>
		<path id="Vector" d="M168.26 195.61C166.83 195.94 165.39 195.04 165.06 193.6C164.73 192.15 165.62 190.71 167.05 190.38C168.49 190.05 169.92 190.95 170.26 192.39C170.59 193.84 169.7 195.28 168.26 195.61Z" fill="#DBDBDB" fill-opacity="1.000000" fill-rule="nonzero"/>
		<path id="Vector" d="M166.67 191.52C165.89 191.7 165.28 192.24 164.99 192.93C165.02 191.74 165.84 190.66 167.05 190.38C168.49 190.05 169.92 190.95 170.26 192.39C170.5 193.43 170.1 194.47 169.32 195.09C169.61 194.58 169.72 193.96 169.58 193.34C169.27 192.03 167.97 191.22 166.67 191.52Z" fill="#C7C7C7" fill-opacity="1.000000" fill-rule="nonzero"/>
		<path id="Vector" d="M163.94 192.73C163.74 193.4 163.81 194.16 164.08 194.84C164.34 195.52 164.82 196.12 165.4 196.57C166 197.01 166.78 197.28 167.53 197.17C168.28 197.08 168.95 196.72 169.42 196.21C168.78 196.48 168.13 196.64 167.51 196.62C166.88 196.6 166.31 196.37 165.82 196C164.81 195.25 164.13 194.11 163.94 192.73Z" fill="#C7C7C7" fill-opacity="1.000000" fill-rule="nonzero"/>
		<path id="Vector" d="M186.66 212.97C184.57 213.08 182.79 211.47 182.68 209.37C182.56 207.27 184.16 205.47 186.26 205.36C188.34 205.25 190.13 206.86 190.24 208.96C190.35 211.06 188.75 212.86 186.66 212.97Z" fill="#DBDBDB" fill-opacity="1.000000" fill-rule="nonzero"/>
		<path id="Vector" d="M185.44 206.85C184.3 206.92 183.32 207.53 182.74 208.42C183.07 206.75 184.49 205.45 186.26 205.36C188.35 205.25 190.13 206.86 190.24 208.96C190.33 210.48 189.52 211.83 188.27 212.51C188.81 211.87 189.11 211.03 189.06 210.12C188.96 208.22 187.33 206.75 185.44 206.85Z" fill="#C7C7C7" fill-opacity="1.000000" fill-rule="nonzero"/>
		<path id="Vector" d="M181.32 207.88C180.95 208.79 180.88 209.84 181.11 210.83C181.32 211.83 181.84 212.76 182.53 213.51C183.24 214.26 184.23 214.81 185.28 214.86C186.31 214.94 187.32 214.63 188.14 214.09C187.21 214.38 186.24 214.47 185.35 214.31C184.45 214.16 183.66 213.68 183.05 213.02C182.42 212.36 181.94 211.56 181.64 210.69C181.35 209.81 181.22 208.85 181.32 207.88Z" fill="#C7C7C7" fill-opacity="1.000000" fill-rule="nonzero"/>
		<path id="Vector" d="M203.63 176.22C205.35 178.85 209.14 179.4 212.11 177.47C215.07 175.53 216.09 171.83 214.37 169.21C212.65 166.58 208.86 166.03 205.9 167.96C202.93 169.9 201.92 173.6 203.63 176.22Z" fill="#DBDBDB" fill-opacity="1.000000" fill-rule="nonzero"/>
		<path id="Vector" d="M213.07 171.66C214 173.09 214.04 174.88 213.34 176.45C215.32 174.41 215.82 171.43 214.37 169.2C212.66 166.58 208.86 166.02 205.9 167.96C203.76 169.36 202.63 171.67 202.82 173.83C203.22 172.56 204.1 171.37 205.37 170.53C208.06 168.78 211.51 169.28 213.07 171.66Z" fill="#C7C7C7" fill-opacity="1.000000" fill-rule="nonzero"/>
		<path id="Vector" d="M201.54 171.89C200.69 173.18 200.35 174.88 200.7 176.52C200.86 177.34 201.27 178.11 201.76 178.79C202.25 179.48 202.91 180.01 203.62 180.49C204.37 180.9 205.18 181.21 206.01 181.31C206.84 181.39 207.67 181.4 208.46 181.24C210.04 180.95 211.52 180.31 212.75 179.37C211.26 179.78 209.79 180.08 208.34 180.14C206.9 180.2 205.49 179.96 204.34 179.28C203.79 178.92 203.23 178.49 202.81 177.96C202.35 177.45 202 176.86 201.76 176.21C201.29 174.91 201.23 173.4 201.54 171.89Z" fill="#C7C7C7" fill-opacity="1.000000" fill-rule="nonzero"/>
		<path id="Vector" d="M56.39 169.25L53.65 169.76L53.04 172.65L52.42 169.76L49.68 169.25L52.41 168.58L53.04 165.85L53.66 168.58L56.39 169.25Z" fill="#C7C7C7" fill-opacity="1.000000" fill-rule="nonzero"/>
		<path id="Vector" d="M169.58 153.64L166.84 154.14L166.23 157.03L165.61 154.14L162.87 153.63L165.6 152.97L166.23 150.24L166.85 152.97L169.58 153.64Z" fill="#C7C7C7" fill-opacity="1.000000" fill-rule="nonzero"/>
		<path id="Vector" d="M84.41 122.72L81.67 123.23L81.06 126.12L80.45 123.23L77.7 122.72L80.43 122.05L81.06 119.32L81.68 122.05L84.41 122.72Z" fill="#C7C7C7" fill-opacity="1.000000" fill-rule="nonzero"/>
		<path id="Vector" d="M30.32 152.23L28.78 152.51L28.44 154.13L28.1 152.51L26.57 152.23L28.09 151.85L28.44 150.33L28.79 151.85L30.32 152.23Z" fill="#C7C7C7" fill-opacity="1.000000" fill-rule="nonzero"/>
		<path id="Vector" d="M146.67 213.73L145.14 214.01L144.8 215.63L144.45 214.01L142.92 213.73L144.45 213.36L144.8 211.83L145.14 213.36L146.67 213.73Z" fill="#C7C7C7" fill-opacity="1.000000" fill-rule="nonzero"/>
		<path id="Vector" d="M34.07 79.47L32.54 79.75L32.19 81.37L31.85 79.75L30.32 79.47L31.84 79.09L32.19 77.57L32.54 79.09L34.07 79.47Z" fill="#C7C7C7" fill-opacity="1.000000" fill-rule="nonzero"/>
		<path id="Vector" d="M214.94 114.24L213.4 114.52L213.06 116.14L212.72 114.52L211.18 114.23L212.71 113.86L213.06 112.33L213.41 113.86L214.94 114.24Z" fill="#C7C7C7" fill-opacity="1.000000" fill-rule="nonzero"/>
		<path id="Vector" d="M206.71 196.5L205.18 196.79L204.84 198.4L204.49 196.79L202.96 196.5L204.49 196.13L204.84 194.6L205.18 196.13L206.71 196.5Z" fill="#C7C7C7" fill-opacity="1.000000" fill-rule="nonzero"/>
		<path id="Vector" d="M39.99 120.41L38.45 120.69L38.11 122.31L37.77 120.69L36.23 120.41L37.76 120.04L38.11 118.51L38.46 120.04L39.99 120.41Z" fill="#C7C7C7" fill-opacity="1.000000" fill-rule="nonzero"/>
		<path id="Vector" d="M104.66 172.65L103.13 172.93L102.78 174.55L102.44 172.93L100.91 172.65L102.43 172.27L102.78 170.75L103.13 172.27L104.66 172.65Z" fill="#C7C7C7" fill-opacity="1.000000" fill-rule="nonzero"/>
		<path id="Vector" d="M160.45 42.86L158.92 43.14L158.58 44.76L158.24 43.14L156.7 42.86L158.23 42.48L158.58 40.96L158.93 42.48L160.45 42.86Z" fill="#C7C7C7" fill-opacity="1.000000" fill-rule="nonzero"/>
		<path id="Vector" d="M100.43 166.78L98.9 167.06L98.56 168.68L98.21 167.06L96.68 166.78L98.21 166.4L98.56 164.88L98.9 166.4L100.43 166.78Z" fill="#C7C7C7" fill-opacity="1.000000" fill-rule="nonzero"/>
		<path id="Vector" d="M150.3 217.22C149.73 217.22 149.73 218.11 150.3 218.11C150.87 218.11 150.87 217.22 150.3 217.22Z" fill="#C7C7C7" fill-opacity="1.000000" fill-rule="nonzero"/>
		<path id="Vector" d="M71.01 133.86C70.44 133.86 70.44 134.75 71.01 134.75C71.59 134.75 71.59 133.86 71.01 133.86Z" fill="#C7C7C7" fill-opacity="1.000000" fill-rule="nonzero"/>
		<path id="Vector" d="M108.93 171.32C108.36 171.32 108.36 172.21 108.93 172.21C109.51 172.2 109.51 171.32 108.93 171.32Z" fill="#C7C7C7" fill-opacity="1.000000" fill-rule="nonzero"/>
		<path id="Vector" d="M174.86 213.89C174.29 213.89 174.29 214.78 174.86 214.78C175.43 214.78 175.43 213.89 174.86 213.89Z" fill="#C7C7C7" fill-opacity="1.000000" fill-rule="nonzero"/>
		<path id="Vector" d="M26.48 219.78C25.91 219.78 25.91 220.67 26.48 220.67C27.06 220.67 27.06 219.78 26.48 219.78Z" fill="#C7C7C7" fill-opacity="1.000000" fill-rule="nonzero"/>
		<path id="Vector" d="M49.87 139.69C49.3 139.69 49.29 140.58 49.87 140.58C50.44 140.58 50.44 139.69 49.87 139.69Z" fill="#C7C7C7" fill-opacity="1.000000" fill-rule="nonzero"/>
		<path id="Vector" d="M139.17 209.23C138.76 209.23 138.76 209.86 139.17 209.86C139.57 209.86 139.57 209.23 139.17 209.23Z" fill="#C7C7C7" fill-opacity="1.000000" fill-rule="nonzero"/>
		<path id="Vector" d="M201.95 45.97C201.55 45.97 201.55 46.6 201.95 46.6C202.36 46.6 202.36 45.97 201.95 45.97Z" fill="#C7C7C7" fill-opacity="1.000000" fill-rule="nonzero"/>
		<path id="Vector" d="M80.69 147.03C80.28 147.03 80.28 147.66 80.69 147.66C81.09 147.66 81.09 147.03 80.69 147.03Z" fill="#C7C7C7" fill-opacity="1.000000" fill-rule="nonzero"/>
		<path id="Vector" d="M95.88 174.23C95.48 174.23 95.47 174.86 95.88 174.86C96.28 174.86 96.28 174.23 95.88 174.23Z" fill="#C7C7C7" fill-opacity="1.000000" fill-rule="nonzero"/>
		<path id="Vector" d="M120.75 168.93C120.35 168.93 120.35 169.56 120.75 169.56C121.16 169.56 121.16 168.93 120.75 168.93Z" fill="#C7C7C7" fill-opacity="1.000000" fill-rule="nonzero"/>
		<path id="Vector" d="M91.35 141.32C90.25 141.32 90.25 143.02 91.35 143.02C92.44 143.02 92.45 141.32 91.35 141.32Z" fill="#C7C7C7" fill-opacity="1.000000" fill-rule="nonzero"/>
		<path id="Vector" d="M134.96 55.26L132.21 55.76L131.6 58.66L130.99 55.76L128.25 55.26L130.98 54.59L131.6 51.86L132.23 54.59L134.96 55.26Z" fill="#C7C7C7" fill-opacity="1.000000" fill-rule="nonzero"/>
		<path id="Vector" d="M124.51 30.22L122.97 30.51L122.63 32.12L122.29 30.51L120.75 30.22L122.28 29.85L122.63 28.32L122.98 29.85L124.51 30.22Z" fill="#C7C7C7" fill-opacity="1.000000" fill-rule="nonzero"/>
		<path id="Vector" d="M217.45 71.71C216.88 71.71 216.88 72.6 217.45 72.6C218.02 72.6 218.02 71.71 217.45 71.71Z" fill="#C7C7C7" fill-opacity="1.000000" fill-rule="nonzero"/>
		<path id="Vector" d="M210.47 189.58C209.9 189.58 209.9 190.47 210.47 190.47C211.04 190.47 211.04 189.58 210.47 189.58Z" fill="#C7C7C7" fill-opacity="1.000000" fill-rule="nonzero"/>
		<path id="Vector" d="M222.51 211.63C221.93 211.63 221.93 212.52 222.51 212.52C223.08 212.52 223.08 211.63 222.51 211.63Z" fill="#C7C7C7" fill-opacity="1.000000" fill-rule="nonzero"/>
		<path id="Vector" d="M199.75 108.97C199.17 108.97 199.17 109.86 199.75 109.86C200.32 109.86 200.32 108.97 199.75 108.97Z" fill="#C7C7C7" fill-opacity="1.000000" fill-rule="nonzero"/>
		<path id="Vector" d="M222.51 32.25C221.93 32.25 221.93 33.14 222.51 33.14C223.08 33.14 223.08 32.25 222.51 32.25Z" fill="#C7C7C7" fill-opacity="1.000000" fill-rule="nonzero"/>
		<path id="Vector" d="M182.16 168.4C181.75 168.4 181.75 169.03 182.16 169.03C182.56 169.03 182.56 168.4 182.16 168.4Z" fill="#C7C7C7" fill-opacity="1.000000" fill-rule="nonzero"/>
		<path id="Vector" d="M115.84 208.7C115.43 208.7 115.43 209.33 115.84 209.33C116.24 209.33 116.24 208.7 115.84 208.7Z" fill="#C7C7C7" fill-opacity="1.000000" fill-rule="nonzero"/>
		<path id="Vector" d="M69.14 64.85C68.74 64.85 68.74 65.48 69.14 65.48C69.55 65.48 69.55 64.85 69.14 64.85Z" fill="#C7C7C7" fill-opacity="1.000000" fill-rule="nonzero"/>
		<path id="Vector" d="M125.94 45.6C125.53 45.6 125.53 46.23 125.94 46.23C126.34 46.23 126.34 45.6 125.94 45.6Z" fill="#C7C7C7" fill-opacity="1.000000" fill-rule="nonzero"/>
		<path id="Vector" d="M144.8 157.22C143.7 157.22 143.7 158.93 144.8 158.93C145.89 158.93 145.89 157.22 144.8 157.22Z" fill="#C7C7C7" fill-opacity="1.000000" fill-rule="nonzero"/>
		<path id="Vector" d="M32.57 92.85C31.47 92.85 31.47 94.55 32.57 94.55C33.66 94.55 33.67 92.85 32.57 92.85Z" fill="#C7C7C7" fill-opacity="1.000000" fill-rule="nonzero"/>
		<path id="Vector" d="M206.93 167.54C205.83 167.54 205.83 169.25 206.93 169.25C208.02 169.25 208.03 167.54 206.93 167.54Z" fill="#C7C7C7" fill-opacity="1.000000" fill-rule="nonzero"/>
		<path id="Vector" d="M135.35 134.75L133.82 135.04L133.48 136.65L133.14 135.04L131.6 134.75L133.13 134.38L133.48 132.85L133.83 134.38L135.35 134.75Z" fill="#C7C7C7" fill-opacity="1.000000" fill-rule="nonzero"/>
		<path id="Vector" d="M102.78 212.08L101.25 212.36L100.91 213.98L100.56 212.36L99.03 212.08L100.56 211.7L100.91 210.18L101.26 211.7L102.78 212.08Z" fill="#C7C7C7" fill-opacity="1.000000" fill-rule="nonzero"/>
		<path id="Vector" d="M95.99 192.16C95.42 192.16 95.42 193.05 95.99 193.05C96.56 193.05 96.57 192.16 95.99 192.16Z" fill="#C7C7C7" fill-opacity="1.000000" fill-rule="nonzero"/>
		<path id="Vector" d="M78.67 180.34C78.1 180.34 78.1 181.23 78.67 181.23C79.24 181.23 79.24 180.34 78.67 180.34Z" fill="#C7C7C7" fill-opacity="1.000000" fill-rule="nonzero"/>
		<path id="Vector" d="M133.48 200.75L131.94 201.04L131.6 202.65L131.26 201.04L129.73 200.75L131.25 200.38L131.6 198.85L131.95 200.38L133.48 200.75Z" fill="#C7C7C7" fill-opacity="1.000000" fill-rule="nonzero"/>
		<path id="Vector" d="M70.36 57.61C69.79 57.61 69.79 58.49 70.36 58.49C70.93 58.49 70.93 57.61 70.36 57.61Z" fill="#C7C7C7" fill-opacity="1.000000" fill-rule="nonzero"/>
		<path id="Vector" d="M59.67 181.74C59.26 181.74 59.26 182.37 59.67 182.37C60.08 182.37 60.08 181.74 59.67 181.74Z" fill="#C7C7C7" fill-opacity="1.000000" fill-rule="nonzero"/>
		<path id="Vector" d="M193.46 128.29L191.93 128.57L191.58 130.19L191.24 128.57L189.71 128.29L191.23 127.92L191.58 126.39L191.93 127.92L193.46 128.29Z" fill="#C7C7C7" fill-opacity="1.000000" fill-rule="nonzero"/>
		<path id="Vector" d="M211.18 152.75C210.61 152.75 210.61 153.64 211.18 153.64C211.76 153.64 211.76 152.75 211.18 152.75Z" fill="#C7C7C7" fill-opacity="1.000000" fill-rule="nonzero"/>
		<path id="Vector" d="M149.87 120.01C149.3 120.01 149.3 120.9 149.87 120.9C150.44 120.9 150.44 120.01 149.87 120.01Z" fill="#C7C7C7" fill-opacity="1.000000" fill-rule="nonzero"/>
		<path id="Vector" d="M201.95 75.11C201.55 75.11 201.55 75.74 201.95 75.74C202.36 75.74 202.36 75.11 201.95 75.11Z" fill="#C7C7C7" fill-opacity="1.000000" fill-rule="nonzero"/>
		<path id="Vector" d="M205.98 72.22C204.88 72.22 204.88 73.92 205.98 73.92C207.08 73.92 207.08 72.22 205.98 72.22Z" fill="#C7C7C7" fill-opacity="1.000000" fill-rule="nonzero"/>
		<path id="Vector" d="M31.75 34.6C30.65 34.6 30.65 36.31 31.75 36.31C32.84 36.31 32.84 34.6 31.75 34.6Z" fill="#C7C7C7" fill-opacity="1.000000" fill-rule="nonzero"/>
		<path id="XMLID_309_" d="M52.46 183.46C46.31 189.98 46.61 200.26 53.13 206.41C59.65 212.56 69.92 212.26 76.07 205.74C82.22 199.22 81.92 188.95 75.41 182.8C68.89 176.65 58.61 176.94 52.46 183.46Z" fill="#455A64" fill-opacity="1.000000" fill-rule="evenodd"/>
		<path id="Vector" d="M79.37 200.56C78.63 199.8 77.13 198.39 74.57 197.01C71.48 195.34 62.88 193.09 59.01 190.72C53.56 187.4 53.1 184.26 53.26 182.67C54.82 181.24 56.62 180.15 58.55 179.42C58.82 181.09 59.93 186.31 69.09 190.4C73.82 192.51 78.58 191.74 80.19 191.48C80.78 194.45 80.54 197.6 79.37 200.56Z" fill="#37474F" fill-opacity="1.000000" fill-rule="nonzero"/>
		<path id="Vector" d="M72.05 208.85C67.35 211.42 61.49 211.61 56.45 208.84C54.68 207.87 53.17 206.62 51.93 205.17C52.59 204.86 53.93 204.42 54.93 204.26C59.36 203.55 63.99 206.02 65.66 207.14C68.33 208.94 70.75 208.99 72.05 208.85Z" fill="#37474F" fill-opacity="1.000000" fill-rule="nonzero"/>
		<path id="Vector" d="M78.21 202.91C78.13 203.04 78.06 203.17 77.98 203.29C77.91 203.41 77.83 203.52 77.76 203.63C77.59 203.88 77.42 204.13 77.24 204.37C77.08 204.58 76.91 204.8 76.74 205C76.67 205.08 76.61 205.15 76.54 205.23C76.47 205.32 76.39 205.4 76.32 205.48C76.24 205.57 76.17 205.65 76.09 205.73C76 205.83 75.91 205.93 75.81 206.02C75.72 206.12 75.63 206.21 75.53 206.3C75.45 206.38 75.36 206.46 75.28 206.54C75.1 206.71 74.91 206.87 74.72 207.03L74.72 207.03C73.68 207.26 72.35 207.02 70.43 206.08C67.59 204.69 64.65 201.66 59.13 199.16C53.92 196.8 49.38 197.51 48.31 197.59L48.31 197.58C47.71 194.38 48.07 190.98 49.51 187.84C50.55 187.89 53.84 188.63 60.45 195.05C62.97 197.5 65.21 199.26 67.2 200.51C73 204.18 76.58 203.52 78.1 202.9L78.11 202.9C78.14 202.9 78.17 202.91 78.21 202.91Z" fill="#37474F" fill-opacity="1.000000" fill-rule="nonzero"/>
		<path id="XMLID_305_" d="M63.49 185.23C63.15 185.86 62.12 185.96 61.2 185.46C60.28 184.95 59.82 184.03 60.16 183.4C60.51 182.77 61.54 182.67 62.46 183.17C63.38 183.68 63.84 184.6 63.49 185.23Z" fill="#263238" fill-opacity="1.000000" fill-rule="nonzero"/>
		<path id="XMLID_304_" d="M58.81 185.96C58.62 186.32 58.01 186.36 57.46 186.06C56.91 185.76 56.62 185.22 56.82 184.87C57.01 184.51 57.62 184.47 58.17 184.77C58.72 185.07 59.01 185.61 58.81 185.96Z" fill="#263238" fill-opacity="1.000000" fill-rule="nonzero"/>
		<path id="XMLID_303_" d="M69.54 206.96C69.24 207.5 68.35 207.57 67.55 207.13C66.74 206.69 66.33 205.9 66.63 205.36C66.92 204.82 67.82 204.74 68.62 205.18C69.42 205.62 69.84 206.42 69.54 206.96Z" fill="#263238" fill-opacity="1.000000" fill-rule="nonzero"/>
		<path id="XMLID_302_" d="M66.51 207.24C66.35 207.53 65.92 207.59 65.54 207.39C65.16 207.18 64.98 206.78 65.14 206.49C65.3 206.2 65.73 206.14 66.11 206.35C66.49 206.55 66.67 206.96 66.51 207.24Z" fill="#263238" fill-opacity="1.000000" fill-rule="nonzero"/>
		<path id="XMLID_301_" d="M66.17 205.7C66.07 205.87 65.8 205.9 65.56 205.77C65.32 205.64 65.2 205.39 65.29 205.22C65.39 205.05 65.66 205.02 65.9 205.15C66.14 205.28 66.26 205.53 66.17 205.7Z" fill="#263238" fill-opacity="1.000000" fill-rule="nonzero"/>
		<path id="XMLID_300_" d="M56.08 204.74C55.82 205.22 55.08 205.33 54.44 204.97C53.8 204.62 53.49 203.94 53.75 203.46C54.02 202.98 54.75 202.87 55.4 203.23C56.04 203.58 56.35 204.26 56.08 204.74Z" fill="#263238" fill-opacity="1.000000" fill-rule="nonzero"/>
		<path id="XMLID_299_" d="M56.68 202.57C56.53 202.85 56.15 202.93 55.84 202.76C55.53 202.59 55.4 202.23 55.55 201.96C55.71 201.68 56.08 201.6 56.39 201.77C56.7 201.94 56.83 202.3 56.68 202.57Z" fill="#263238" fill-opacity="1.000000" fill-rule="nonzero"/>
		<path id="Vector" d="M77.24 204.37C72.89 203.49 67.84 202.15 62.55 200.42C57.1 198.63 52.13 196.66 48.03 194.74C40.76 191.32 36.28 188.05 36.88 186.2C37.47 184.38 42.94 184.33 50.63 185.81C50.42 186.13 50.22 186.46 50.04 186.8C49.97 186.93 49.9 187.06 49.83 187.19C45.74 186.66 43.03 186.9 42.66 188.03C42.29 189.17 44.4 191 48.11 193.04C51.74 195.04 56.9 197.23 62.76 199.15C68.63 201.08 74.1 202.38 78.21 202.91C82.39 203.47 85.17 203.24 85.54 202.09C85.91 200.97 83.88 199.18 80.29 197.18C80.38 196.64 80.44 196.09 80.47 195.54C87.7 198.95 92.26 202.33 91.65 204.17C91.04 206.05 85.32 206 77.24 204.37Z" fill="#263238" fill-opacity="1.000000" fill-rule="nonzero"/>
		<path id="Vector" d="M76.32 205.48C71.92 204.55 67.04 203.25 61.97 201.62L61.96 201.62C56.91 199.99 52.22 198.2 48.13 196.39C38.03 191.93 31.58 187.34 32.42 184.72C33.26 182.13 41.02 182.16 51.66 184.37C51.51 184.57 51.35 184.77 51.2 184.97C42.27 183.26 35.87 183.35 35.14 185.6C34.41 187.87 39.66 191.75 48.06 195.62C52.13 197.49 56.93 199.36 62.15 201.05C67.4 202.74 72.42 204.03 76.83 204.89C85.87 206.64 92.36 206.56 93.09 204.3C93.81 202.06 88.7 198.25 80.5 194.43C80.49 194.18 80.49 193.93 80.47 193.67C90.36 198.08 96.64 202.59 95.81 205.18C94.97 207.79 87.08 207.74 76.32 205.48Z" fill="#37474F" fill-opacity="1.000000" fill-rule="nonzero"/>
		<path id="XMLID_10_" d="M125.51 106.14C123.8 111.14 126.47 116.59 131.48 118.3C136.49 120.01 141.93 117.33 143.64 112.33C145.35 107.32 142.68 101.88 137.67 100.17C132.66 98.46 127.22 101.13 125.51 106.14Z" fill="#EBEBEB" fill-opacity="1.000000" fill-rule="evenodd"/>
		<path id="Vector" d="M125.41 112.01C125.88 111.6 126.83 110.84 128.4 110.15C130.3 109.31 135.46 108.39 137.85 107.19C141.21 105.49 141.63 103.67 141.61 102.72C140.77 101.81 139.76 101.08 138.66 100.56C138.42 101.53 137.52 104.55 131.94 106.52C129.05 107.53 126.3 106.86 125.36 106.63C124.87 108.35 124.86 110.21 125.41 112.01Z" fill="#DBDBDB" fill-opacity="1.000000" fill-rule="nonzero"/>
		<path id="Vector" d="M129.32 117.23C131.96 118.96 135.4 119.35 138.5 117.96C139.58 117.48 140.53 116.81 141.33 116.02C140.96 115.81 140.19 115.48 139.61 115.34C137.04 114.71 134.2 115.95 133.17 116.53C131.51 117.46 130.08 117.38 129.32 117.23Z" fill="#DBDBDB" fill-opacity="1.000000" fill-rule="nonzero"/>
		<path id="Vector" d="M125.98 113.45C126.02 113.53 126.06 113.6 126.1 113.68C126.13 113.75 126.17 113.82 126.21 113.89C126.3 114.05 126.39 114.2 126.48 114.35C126.57 114.48 126.66 114.62 126.75 114.75C126.78 114.79 126.82 114.84 126.85 114.89C126.89 114.94 126.93 115 126.97 115.05C127.01 115.1 127.05 115.15 127.09 115.21C127.14 115.27 127.19 115.33 127.24 115.39C127.29 115.45 127.35 115.51 127.4 115.57C127.44 115.62 127.49 115.67 127.53 115.72C127.63 115.83 127.73 115.93 127.84 116.03L127.84 116.03C128.43 116.22 129.23 116.14 130.4 115.68C132.14 114.99 134.02 113.35 137.38 112.14C140.56 111 143.19 111.63 143.82 111.73L143.82 111.73C144.33 109.87 144.28 107.86 143.58 105.94C142.96 105.92 140.99 106.2 136.8 109.66C135.2 110.98 133.8 111.91 132.57 112.56C128.98 114.44 126.91 113.88 126.04 113.44L126.04 113.44C126.02 113.44 126 113.45 125.98 113.45Z" fill="#DBDBDB" fill-opacity="1.000000" fill-rule="nonzero"/>
		<path id="XMLID_9_" d="M135.08 117.05C134.91 116.66 134.32 116.55 133.75 116.79C133.18 117.04 132.86 117.56 133.03 117.95C133.2 118.34 133.8 118.45 134.36 118.21C134.93 117.96 135.25 117.44 135.08 117.05Z" fill="#C7C7C7" fill-opacity="1.000000" fill-rule="nonzero"/>
		<path id="XMLID_8_" d="M132.37 116.37C132.28 116.15 131.92 116.09 131.58 116.24C131.24 116.39 131.04 116.69 131.14 116.91C131.24 117.13 131.59 117.19 131.93 117.04C132.27 116.89 132.47 116.59 132.37 116.37Z" fill="#C7C7C7" fill-opacity="1.000000" fill-rule="nonzero"/>
		<path id="XMLID_7_" d="M139.8 104.61C139.66 104.27 139.14 104.18 138.64 104.4C138.14 104.61 137.86 105.06 138 105.39C138.15 105.72 138.67 105.82 139.17 105.6C139.66 105.39 139.95 104.94 139.8 104.61Z" fill="#C7C7C7" fill-opacity="1.000000" fill-rule="nonzero"/>
		<path id="XMLID_6_" d="M138.04 104.28C137.96 104.1 137.71 104.04 137.47 104.14C137.24 104.24 137.11 104.47 137.19 104.65C137.27 104.82 137.52 104.88 137.75 104.78C137.99 104.68 138.11 104.45 138.04 104.28Z" fill="#C7C7C7" fill-opacity="1.000000" fill-rule="nonzero"/>
		<path id="XMLID_3_" d="M137.75 105.16C137.71 105.06 137.55 105.02 137.4 105.09C137.25 105.15 137.17 105.29 137.21 105.4C137.26 105.51 137.42 105.54 137.57 105.47C137.72 105.41 137.8 105.27 137.75 105.16Z" fill="#C7C7C7" fill-opacity="1.000000" fill-rule="nonzero"/>
		<path id="XMLID_2_" d="M131.77 105.19C131.64 104.89 131.22 104.79 130.82 104.96C130.42 105.14 130.21 105.52 130.34 105.82C130.47 106.11 130.89 106.21 131.29 106.04C131.69 105.87 131.9 105.49 131.77 105.19Z" fill="#C7C7C7" fill-opacity="1.000000" fill-rule="nonzero"/>
		<path id="XMLID_1_" d="M132.01 106.49C131.93 106.32 131.72 106.25 131.53 106.34C131.34 106.42 131.24 106.63 131.31 106.8C131.39 106.97 131.6 107.04 131.79 106.95C131.99 106.87 132.08 106.66 132.01 106.49Z" fill="#C7C7C7" fill-opacity="1.000000" fill-rule="nonzero"/>
		<path id="XMLID_18_" d="M192.92 39.08C190.95 43.99 193.34 49.56 198.25 51.53C203.16 53.5 208.73 51.11 210.7 46.2C212.67 41.29 210.28 35.71 205.37 33.74C200.46 31.78 194.88 34.17 192.92 39.08Z" fill="#FFC727" fill-opacity="1.000000" fill-rule="evenodd"/>
		<g opacity="0.100000">
			<path id="XMLID_19_" d="M192.92 39.08C190.95 43.99 193.34 49.56 198.25 51.53C203.16 53.5 208.73 51.11 210.7 46.2C212.67 41.29 210.28 35.71 205.37 33.74C200.46 31.78 194.88 34.17 192.92 39.08Z" fill="#000000" fill-opacity="1.000000" fill-rule="evenodd"/>
		</g>
		<g opacity="0.100000">
			<path id="Vector" d="M192.65 45.42C193.11 45.01 194.07 44.25 195.63 43.56C197.53 42.72 202.7 41.81 205.09 40.6C208.45 38.91 208.87 37.08 208.85 36.14C208 35.22 207 34.49 205.89 33.97C205.65 34.94 204.75 37.96 199.17 39.93C196.29 40.95 193.53 40.27 192.6 40.04C192.1 41.76 192.1 43.63 192.65 45.42Z" fill="#000000" fill-opacity="1.000000" fill-rule="nonzero"/>
			<path id="Vector" d="M196.56 50.65C199.2 52.38 202.64 52.77 205.73 51.38C206.82 50.89 207.77 50.23 208.56 49.44C208.19 49.22 207.43 48.89 206.85 48.75C204.27 48.13 201.43 49.36 200.4 49.94C198.74 50.87 197.32 50.79 196.56 50.65Z" fill="#000000" fill-opacity="1.000000" fill-rule="nonzero"/>
			<path id="Vector" d="M193.22 46.86C193.25 46.94 193.29 47.02 193.33 47.09C193.37 47.16 193.41 47.23 193.44 47.3C193.53 47.46 193.62 47.61 193.72 47.76C193.8 47.9 193.89 48.03 193.98 48.16C194.02 48.21 194.05 48.25 194.09 48.3C194.13 48.36 194.17 48.41 194.2 48.46C194.25 48.52 194.29 48.57 194.33 48.62C194.38 48.68 194.43 48.74 194.48 48.8C194.53 48.86 194.58 48.92 194.63 48.98C194.68 49.03 194.72 49.08 194.77 49.13C194.86 49.24 194.97 49.34 195.07 49.45L195.07 49.45C195.67 49.63 196.47 49.55 197.64 49.09C199.38 48.41 201.25 46.77 204.61 45.56C207.79 44.42 210.43 45.05 211.06 45.14L211.06 45.14C211.56 43.29 211.51 41.27 210.81 39.36C210.2 39.33 208.23 39.61 204.03 43.08C202.44 44.4 201.03 45.33 199.81 45.97C196.22 47.85 194.14 47.29 193.28 46.86L193.28 46.86C193.26 46.86 193.24 46.86 193.22 46.86Z" fill="#000000" fill-opacity="1.000000" fill-rule="nonzero"/>
		</g>
		<g opacity="0.100000">
			<path id="XMLID_17_" d="M202.32 50.47C202.15 50.08 201.55 49.96 200.98 50.21C200.42 50.45 200.09 50.97 200.26 51.36C200.43 51.75 201.03 51.87 201.6 51.62C202.17 51.37 202.49 50.86 202.32 50.47Z" fill="#000000" fill-opacity="1.000000" fill-rule="nonzero"/>
			<path id="XMLID_16_" d="M199.61 49.78C199.51 49.56 199.16 49.51 198.82 49.65C198.48 49.8 198.28 50.1 198.37 50.32C198.47 50.54 198.82 50.6 199.16 50.45C199.5 50.3 199.7 50 199.61 49.78Z" fill="#000000" fill-opacity="1.000000" fill-rule="nonzero"/>
			<path id="XMLID_15_" d="M207.04 38.02C206.89 37.69 206.37 37.59 205.87 37.81C205.38 38.03 205.09 38.47 205.24 38.8C205.38 39.14 205.9 39.23 206.4 39.02C206.9 38.8 207.18 38.35 207.04 38.02Z" fill="#000000" fill-opacity="1.000000" fill-rule="nonzero"/>
			<path id="XMLID_14_" d="M205.27 37.69C205.19 37.51 204.94 37.45 204.71 37.55C204.47 37.66 204.35 37.88 204.42 38.06C204.5 38.24 204.75 38.3 204.99 38.2C205.22 38.09 205.35 37.87 205.27 37.69Z" fill="#000000" fill-opacity="1.000000" fill-rule="nonzero"/>
			<path id="XMLID_13_" d="M204.99 38.58C204.94 38.47 204.78 38.44 204.63 38.5C204.48 38.57 204.4 38.71 204.45 38.81C204.49 38.92 204.65 38.95 204.8 38.89C204.95 38.82 205.03 38.68 204.99 38.58Z" fill="#000000" fill-opacity="1.000000" fill-rule="nonzero"/>
			<path id="XMLID_12_" d="M199.01 38.6C198.88 38.3 198.45 38.2 198.05 38.38C197.66 38.55 197.44 38.93 197.57 39.23C197.7 39.53 198.13 39.63 198.52 39.46C198.92 39.28 199.14 38.9 199.01 38.6Z" fill="#000000" fill-opacity="1.000000" fill-rule="nonzero"/>
			<path id="XMLID_11_" d="M199.24 39.91C199.17 39.74 198.95 39.67 198.76 39.75C198.57 39.83 198.47 40.04 198.55 40.21C198.62 40.38 198.84 40.45 199.03 40.37C199.22 40.28 199.32 40.08 199.24 39.91Z" fill="#000000" fill-opacity="1.000000" fill-rule="nonzero"/>
		</g>
		<path id="Vector" d="M132.64 61.17C133 60.75 153.48 51.24 172.04 65.4C189.1 78.42 195.02 102.89 192.75 103.47C189.98 104.19 182.38 92.51 167.79 86.1C162.62 83.82 154.38 86.1 154.38 86.1L132.64 61.17Z" fill="#FFC727" fill-opacity="1.000000" fill-rule="nonzero"/>
		<g opacity="0.100000">
			<path id="Vector" d="M154.38 86.1C154.38 86.1 157.95 85.11 161.87 85.09C158.65 78.36 152.64 65.79 148.75 57.66C139.57 57.74 132.84 60.93 132.64 61.17L154.38 86.1Z" fill="#000000" fill-opacity="1.000000" fill-rule="nonzero"/>
		</g>
		<path id="Vector" d="M98.89 100.97C98.54 101.39 92.51 123.16 109.52 139.15C125.15 153.85 150.25 155.69 150.46 153.36C150.71 150.5 137.95 144.92 129.24 131.57C126.15 126.84 127.04 118.35 127.04 118.35L98.89 100.97Z" fill="#FFC727" fill-opacity="1.000000" fill-rule="nonzero"/>
		<g opacity="0.100000">
			<path id="Vector" d="M98.08 117.55C106.82 120.09 120.21 123.99 127.29 126.05C126.64 122.13 127.04 118.35 127.04 118.35L98.89 100.97C98.69 101.21 96.63 108.43 98.08 117.55Z" fill="#000000" fill-opacity="1.000000" fill-rule="nonzero"/>
		</g>
		<path id="Vector" d="M146.59 127.58L166.6 103.98C166.6 103.98 156.17 76 131.36 57.2C118.97 47.83 104.44 40.81 91.44 36.17C73.49 29.73 58.46 27.87 56.14 30.61C53.8 33.37 58.11 47.87 67.38 64.54C74.1 76.6 83.4 89.78 94.68 100.47C117.28 121.87 146.59 127.58 146.59 127.58Z" fill="#C7C7C7" fill-opacity="1.000000" fill-rule="nonzero"/>
		<path id="Vector" d="M97.98 90.37C105.5 96.74 116.76 95.81 123.13 88.3C129.5 80.78 128.58 69.52 121.06 63.15C113.54 56.77 102.28 57.7 95.91 65.22C89.54 72.73 90.47 83.99 97.98 90.37Z" fill="#A6A6A6" fill-opacity="1.000000" fill-rule="nonzero"/>
		<path id="Vector" d="M97.01 88.71C104.52 95.08 115.78 94.15 122.16 86.64C128.53 79.12 127.6 67.86 120.09 61.49C112.57 55.12 101.31 56.04 94.94 63.56C88.56 71.08 89.49 82.33 97.01 88.71Z" fill="#FFC727" fill-opacity="1.000000" fill-rule="nonzero"/>
		<path id="Vector" d="M100.54 84.53C105.75 88.96 113.56 88.32 117.98 83.11C122.4 77.9 121.77 70.09 116.56 65.66C111.35 61.24 103.54 61.88 99.11 67.09C94.69 72.3 95.33 80.11 100.54 84.53Z" fill="#FFFFFF" fill-opacity="1.000000" fill-rule="nonzero"/>
		<path id="Vector" d="M100.53 84.53C101.74 85.55 103.09 86.31 104.49 86.8L114.43 85.98C115.75 85.28 116.95 84.31 117.97 83.11C118.72 82.23 119.31 81.28 119.77 80.29L98.3 82.04C98.92 82.95 99.66 83.79 100.53 84.53Z" fill="#EBEBEB" fill-opacity="1.000000" fill-rule="nonzero"/>
		<path id="Vector" d="M98.04 68.56L117.85 66.94C117.46 66.49 117.03 66.06 116.56 65.67C111.34 61.24 103.54 61.88 99.11 67.09C98.71 67.56 98.35 68.05 98.04 68.56Z" fill="#EBEBEB" fill-opacity="1.000000" fill-rule="nonzero"/>
		<path id="Vector" d="M96.97 79.47L120.67 77.54C120.75 77.18 120.81 76.82 120.84 76.44L96.62 78.42C96.72 78.77 96.84 79.12 96.97 79.47Z" fill="#EBEBEB" fill-opacity="1.000000" fill-rule="nonzero"/>
		<path id="Vector" d="M67.38 64.54L91.44 36.17C73.49 29.73 58.46 27.87 56.14 30.61C53.8 33.37 58.11 47.87 67.38 64.54Z" fill="#FFC727" fill-opacity="1.000000" fill-rule="nonzero"/>
		<path id="Vector" d="M84.37 38.57C84.8 38.94 85.46 38.88 85.83 38.45C86.21 38.01 86.15 37.35 85.71 36.98C85.27 36.61 84.62 36.66 84.25 37.1C83.87 37.54 83.93 38.19 84.37 38.57Z" fill="#FFFFFF" fill-opacity="1.000000" fill-rule="nonzero"/>
		<path id="Vector" d="M80.09 43.61C80.52 43.99 81.18 43.93 81.56 43.49C81.93 43.05 81.87 42.4 81.43 42.02C81 41.65 80.34 41.71 79.97 42.15C79.59 42.58 79.65 43.24 80.09 43.61Z" fill="#FFFFFF" fill-opacity="1.000000" fill-rule="nonzero"/>
		<path id="Vector" d="M75.81 48.66C76.25 49.03 76.9 48.98 77.28 48.54C77.65 48.1 77.59 47.44 77.16 47.07C76.72 46.7 76.06 46.75 75.69 47.19C75.32 47.63 75.37 48.29 75.81 48.66Z" fill="#FFFFFF" fill-opacity="1.000000" fill-rule="nonzero"/>
		<path id="Vector" d="M71.53 53.71C71.97 54.08 72.62 54.03 73 53.59C73.37 53.15 73.31 52.49 72.88 52.12C72.44 51.75 71.78 51.8 71.41 52.24C71.03 52.68 71.09 53.34 71.53 53.71Z" fill="#FFFFFF" fill-opacity="1.000000" fill-rule="nonzero"/>
		<path id="Vector" d="M67.25 58.76C67.69 59.13 68.34 59.07 68.72 58.63C69.09 58.2 69.03 57.54 68.6 57.17C68.16 56.79 67.5 56.85 67.13 57.29C66.76 57.73 66.81 58.38 67.25 58.76Z" fill="#FFFFFF" fill-opacity="1.000000" fill-rule="nonzero"/>
		<path id="Vector" d="M160.83 103.43C161.27 103.8 161.92 103.75 162.3 103.31C162.67 102.87 162.61 102.21 162.17 101.84C161.74 101.47 161.08 101.52 160.71 101.96C160.33 102.4 160.39 103.06 160.83 103.43Z" fill="#A6A6A6" fill-opacity="1.000000" fill-rule="nonzero"/>
		<path id="Vector" d="M156.55 108.48C156.99 108.85 157.64 108.8 158.02 108.36C158.39 107.92 158.33 107.26 157.89 106.89C157.46 106.52 156.8 106.57 156.43 107.01C156.06 107.45 156.11 108.11 156.55 108.48Z" fill="#A6A6A6" fill-opacity="1.000000" fill-rule="nonzero"/>
		<path id="Vector" d="M152.27 113.53C152.71 113.9 153.36 113.84 153.74 113.4C154.11 112.97 154.05 112.31 153.62 111.94C153.18 111.56 152.52 111.62 152.15 112.06C151.78 112.5 151.83 113.15 152.27 113.53Z" fill="#A6A6A6" fill-opacity="1.000000" fill-rule="nonzero"/>
		<path id="Vector" d="M147.99 118.57C148.43 118.94 149.09 118.89 149.46 118.45C149.83 118.01 149.77 117.36 149.34 116.98C148.9 116.61 148.24 116.67 147.87 117.1C147.5 117.54 147.55 118.2 147.99 118.57Z" fill="#A6A6A6" fill-opacity="1.000000" fill-rule="nonzero"/>
		<path id="Vector" d="M143.71 123.62C144.15 123.99 144.81 123.94 145.18 123.5C145.55 123.06 145.5 122.4 145.06 122.03C144.62 121.66 143.96 121.71 143.59 122.15C143.22 122.59 143.27 123.25 143.71 123.62Z" fill="#A6A6A6" fill-opacity="1.000000" fill-rule="nonzero"/>
		<g opacity="0.200000">
			<path id="Vector" d="M57.26 29.91C71.12 30.9 95.1 39.29 120.36 59.09C139.01 73.72 152.62 99.32 158.97 112.99L166.6 103.98C166.6 103.98 156.17 76 131.36 57.21C118.98 47.83 104.44 40.81 91.44 36.17C75.35 30.4 61.62 28.31 57.26 29.91Z" fill="#FFFFFF" fill-opacity="1.000000" fill-rule="nonzero"/>
		</g>
		<path id="Vector" d="M155.53 131.43L171.8 112.23L165.47 105.32L147.67 126.31L155.53 131.43Z" fill="#FFC727" fill-opacity="1.000000" fill-rule="nonzero"/>
		<g opacity="0.100000">
			<path id="Vector" d="M147.67 126.31L151.5 128.8L167.89 107.96L165.47 105.32L147.67 126.31Z" fill="#000000" fill-opacity="1.000000" fill-rule="nonzero"/>
		</g>
		<path id="Vector" d="M67.64 67.1L75.07 66.61L78.57 73.69L78.25 65.8L85.01 62.67L77.5 62.75L74.08 56.09L74.27 63.57L67.64 67.1Z" fill="#FCFCFC" fill-opacity="1.000000" fill-rule="nonzero"/>
		<path id="Vector" d="M69.47 39.64L73.62 39.37L75.58 43.32L75.4 38.91L79.18 37.17L74.98 37.21L73.07 33.49L73.17 37.67L69.47 39.64Z" fill="#FCFCFC" fill-opacity="1.000000" fill-rule="nonzero"/>
		<path id="Vector" d="M103.09 124.06L107.25 123.79L109.2 127.74L109.02 123.33L112.8 121.59L108.6 121.63L106.69 117.91L106.8 122.09L103.09 124.06Z" fill="#FCFCFC" fill-opacity="1.000000" fill-rule="nonzero"/>
		<path id="Vector" d="M177.05 87.33L181.21 87.06L183.16 91.01L182.99 86.61L186.77 84.86L182.57 84.9L180.66 81.18L180.76 85.36L177.05 87.33Z" fill="#FCFCFC" fill-opacity="1.000000" fill-rule="nonzero"/>
		<g opacity="0.600000">
			<path id="Vector" d="M159.11 127.14C166.65 132.23 173.31 138.72 178.17 146.47C183.03 154.19 186.05 163.19 186.33 172.49C186.45 177.13 185.89 181.83 184.63 186.38C183.38 190.93 181.43 195.34 178.87 199.42C176.33 203.51 173.18 207.28 169.61 210.65C166.03 214.03 162.04 217 157.8 219.61C162.31 217.51 166.68 215 170.72 211.98C174.77 208.97 178.5 205.45 181.7 201.43C184.91 197.42 187.59 192.92 189.56 188.06C191.53 183.21 192.79 178.02 193.27 172.73C194.2 162.12 191.96 151.22 187.32 141.5C182.69 131.75 175.74 123.16 167.55 116.12L159.11 127.14Z" fill="#FFC727" fill-opacity="1.000000" fill-rule="nonzero"/>
		</g>
		<path id="Vector" d="M172.01 138.71L174.97 139.26L175.64 142.39L176.3 139.26L179.27 138.71L176.31 137.99L175.64 135.03L174.96 137.99L172.01 138.71Z" fill="#FFFFFF" fill-opacity="1.000000" fill-rule="nonzero"/>
		<path id="Vector" d="M182.93 197.3L184.59 197.6L184.96 199.35L185.33 197.6L186.99 197.29L185.34 196.89L184.96 195.24L184.58 196.89L182.93 197.3Z" fill="#FFFFFF" fill-opacity="1.000000" fill-rule="nonzero"/>
		<path id="Vector" d="M183.82 182.12L185.48 182.43L185.85 184.17L186.22 182.43L187.88 182.12L186.23 181.71L185.85 180.06L185.47 181.71L183.82 182.12Z" fill="#FFFFFF" fill-opacity="1.000000" fill-rule="nonzero"/>
		<path id="Vector" d="M174.2 128.96L175.86 129.27L176.23 131.02L176.6 129.27L178.26 128.96L176.61 128.56L176.23 126.9L175.85 128.56L174.2 128.96Z" fill="#FFFFFF" fill-opacity="1.000000" fill-rule="nonzero"/>
		<path id="Vector" d="M179.01 201.08C179.62 201.08 179.62 202.04 179.01 202.04C178.39 202.04 178.39 201.08 179.01 201.08Z" fill="#FFFFFF" fill-opacity="1.000000" fill-rule="nonzero"/>
		<path id="Vector" d="M165.28 126.62C165.9 126.62 165.9 127.58 165.28 127.58C164.66 127.58 164.66 126.62 165.28 126.62Z" fill="#FFFFFF" fill-opacity="1.000000" fill-rule="nonzero"/>
		<path id="Vector" d="M191.17 169.5C191.79 169.5 191.79 170.46 191.17 170.46C190.55 170.46 190.55 169.5 191.17 169.5Z" fill="#FFFFFF" fill-opacity="1.000000" fill-rule="nonzero"/>
		<path id="Vector" d="M179.86 198.57C180.3 198.57 180.3 199.26 179.86 199.26C179.43 199.26 179.42 198.57 179.86 198.57Z" fill="#FFFFFF" fill-opacity="1.000000" fill-rule="nonzero"/>
		<path id="Vector" d="M191.35 152.7C191.78 152.7 191.78 153.38 191.35 153.38C190.91 153.38 190.91 152.7 191.35 152.7Z" fill="#FFFFFF" fill-opacity="1.000000" fill-rule="nonzero"/>
		<path id="Vector" d="M187.88 187.49C189.06 187.49 189.07 189.33 187.88 189.33C186.69 189.33 186.69 187.49 187.88 187.49Z" fill="#FFFFFF" fill-opacity="1.000000" fill-rule="nonzero"/>
		<path id="Vector" d="M186.99 149.57C188.17 149.57 188.18 151.41 186.99 151.41C185.8 151.41 185.8 149.57 186.99 149.57Z" fill="#FFFFFF" fill-opacity="1.000000" fill-rule="nonzero"/>
	</g>
</svg>
