<svg width="30.000000" height="25.627319" viewBox="0 0 30 25.6273" fill="none" xmlns="http://www.w3.org/2000/svg" xmlns:xlink="http://www.w3.org/1999/xlink">
	<desc>
			Created with Pixso.
	</desc>
	<defs/>
	<mask id="mask22_24914" mask-type="alpha" maskUnits="userSpaceOnUse" x="0.000000" y="0.000000" width="30.000000" height="25.627319">
		<path id="Vector" d="M0 0L30 0L30 25.62L0 25.62L0 0Z" fill="#000000" fill-opacity="1.000000" fill-rule="evenodd"/>
	</mask>
	<g mask="url(#mask22_24914)">
		<path id="Vector" d="M28.08 1.97C27.02 1.97 26.16 2.82 26.16 3.88C26.16 4.51 26.47 5.07 26.95 5.42L26.95 9.73C26.95 10.34 26.64 10.87 26.16 11.19L26.16 8.29C26.16 6.34 24.57 4.75 22.62 4.75L22.44 4.75L22.44 3.47C22.44 1.55 20.89 0 18.97 0L7.19 0C5.27 0 3.71 1.55 3.71 3.47L3.71 4.75L3.53 4.75C1.58 4.75 0 6.34 0 8.29L0 16.92C0 18.87 1.58 20.46 3.53 20.46L3.71 20.46L3.71 22.15C3.71 24.07 5.27 25.62 7.19 25.62L18.97 25.62C20.89 25.62 22.44 24.07 22.44 22.15L22.44 20.46L22.62 20.46C24.57 20.46 26.16 18.87 26.16 16.92L26.16 13.62C27.91 13.19 29.21 11.61 29.21 9.73L29.21 5.42C29.69 5.07 30 4.51 30 3.88C30 2.82 29.14 1.97 28.08 1.97ZM22.62 19L3.53 19C2.4 19 1.46 18.06 1.46 16.92L1.46 8.29C1.46 7.14 2.4 6.22 3.53 6.22L22.62 6.22C23.76 6.22 24.7 7.14 24.7 8.29L24.7 16.92C24.7 18.06 23.76 19 22.62 19Z" fill="#9ED927" fill-opacity="1.000000" fill-rule="nonzero"/>
		<path id="Vector" d="M12.1 11.24L12.85 9.65C12.85 9.65 12.91 9.57 12.94 9.54C12.99 9.52 13.03 9.5 13.08 9.5C13.12 9.5 13.18 9.51 13.21 9.54C13.26 9.56 13.29 9.61 13.3 9.65L14.06 11.24L15.74 11.5C15.95 11.54 16.04 11.82 15.88 11.97L14.67 13.21L14.95 14.96C14.98 15.19 14.76 15.36 14.57 15.25L13.07 14.43L11.57 15.25C11.38 15.36 11.15 15.19 11.19 14.96L11.47 13.21L10.25 11.97C10.09 11.82 10.18 11.54 10.4 11.5L12.08 11.24L12.1 11.24Z" fill="#9ED927" fill-opacity="1.000000" fill-rule="nonzero"/>
		<path id="Vector" d="M19.16 11.24L19.92 9.65C19.92 9.65 19.98 9.57 20.01 9.54C20.05 9.52 20.1 9.5 20.14 9.5C20.19 9.5 20.25 9.51 20.28 9.54C20.33 9.56 20.36 9.61 20.37 9.65L21.12 11.24L22.8 11.5C23.02 11.54 23.11 11.82 22.95 11.97L21.73 13.21L22.02 14.96C22.05 15.19 21.82 15.36 21.63 15.25L20.13 14.43L18.63 15.25C18.44 15.36 18.22 15.19 18.25 14.96L18.53 13.21L17.32 11.97C17.16 11.82 17.25 11.54 17.46 11.5L19.14 11.24L19.16 11.24Z" fill="#9ED927" fill-opacity="1.000000" fill-rule="nonzero"/>
		<path id="Vector" d="M5.03 11.24L5.79 9.65C5.79 9.65 5.84 9.57 5.88 9.54C5.92 9.52 5.97 9.5 6.01 9.5C6.06 9.5 6.11 9.51 6.15 9.54C6.19 9.56 6.23 9.61 6.24 9.65L6.99 11.24L8.67 11.5C8.89 11.54 8.98 11.82 8.82 11.97L7.6 13.21L7.88 14.96C7.92 15.19 7.69 15.36 7.5 15.25L6 14.43L4.5 15.25C4.31 15.36 4.09 15.19 4.12 14.96L4.4 13.21L3.18 11.97C3.03 11.82 3.12 11.54 3.33 11.5L5.01 11.24L5.03 11.24Z" fill="#9ED927" fill-opacity="1.000000" fill-rule="nonzero"/>
	</g>
</svg>
