<svg width="24.000000" height="24.000000" viewBox="0 0 24 24" fill="none" xmlns="http://www.w3.org/2000/svg" xmlns:xlink="http://www.w3.org/1999/xlink">
	<desc>
			Created with Pixso.
	</desc>
	<defs/>
	<path id="Vector" d="M17.72 2.81C17.64 2.48 17.34 2.25 17 2.25C16.65 2.25 16.35 2.48 16.27 2.81C16.04 3.73 15.71 4.34 15.28 4.78C14.84 5.21 14.23 5.54 13.31 5.77C12.98 5.85 12.75 6.15 12.75 6.5C12.75 6.84 12.98 7.14 13.31 7.22C14.23 7.45 14.84 7.78 15.28 8.21C15.71 8.65 16.04 9.26 16.27 10.18C16.35 10.51 16.65 10.75 17 10.75C17.34 10.75 17.64 10.51 17.72 10.18C17.95 9.26 18.28 8.65 18.71 8.21C19.15 7.78 19.76 7.45 20.68 7.22C21.01 7.14 21.25 6.84 21.25 6.5C21.25 6.15 21.01 5.85 20.68 5.77C19.76 5.54 19.15 5.21 18.71 4.78C18.28 4.34 17.95 3.73 17.72 2.81ZM10.72 6.81C10.64 6.48 10.34 6.25 10 6.25C9.65 6.25 9.35 6.48 9.27 6.81C8.83 8.59 8.18 9.84 7.26 10.76C6.34 11.68 5.08 12.32 3.31 12.77C2.98 12.85 2.75 13.15 2.75 13.5C2.75 13.84 2.98 14.14 3.31 14.22C5.08 14.67 6.34 15.31 7.26 16.23C8.18 17.15 8.83 18.4 9.27 20.18C9.35 20.51 9.65 20.75 10 20.75C10.34 20.75 10.64 20.51 10.72 20.18C11.16 18.4 11.81 17.15 12.73 16.23C13.65 15.31 14.91 14.67 16.68 14.22C17.01 14.14 17.25 13.84 17.25 13.5C17.25 13.15 17.01 12.85 16.68 12.77C14.91 12.32 13.65 11.68 12.73 10.76C11.81 9.84 11.16 8.59 10.72 6.81ZM15.75 16.75C16.09 16.75 16.39 16.98 16.47 17.31C16.58 17.73 16.71 17.97 16.87 18.12C17.02 18.28 17.26 18.41 17.68 18.52C18.01 18.6 18.25 18.9 18.25 19.25C18.25 19.59 18.01 19.89 17.68 19.97C17.26 20.08 17.02 20.21 16.87 20.37C16.71 20.52 16.58 20.76 16.47 21.18C16.39 21.51 16.09 21.75 15.75 21.75C15.4 21.75 15.1 21.51 15.02 21.18C14.91 20.76 14.78 20.52 14.62 20.37C14.47 20.21 14.23 20.08 13.81 19.97C13.48 19.89 13.25 19.59 13.25 19.25C13.25 18.9 13.48 18.6 13.81 18.52C14.23 18.41 14.47 18.28 14.62 18.12C14.78 17.97 14.91 17.73 15.02 17.31C15.1 16.98 15.4 16.75 15.75 16.75Z" fill="#9ED927" fill-opacity="1.000000" fill-rule="evenodd"/>
</svg>
