<svg width="16.000000" height="16.000000" viewBox="0 0 16 16" fill="none" xmlns="http://www.w3.org/2000/svg" xmlns:xlink="http://www.w3.org/1999/xlink">
	<desc>
			Created with Pixso.
	</desc>
	<defs>
		<clipPath id="clip247_37915">
			<rect id="star 1" rx="0.000000" width="15.000000" height="15.000000" transform="translate(0.500000 0.500000)" fill="white" fill-opacity="0"/>
		</clipPath>
	</defs>
	<rect id="star 1" rx="0.000000" width="15.000000" height="15.000000" transform="translate(0.500000 0.500000)" fill="#FFFFFF" fill-opacity="0"/>
	<g clip-path="url(#clip247_37915)">
		<path id="Vector" d="M15.55 5.8L10.65 5.09L8.46 0.65C8.27 0.26 7.72 0.26 7.53 0.65L5.34 5.09L0.44 5.8C0.01 5.86 -0.16 6.39 0.15 6.69L3.69 10.14L2.86 15.02C2.83 15.21 2.91 15.41 3.07 15.53C3.23 15.65 3.44 15.66 3.62 15.57L8 13.27C12.76 15.77 12.43 15.63 12.62 15.63C12.94 15.63 13.19 15.34 13.13 15.02L12.3 10.14L15.84 6.69C16.15 6.39 15.98 5.86 15.55 5.8Z" fill="#F7AC16" fill-opacity="1.000000" fill-rule="nonzero"/>
		<path id="Vector" d="M8 0.36C7.8 0.36 7.61 0.47 7.53 0.65L5.34 5.09L0.44 5.8C0.01 5.86 -0.16 6.39 0.15 6.69L3.69 10.14L2.86 15.02C2.83 15.21 2.91 15.41 3.07 15.53C3.23 15.65 3.44 15.66 3.62 15.57L8 13.27L8 13.27L8 0.36Z" fill="#F2D422" fill-opacity="1.000000" fill-rule="nonzero"/>
		<path id="Vector" d="M0.44 5.8C0.01 5.86 -0.16 6.39 0.15 6.69L3.69 10.14L2.86 15.02C2.83 15.21 2.91 15.41 3.07 15.53C3.23 15.65 3.44 15.66 3.62 15.57L8 13.27C12.76 15.77 12.43 15.63 12.62 15.63C12.72 15.63 12.83 15.59 12.92 15.53L5.34 5.09L0.44 5.8Z" fill="#F7AC16" fill-opacity="1.000000" fill-rule="nonzero"/>
		<path id="Vector" d="M5.58 9.54C1.78 5.84 1.94 6.04 1.89 5.85C1.87 5.77 1.87 5.68 1.89 5.59L0.44 5.8C0.01 5.86 -0.16 6.39 0.15 6.69L3.69 10.14L2.86 15.02C2.83 15.21 2.91 15.41 3.07 15.53C3.23 15.65 3.44 15.66 3.62 15.57L4.91 14.89C4.77 14.77 4.71 14.59 4.74 14.41L5.58 9.54Z" fill="#F48B19" fill-opacity="1.000000" fill-rule="nonzero"/>
		<path id="Vector" d="M0.15 6.69L3.69 10.14L2.86 15.02C2.83 15.21 2.91 15.41 3.07 15.53C3.23 15.65 3.44 15.66 3.62 15.57L8 13.27C12.76 15.77 12.43 15.63 12.62 15.63C12.94 15.63 13.19 15.34 13.13 15.02L12.3 10.14L0.02 6.15C-0.04 6.37 0.02 6.56 0.15 6.69Z" fill="#F2D422" fill-opacity="1.000000" fill-rule="nonzero"/>
		<path id="Vector" d="M0.15 6.69L3.69 10.14L2.86 15.02C2.83 15.21 2.91 15.41 3.07 15.53C3.23 15.65 3.44 15.66 3.62 15.57L4.91 14.89C4.77 14.77 4.71 14.59 4.74 14.41L5.58 9.54L3.14 7.17L0.02 6.15C-0.04 6.37 0.02 6.56 0.15 6.69Z" fill="#EFB616" fill-opacity="1.000000" fill-rule="nonzero"/>
		<path id="Vector" d="M2.86 15.02C2.83 15.21 2.91 15.41 3.07 15.53C3.23 15.65 3.44 15.66 3.62 15.57L8 13.27C12.76 15.77 12.43 15.63 12.62 15.63C12.94 15.63 13.19 15.34 13.13 15.02L12.3 10.14L15.84 6.69C15.98 6.55 16.03 6.34 15.97 6.15L3.69 10.14L2.86 15.02Z" fill="#F7AC16" fill-opacity="1.000000" fill-rule="nonzero"/>
		<path id="Vector" d="M2.86 15.02C2.83 15.21 2.91 15.41 3.07 15.53C3.23 15.65 3.44 15.66 3.62 15.57L4.9 14.89C4.77 14.77 4.71 14.59 4.74 14.41L5.58 9.54L5.57 9.53L3.69 10.14L2.86 15.02Z" fill="#F48B19" fill-opacity="1.000000" fill-rule="nonzero"/>
		<path id="Vector" d="M3.62 15.57L8 13.27C12.76 15.77 12.43 15.63 12.62 15.63C12.94 15.63 13.19 15.34 13.13 15.02L12.3 10.14L15.84 6.69C16.15 6.39 15.98 5.86 15.55 5.8L10.65 5.09L3.07 15.53C3.23 15.65 3.44 15.66 3.62 15.57Z" fill="#F2D422" fill-opacity="1.000000" fill-rule="nonzero"/>
		<path id="Vector" d="M15.97 6.15L8 8.74L3.07 15.53C3.23 15.65 3.44 15.66 3.62 15.57L8 13.27C12.76 15.77 12.43 15.63 12.62 15.63C12.94 15.63 13.19 15.34 13.13 15.02L12.3 10.14L15.84 6.69C15.98 6.55 16.03 6.34 15.97 6.15Z" fill="#F7AC16" fill-opacity="1.000000" fill-rule="nonzero"/>
		<path id="Vector" d="M12.3 10.14L8 8.74L3.07 15.53C3.23 15.65 3.44 15.66 3.62 15.57L8 13.27C12.76 15.77 12.43 15.63 12.62 15.63C12.94 15.63 13.19 15.34 13.13 15.02L12.3 10.14Z" fill="#F2D422" fill-opacity="1.000000" fill-rule="nonzero"/>
		<path id="Vector" d="M3.07 15.53C3.23 15.65 3.44 15.66 3.62 15.57L8 13.27C12.76 15.77 12.43 15.63 12.62 15.63C12.73 15.63 12.83 15.59 12.92 15.53L8 8.74L3.07 15.53Z" fill="#F7AC16" fill-opacity="1.000000" fill-rule="nonzero"/>
		<path id="Vector" d="M8 8.74L8 8.74L3.07 15.53C3.23 15.65 3.44 15.66 3.62 15.57L8 13.27L8 13.27L8 8.74Z" fill="#F2D422" fill-opacity="1.000000" fill-rule="nonzero"/>
		<path id="Vector" d="M5.01 12.86L3.07 15.53C3.23 15.65 3.44 15.66 3.62 15.57L4.91 14.89C4.77 14.77 4.71 14.59 4.74 14.41L5.01 12.86Z" fill="#EFB616" fill-opacity="1.000000" fill-rule="nonzero"/>
	</g>
</svg>
