<svg width="18.000000" height="18.000000" viewBox="0 0 18 18" fill="none" xmlns="http://www.w3.org/2000/svg" xmlns:xlink="http://www.w3.org/1999/xlink">
	<desc>
			Created with Pixso.
	</desc>
	<defs>
		<clipPath id="clip122_6539">
			<rect id="UniqIcons/interface/solid/logout" rx="0.000000" width="17.000000" height="17.000000" transform="translate(0.500000 0.500000)" fill="white" fill-opacity="0"/>
		</clipPath>
	</defs>
	<g clip-path="url(#clip122_6539)">
		<path id="combo shape" d="M5.0625 2.4375C3.0957 2.4375 1.5 4.03247 1.5 6L1.5 12C1.5 13.9675 3.0957 15.5625 5.0625 15.5625L10.5 15.5625C12.4668 15.5625 14.0625 13.9675 14.0625 12C14.0625 11.6893 13.8105 11.4375 13.5 11.4375C13.1895 11.4375 12.9375 11.6893 12.9375 12C12.9375 13.3462 11.8457 14.4375 10.5 14.4375L7.09766 14.4375C7.69531 13.8002 8.0625 12.9429 8.0625 12L8.0625 6C8.0625 5.05707 7.69531 4.19977 7.09766 3.5625L10.5 3.5625C11.8457 3.5625 12.9375 4.65381 12.9375 6C12.9375 6.31067 13.1895 6.5625 13.5 6.5625C13.8105 6.5625 14.0625 6.31067 14.0625 6C14.0625 4.03247 12.4668 2.4375 10.5 2.4375L5.0625 2.4375ZM14.3594 10.1022C14.1406 10.3219 14.1406 10.6781 14.3594 10.8978C14.5801 11.1174 14.9355 11.1174 15.1562 10.8978L16.125 9.9281C16.6367 9.41553 16.6367 8.58447 16.125 8.0719L15.1562 7.10223C14.9355 6.88257 14.5801 6.88257 14.3594 7.10223C14.1406 7.3219 14.1406 7.6781 14.3594 7.89777L14.9004 8.4375L10.3125 8.4375C10.002 8.4375 9.75 8.68933 9.75 9C9.75 9.31067 10.002 9.5625 10.3125 9.5625L14.9004 9.5625L14.3594 10.1022Z" clip-rule="evenodd" fill="#C1C3D1" fill-opacity="1.000000" fill-rule="evenodd"/>
	</g>
</svg>
