<svg width="28.000000" height="28.000000" viewBox="0 0 28 28" fill="none" xmlns="http://www.w3.org/2000/svg" xmlns:xlink="http://www.w3.org/1999/xlink">
	<desc>
			Created with Pixso.
	</desc>
	<defs/>
	<path id="Vector" d="M27.14 10.98C27.42 11.3 27.64 11.68 27.84 12.06C27.93 12.7 28 13.35 28 14.02C28 15.96 27.6 17.8 26.9 19.48C26.9 19.05 26.9 18.62 26.87 18.2C26.7 15.36 25.87 12.56 24.51 10.04C24.59 10 24.66 9.97 24.75 9.96C25.53 9.79 26.48 10.19 27.14 10.98ZM19.45 2.03C19.54 2.59 19.43 3.19 19.17 3.74C19.94 4.32 20.68 4.97 21.38 5.69C21.41 5.72 21.44 5.77 21.47 5.81C22.19 5.16 22.93 4.54 23.66 3.9C22.33 2.63 20.75 1.62 19 0.94C19.2 1.27 19.37 1.63 19.43 2.04L19.45 2.03ZM19.54 19.58C19.81 18.6 19.97 17.54 20.14 16.53C20.41 14.73 20.71 12.85 21.57 11.16C21.82 10.66 22.17 10.1 22.65 9.63C22.25 8.99 21.83 8.38 21.36 7.8C15.56 13.11 10.09 18.78 4.97 24.75C7.19 26.61 10 27.8 13.07 28C13.61 27.68 14.14 27.35 14.63 26.97C17.01 25.13 18.75 22.51 19.54 19.59L19.54 19.58ZM20.44 6.74C20.44 6.74 20.39 6.68 20.36 6.65C19.73 5.98 19.05 5.39 18.33 4.86C17.8 5.37 17.18 5.71 16.67 5.96C14.75 6.91 12.64 7.39 10.6 7.87L9.45 8.14C7.15 8.69 4.78 9.4 2.93 10.85C1.71 11.79 0.71 13.1 0 14.62C0.16 18.17 1.62 21.38 3.94 23.77C9.09 17.77 14.6 12.06 20.44 6.73L20.44 6.74ZM25.47 18.29C25.31 15.73 24.58 13.21 23.38 10.91C23.13 11.22 22.94 11.55 22.82 11.79C22.05 13.29 21.8 14.98 21.51 16.76C21.35 17.81 21.18 18.9 20.89 19.96C20.05 23.09 18.18 25.91 15.65 27.93C19.58 27.46 23 25.36 25.24 22.33C25.45 21 25.54 19.64 25.45 18.29L25.47 18.29ZM2.08 9.76C4.14 8.15 6.68 7.37 9.13 6.79L10.29 6.51C12.24 6.06 14.27 5.58 16.06 4.71C16.39 4.55 16.79 4.33 17.15 4.05C15.8 3.22 14.39 2.61 12.92 2.27C10.04 1.61 7.09 2.06 4.77 3.46C2.39 5.54 0.72 8.41 0.17 11.68C0.73 10.95 1.35 10.31 2.07 9.76L2.08 9.76ZM13.24 0.91C14.88 1.29 16.49 1.98 18 2.93C18.08 2.7 18.1 2.48 18.07 2.27C17.99 1.8 17.63 1.36 17.19 0.86L16.67 0.26C15.8 0.09 14.91 0 13.98 0C12.57 0 11.22 0.21 9.94 0.6C11.02 0.57 12.14 0.66 13.24 0.91ZM24.63 4.91C23.89 5.56 23.13 6.2 22.4 6.87C22.91 7.48 23.37 8.14 23.79 8.82C24 8.72 24.21 8.65 24.45 8.59C25.32 8.4 26.26 8.6 27.1 9.12C26.52 7.57 25.69 6.14 24.63 4.91Z" fill="#9ED927" fill-opacity="1.000000" fill-rule="nonzero"/>
</svg>
