<svg width="20.000000" height="13.724121" viewBox="0 0 20 13.7241" fill="none" xmlns="http://www.w3.org/2000/svg" xmlns:xlink="http://www.w3.org/1999/xlink">
	<desc>
			Created with Pixso.
	</desc>
	<defs/>
	<path id="Vector" d="M19.41 4.93C19.73 4.93 20 4.67 20 4.35L20 2.88C20 1.08 18.91 0 17.11 0L13.72 0L13.72 1.84C13.69 2.61 12.58 2.61 12.55 1.84L12.55 0L2.88 0C1.08 0 0 1.08 0 2.88L0 4.35C0 4.67 0.26 4.93 0.58 4.93C3.13 5.03 3.13 8.69 0.58 8.78C0.26 8.78 0 9.04 0 9.37L0 10.83C0 12.64 1.08 13.72 2.88 13.72L12.55 13.72L12.55 11.88C12.58 11.1 13.69 11.1 13.72 11.88L13.72 13.72L17.11 13.72C18.91 13.72 20 12.64 20 10.83L20 9.37C20 9.04 19.73 8.78 19.41 8.78C16.86 8.68 16.86 5.03 19.41 4.93ZM13.72 9.37C13.69 10.14 12.58 10.14 12.55 9.37L12.55 8.11C12.58 7.34 13.69 7.34 13.72 8.11L13.72 9.37ZM13.72 5.6C13.69 6.38 12.58 6.38 12.55 5.6L12.55 4.35C12.58 3.57 13.69 3.57 13.72 4.35L13.72 5.6Z" fill="#142800" fill-opacity="1.000000" fill-rule="nonzero"/>
</svg>
