<svg width="15.995117" height="11.177490" viewBox="0 0 15.9951 11.1775" fill="none" xmlns="http://www.w3.org/2000/svg" xmlns:xlink="http://www.w3.org/1999/xlink">
	<desc>
			Created with Pixso.
	</desc>
	<defs/>
	<path id="Vector" d="M15.66 1.72C15.56 1.39 15.39 1.08 15.14 0.84C14.9 0.6 14.59 0.42 14.26 0.33C13.02 0 8 0 8 0C8 0 3 -0.01 1.73 0.33C1.4 0.42 1.1 0.6 0.86 0.84C0.61 1.08 0.44 1.39 0.34 1.72C0.11 3 -0.01 4.29 0 5.59C-0.01 6.88 0.11 8.17 0.34 9.45C0.44 9.78 0.61 10.08 0.86 10.32C1.1 10.57 1.4 10.75 1.73 10.84C2.98 11.17 8 11.17 8 11.17C8 11.17 13 11.17 14.26 10.84C14.59 10.75 14.9 10.57 15.14 10.32C15.39 10.08 15.56 9.78 15.66 9.45C15.89 8.17 16 6.88 15.99 5.59C16 4.29 15.89 3 15.66 1.72ZM6.4 7.98L6.4 3.19L10.57 5.59L6.4 7.98Z" fill="#C1C3D1" fill-opacity="1.000000" fill-rule="nonzero"/>
</svg>
