<svg width="18.000000" height="18.000000" viewBox="0 0 18 18" fill="none" xmlns="http://www.w3.org/2000/svg" xmlns:xlink="http://www.w3.org/1999/xlink">
	<desc>
			Created with Pixso.
	</desc>
	<defs>
		<clipPath id="clip2021_18133">
			<rect id="fi_2710178" rx="0.000000" width="17.000000" height="17.000000" transform="translate(0.500000 0.500000)" fill="white" fill-opacity="0"/>
		</clipPath>
	</defs>
	<rect id="fi_2710178" rx="0.000000" width="17.000000" height="17.000000" transform="translate(0.500000 0.500000)" fill="#FFFFFF" fill-opacity="0"/>
	<g clip-path="url(#clip2021_18133)">
		<path id="Vector" d="M15.75 3.75L2.25 3.75C2.05 3.75 1.86 3.82 1.71 3.96C1.57 4.11 1.5 4.3 1.5 4.5C1.5 4.69 1.57 4.88 1.71 5.03C1.86 5.17 2.05 5.25 2.25 5.25L3.75 5.25L3.75 14.25C3.75 14.84 3.98 15.41 4.4 15.84C4.83 16.26 5.4 16.49 6 16.5L12 16.5C12.59 16.49 13.16 16.26 13.59 15.84C14.01 15.41 14.25 14.84 14.25 14.25L14.25 5.25L15.75 5.25C15.94 5.25 16.13 5.17 16.28 5.03C16.42 4.88 16.5 4.69 16.5 4.5C16.5 4.3 16.42 4.11 16.28 3.96C16.13 3.82 15.94 3.75 15.75 3.75ZM8.25 12C8.25 12.19 8.17 12.38 8.03 12.53C7.88 12.67 7.69 12.75 7.5 12.75C7.3 12.75 7.11 12.67 6.96 12.53C6.82 12.38 6.75 12.19 6.75 12L6.75 8.25C6.75 8.05 6.82 7.86 6.96 7.71C7.11 7.57 7.3 7.5 7.5 7.5C7.69 7.5 7.88 7.57 8.03 7.71C8.17 7.86 8.25 8.05 8.25 8.25L8.25 12ZM11.25 12C11.25 12.19 11.17 12.38 11.03 12.53C10.88 12.67 10.69 12.75 10.5 12.75C10.3 12.75 10.11 12.67 9.96 12.53C9.82 12.38 9.75 12.19 9.75 12L9.75 8.25C9.75 8.05 9.82 7.86 9.96 7.71C10.11 7.57 10.3 7.5 10.5 7.5C10.69 7.5 10.88 7.57 11.03 7.71C11.17 7.86 11.25 8.05 11.25 8.25L11.25 12Z" fill="#A7AAB7" fill-opacity="1.000000" fill-rule="nonzero"/>
		<path id="Vector" d="M7.5 3L10.5 3C10.69 3 10.88 2.92 11.03 2.78C11.17 2.63 11.25 2.44 11.25 2.25C11.25 2.05 11.17 1.86 11.03 1.71C10.88 1.57 10.69 1.5 10.5 1.5L7.5 1.5C7.3 1.5 7.11 1.57 6.96 1.71C6.82 1.86 6.75 2.05 6.75 2.25C6.75 2.44 6.82 2.63 6.96 2.78C7.11 2.92 7.3 3 7.5 3Z" fill="#A7AAB7" fill-opacity="1.000000" fill-rule="nonzero"/>
	</g>
</svg>
