<svg width="16.000000" height="12.710449" viewBox="0 0 16 12.7104" fill="none" xmlns="http://www.w3.org/2000/svg" xmlns:xlink="http://www.w3.org/1999/xlink">
	<desc>
			Created with Pixso.
	</desc>
	<defs/>
	<path id="Vector" d="M8 11.34C8 11.62 7.84 11.88 7.58 12C7.48 12.04 7.38 12.06 7.27 12.06C7.11 12.06 6.94 12.01 6.81 11.9L2.84 8.61L0.72 8.61C0.32 8.61 0 8.28 0 7.88L0 4.98C0 4.58 0.32 4.26 0.72 4.26L2.84 4.26L6.81 0.97C7.03 0.79 7.33 0.75 7.58 0.87C7.84 0.99 8 1.24 8 1.53L8 11.34ZM10.79 10.2C10.77 10.2 10.76 10.2 10.74 10.2C10.55 10.2 10.36 10.13 10.23 9.99L10.13 9.89C9.87 9.64 9.84 9.24 10.06 8.95C10.6 8.21 10.89 7.34 10.89 6.43C10.89 5.45 10.56 4.53 9.95 3.77C9.71 3.48 9.73 3.06 10 2.8L10.09 2.7C10.24 2.56 10.43 2.48 10.64 2.49C10.85 2.5 11.04 2.6 11.17 2.76C12.03 3.8 12.48 5.07 12.48 6.43C12.48 7.7 12.08 8.9 11.32 9.91C11.2 10.08 11 10.19 10.79 10.2ZM13.8 12.45C13.66 12.6 13.48 12.7 13.27 12.71C13.26 12.71 13.25 12.71 13.24 12.71C13.05 12.71 12.86 12.63 12.73 12.49L12.63 12.4C12.36 12.13 12.35 11.7 12.59 11.42C13.76 10.02 14.41 8.25 14.41 6.43C14.41 4.54 13.72 2.72 12.46 1.3C12.21 1.01 12.22 0.58 12.49 0.3L12.59 0.21C12.73 0.07 12.91 -0.01 13.12 0C13.32 0 13.51 0.09 13.64 0.24C15.16 1.95 16 4.15 16 6.43C16 8.63 15.21 10.77 13.8 12.45Z" fill="#A7AAB7" fill-opacity="1.000000" fill-rule="nonzero"/>
</svg>
